<svg xmlns:xlink="http://www.w3.org/1999/xlink" width="390" xmlns="http://www.w3.org/2000/svg" height="80" id="screenshot-49e6baf4-25b4-806c-8002-3c9ae475c94f" viewBox="0 0 390 80" style="-webkit-print-color-adjust: exact;" fill="none" version="1.1"><g id="shape-49e6baf4-25b4-806c-8002-3c9ae475c94f"><defs><clipPath class="frame-clip-def frame-clip" id="frame-clip-49e6baf4-25b4-806c-8002-3c9ae475c94f-rumext-id-1"><rect rx="0" ry="0" x="0" y="0" width="390" height="80" transform="matrix(1.000000, 0.000000, 0.000000, 1.000000, 0.000000, 0.000000)" style="opacity: 1;"/></clipPath></defs><g clip-path="url(#frame-clip-49e6baf4-25b4-806c-8002-3c9ae475c94f-rumext-id-1)"><clipPath class="frame-clip-def frame-clip" id="frame-clip-49e6baf4-25b4-806c-8002-3c9ae475c94f-rumext-id-1"><rect rx="0" ry="0" x="0" y="0" width="390" height="80" transform="matrix(1.000000, 0.000000, 0.000000, 1.000000, 0.000000, 0.000000)" style="opacity: 1;"/></clipPath><g class="fills" id="fills-49e6baf4-25b4-806c-8002-3c9ae475c94f"><rect width="390" height="80" class="frame-background" x="0" transform="matrix(1.000000, 0.000000, 0.000000, 1.000000, 0.000000, 0.000000)" style="opacity: 1;" ry="0" rx="0" y="0"/></g><g class="frame-children" opacity="1"><g id="shape-49e6baf4-25b4-806c-8002-3c9ae475c950"><defs><clipPath class="frame-clip-def frame-clip" id="frame-clip-49e6baf4-25b4-806c-8002-3c9ae475c950-rumext-id-2"><rect rx="0" ry="0" x="0" y="2.2737367544323206e-13" width="390" height="80.00000000000068" transform="matrix(1.000000, 0.000000, 0.000000, 1.000000, 0.000000, 0.000000)"/></clipPath></defs><g clip-path="url(#frame-clip-49e6baf4-25b4-806c-8002-3c9ae475c950-rumext-id-2)"><clipPath class="frame-clip-def frame-clip" id="frame-clip-49e6baf4-25b4-806c-8002-3c9ae475c950-rumext-id-2"><rect rx="0" ry="0" x="0" y="2.2737367544323206e-13" width="390" height="80.00000000000068" transform="matrix(1.000000, 0.000000, 0.000000, 1.000000, 0.000000, 0.000000)"/></clipPath><g class="fills" id="fills-49e6baf4-25b4-806c-8002-3c9ae475c950"><rect rx="0" ry="0" x="0" y="2.2737367544323206e-13" transform="matrix(1.000000, 0.000000, 0.000000, 1.000000, 0.000000, 0.000000)" width="390" height="80.00000000000068" class="frame-background"/></g><g class="frame-children"><g id="shape-49e6baf4-25b4-806c-8002-3c9ae475c951"><g class="fills" id="fills-49e6baf4-25b4-806c-8002-3c9ae475c951"><rect rx="0" ry="0" x="-2.2737367544323206e-13" y="4.547473508864641e-13" transform="matrix(1.000000, 0.000000, 0.000000, 1.000000, 0.000000, 0.000000)" width="390" height="80.00000000000091" style="fill: rgb(255, 251, 254); fill-opacity: 1;"/></g></g><g id="shape-49e6baf4-25b4-806c-8002-3c9ae475c952"><g class="fills" id="fills-49e6baf4-25b4-806c-8002-3c9ae475c952"><rect rx="0" ry="0" x="0" y="0" transform="matrix(1.000000, 0.000000, 0.000000, 1.000000, 0.000000, 0.000000)" width="390" height="80.00000000000045" style="opacity: 0.08; fill: rgb(103, 80, 164); fill-opacity: 1;"/></g></g></g></g></g><g id="shape-49e6baf4-25b4-806c-8002-3c9ae475c953"><defs><clipPath class="frame-clip-def frame-clip" id="frame-clip-49e6baf4-25b4-806c-8002-3c9ae475c953-rumext-id-5"><rect rx="0" ry="0" x="0" y="0" width="390" height="80.00000000000068" transform="matrix(1.000000, 0.000000, 0.000000, 1.000000, 0.000000, 0.000000)"/></clipPath></defs><g clip-path="url(#frame-clip-49e6baf4-25b4-806c-8002-3c9ae475c953-rumext-id-5)"><clipPath class="frame-clip-def frame-clip" id="frame-clip-49e6baf4-25b4-806c-8002-3c9ae475c953-rumext-id-5"><rect rx="0" ry="0" x="0" y="0" width="390" height="80.00000000000068" transform="matrix(1.000000, 0.000000, 0.000000, 1.000000, 0.000000, 0.000000)"/></clipPath><g class="fills" id="fills-49e6baf4-25b4-806c-8002-3c9ae475c953"><rect rx="0" ry="0" x="0" y="0" transform="matrix(1.000000, 0.000000, 0.000000, 1.000000, 0.000000, 0.000000)" width="390" height="80.00000000000068" class="frame-background"/></g><g class="frame-children"><g id="shape-49e6baf4-25b4-806c-8002-3c9ae475c954"><defs><clipPath class="frame-clip-def frame-clip" id="frame-clip-49e6baf4-25b4-806c-8002-3c9ae475c954-rumext-id-6"><rect rx="0" ry="0" x="4" y="12" width="369.9999999999998" height="48" transform="matrix(1.000000, 0.000000, 0.000000, 1.000000, 0.000000, 0.000000)"/></clipPath></defs><g clip-path="url(#frame-clip-49e6baf4-25b4-806c-8002-3c9ae475c954-rumext-id-6)"><clipPath class="frame-clip-def frame-clip" id="frame-clip-49e6baf4-25b4-806c-8002-3c9ae475c954-rumext-id-6"><rect rx="0" ry="0" x="4" y="12" width="369.9999999999998" height="48" transform="matrix(1.000000, 0.000000, 0.000000, 1.000000, 0.000000, 0.000000)"/></clipPath><g class="fills" id="fills-49e6baf4-25b4-806c-8002-3c9ae475c954"><rect rx="0" ry="0" x="4" y="12" transform="matrix(1.000000, 0.000000, 0.000000, 1.000000, 0.000000, 0.000000)" width="369.9999999999998" height="48" class="frame-background"/></g><g class="frame-children"><g id="shape-cca46d99-dc1f-805e-8002-3f20379cd59e"><g><g class="fills" id="fills-cca46d99-dc1f-805e-8002-3f20379cd59e"><rect rx="0" ry="0" x="172" y="12" transform="matrix(1.000000, 0.000000, 0.000000, 1.000000, 0.000000, 0.000000)" width="48" height="48" class="frame-background"/></g><g class="frame-children"><g id="shape-cca46d99-dc1f-805e-8002-3f20379cd59f"><g><g class="fills" id="fills-cca46d99-dc1f-805e-8002-3f20379cd59f"><rect rx="0" ry="0" x="183.9999999999991" y="24.000000000000114" transform="matrix(1.000000, 0.000000, 0.000000, 1.000000, 0.000000, 0.000000)" width="24.000000000000455" height="23.99999999999966" class="frame-background"/></g><g class="frame-children"><g id="shape-1e62daae-ed91-80d4-8002-42c0b4965540" height="48" width="48" rx="0" ry="0" style="fill: rgb(0, 0, 0);"><g id="shape-1e62daae-ed91-80d4-8002-42c0b49db68b"><g class="fills" id="fills-1e62daae-ed91-80d4-8002-42c0b49db68b"><path rx="0" ry="0" d="M203.900,44.975L197.325,38.400C196.825,38.833,196.242,39.171,195.576,39.412C194.910,39.654,194.201,39.775,193.450,39.775C191.647,39.775,190.122,39.150,188.873,37.900C187.624,36.650,187.000,35.142,187.000,33.375C187.000,31.608,187.625,30.100,188.875,28.850C190.125,27.600,191.637,26.975,193.412,26.975C195.187,26.975,196.696,27.600,197.937,28.850C199.179,30.100,199.800,31.610,199.800,33.379C199.800,34.093,199.683,34.783,199.450,35.450C199.217,36.117,198.867,36.742,198.400,37.325L205.000,43.875L203.900,44.975ZZM193.425,38.275C194.779,38.275,195.930,37.796,196.878,36.837C197.826,35.879,198.300,34.725,198.300,33.375C198.300,32.025,197.826,30.871,196.878,29.912C195.930,28.954,194.779,28.475,193.425,28.475C192.057,28.475,190.894,28.954,189.936,29.912C188.979,30.871,188.500,32.025,188.500,33.375C188.500,34.725,188.979,35.879,189.936,36.837C190.894,37.796,192.057,38.275,193.425,38.275ZZ"/></g></g></g></g></g></g></g></g></g><g id="shape-cca46d99-dc1f-805e-8002-3f1ffbc3e923"><g><g class="fills" id="fills-cca46d99-dc1f-805e-8002-3f1ffbc3e923"><rect rx="0" ry="0" x="116" y="12" transform="matrix(1.000000, 0.000000, 0.000000, 1.000000, 0.000000, 0.000000)" width="48" height="48" class="frame-background"/></g><g class="frame-children"><g id="shape-cca46d99-dc1f-805e-8002-3f1ffbc3e924"><g><g class="fills" id="fills-cca46d99-dc1f-805e-8002-3f1ffbc3e924"><rect rx="0" ry="0" x="127.99999999999909" y="24.000000000000227" transform="matrix(1.000000, 0.000000, 0.000000, 1.000000, 0.000000, 0.000000)" width="24.000000000000455" height="23.999999999999545" class="frame-background"/></g><g class="frame-children"><g id="shape-1e62daae-ed91-80d4-8002-42c09106e2a2" height="48" width="48" rx="0" ry="0" style="fill: rgb(0, 0, 0);"><g id="shape-1e62daae-ed91-80d4-8002-42c0910c9648"><g class="fills" id="fills-1e62daae-ed91-80d4-8002-42c0910c9648"><path rx="0" ry="0" d="M140.000,37.425C139.283,37.425,138.683,37.167,138.200,36.652C137.717,36.137,137.475,35.511,137.475,34.775L137.475,28.500C137.475,27.806,137.720,27.215,138.211,26.729C138.702,26.243,139.298,26.000,139.999,26.000C140.700,26.000,141.296,26.243,141.787,26.729C142.279,27.215,142.525,27.806,142.525,28.500L142.525,34.775C142.525,35.511,142.283,36.137,141.800,36.652C141.317,37.167,140.717,37.425,140.000,37.425ZZM140.000,31.725ZM139.250,45.000L139.250,41.600C137.483,41.417,136.000,40.675,134.800,39.375C133.600,38.075,133.000,36.542,133.000,34.775L134.500,34.775C134.500,36.292,135.036,37.567,136.107,38.600C137.179,39.633,138.474,40.150,139.995,40.150C141.515,40.150,142.812,39.633,143.887,38.600C144.962,37.567,145.500,36.292,145.500,34.775L147.000,34.775C147.000,36.542,146.400,38.075,145.200,39.375C144.000,40.675,142.517,41.417,140.750,41.600L140.750,45.000L139.250,45.000ZZM140.000,35.925C140.300,35.925,140.546,35.813,140.737,35.587C140.929,35.363,141.025,35.092,141.025,34.775L141.025,28.500C141.025,28.217,140.927,27.979,140.730,27.788C140.534,27.596,140.290,27.500,140.000,27.500C139.710,27.500,139.466,27.596,139.270,27.788C139.073,27.979,138.975,28.217,138.975,28.500L138.975,34.775C138.975,35.092,139.071,35.363,139.262,35.587C139.454,35.813,139.700,35.925,140.000,35.925ZZ"/></g></g></g></g></g></g></g></g></g><g id="shape-cca46d99-dc1f-805e-8002-3f1fc415c1d5"><g><g class="fills" id="fills-cca46d99-dc1f-805e-8002-3f1fc415c1d5"><rect rx="0" ry="0" x="60" y="12" transform="matrix(1.000000, 0.000000, 0.000000, 1.000000, 0.000000, 0.000000)" width="48" height="48" class="frame-background"/></g><g class="frame-children"><g id="shape-cca46d99-dc1f-805e-8002-3f1fc415c1d6"><g><g class="fills" id="fills-cca46d99-dc1f-805e-8002-3f1fc415c1d6"><rect rx="0" ry="0" x="71.99999999999909" y="24.000000000000227" transform="matrix(1.000000, 0.000000, 0.000000, 1.000000, 0.000000, 0.000000)" width="24.000000000000455" height="23.999999999999545" class="frame-background"/></g><g class="frame-children"><g id="shape-1e62daae-ed91-80d4-8002-42c0607d02e6" height="48" width="48" rx="0" ry="0" style="fill: rgb(0, 0, 0);"><g id="shape-1e62daae-ed91-80d4-8002-42c06082e9f0"><g class="fills" id="fills-1e62daae-ed91-80d4-8002-42c06082e9f0"><path rx="0" ry="0" d="M77.500,44.000C77.100,44.000,76.750,43.850,76.450,43.550C76.150,43.250,76.000,42.900,76.000,42.500L76.000,38.925L77.500,38.925L77.500,42.500L90.500,42.500L90.500,38.925L92.000,38.925L92.000,42.500C92.000,42.900,91.850,43.250,91.550,43.550C91.250,43.850,90.900,44.000,90.500,44.000L77.500,44.000ZZM84.000,40.175L79.175,35.350L80.250,34.275L83.250,37.275L83.250,28.000L84.750,28.000L84.750,37.275L87.750,34.275L88.825,35.350L84.000,40.175ZZ"/></g></g></g></g></g></g></g></g></g><g id="shape-cca46d99-dc1f-805e-8002-3f1f75468aa5"><g><g class="fills" id="fills-cca46d99-dc1f-805e-8002-3f1f75468aa5"><rect rx="0" ry="0" x="4" y="12" transform="matrix(1.000000, 0.000000, 0.000000, 1.000000, 0.000000, 0.000000)" width="48" height="48" class="frame-background"/></g><g class="frame-children"><g id="shape-cca46d99-dc1f-805e-8002-3f1f75468aa6"><g><g class="fills" id="fills-cca46d99-dc1f-805e-8002-3f1f75468aa6"><rect rx="0" ry="0" x="15.99999999999909" y="24.000000000000227" transform="matrix(1.000000, 0.000000, 0.000000, 1.000000, 0.000000, 0.000000)" width="24.000000000000455" height="23.999999999999545" class="frame-background"/></g><g class="frame-children"><g id="shape-1e62daae-ed91-80d4-8002-42bfde411309" height="48" width="48" rx="0" ry="0" style="fill: rgb(0, 0, 0);"><g id="shape-1e62daae-ed91-80d4-8002-42bfde479ed6"><g class="fills" id="fills-1e62daae-ed91-80d4-8002-42bfde479ed6"><path rx="0" ry="0" d="M28.000,33.650L26.950,32.600L28.800,30.750L24.250,30.750L24.250,29.250L28.800,29.250L26.950,27.400L28.000,26.350L31.650,30.000L28.000,33.650ZZM23.245,46.000C22.748,46.000,22.325,45.823,21.975,45.470C21.625,45.116,21.450,44.691,21.450,44.195C21.450,43.698,21.627,43.275,21.980,42.925C22.334,42.575,22.759,42.400,23.255,42.400C23.752,42.400,24.175,42.577,24.525,42.930C24.875,43.284,25.050,43.709,25.050,44.205C25.050,44.702,24.873,45.125,24.520,45.475C24.166,45.825,23.741,46.000,23.245,46.000ZZM33.345,46.000C32.848,46.000,32.425,45.823,32.075,45.470C31.725,45.116,31.550,44.691,31.550,44.195C31.550,43.698,31.727,43.275,32.080,42.925C32.434,42.575,32.859,42.400,33.355,42.400C33.852,42.400,34.275,42.577,34.625,42.930C34.975,43.284,35.150,43.709,35.150,44.205C35.150,44.702,34.973,45.125,34.620,45.475C34.266,45.825,33.841,46.000,33.345,46.000ZZM17.550,27.500L17.550,26.000L20.450,26.000L24.700,35.100L31.893,35.100L35.900,28.100L37.575,28.100L33.525,35.675C33.342,35.992,33.104,36.246,32.811,36.438C32.518,36.629,32.198,36.725,31.850,36.725L24.275,36.725L22.875,39.325L35.150,39.325L35.150,40.825L23.100,40.825C22.472,40.825,21.995,40.575,21.667,40.075C21.339,39.575,21.317,39.067,21.600,38.550L23.200,35.600L19.500,27.500L17.550,27.500ZZ" style="fill: rgb(103, 80, 164); fill-opacity: 1;"/></g></g></g></g></g></g></g></g></g></g></g></g></g></g></g></g></g></g></svg>