<svg width="390" height="80" fill="none" style="-webkit-print-color-adjust:exact"><defs><clipPath id="a" class="frame-clip-def frame-clip"><rect width="390" height="80" rx="0" ry="0" style="opacity:1"/></clipPath></defs><g clip-path="url(#a)"><g class="fills"><rect width="390" height="80" class="frame-background" rx="0" ry="0" style="opacity:1"/></g><g class="frame-children"><defs><clipPath id="b" class="frame-clip-def frame-clip"><rect width="390" height="80" rx="0" ry="0"/></clipPath></defs><g clip-path="url(#b)"><g class="fills"><rect width="390" height="80" class="frame-background" rx="0" ry="0"/></g><g class="frame-children"><rect width="390" height="80" class="fills" rx="0" ry="0" style="fill:#fffbfe;fill-opacity:1"/><rect width="390" height="80" class="fills" rx="0" ry="0" style="opacity:.08;fill:#6750a4;fill-opacity:1"/></g></g><defs><clipPath id="c" class="frame-clip-def frame-clip"><rect width="390" height="80" rx="0" ry="0"/></clipPath></defs><g clip-path="url(#c)"><g class="fills"><rect width="390" height="80" class="frame-background" rx="0" ry="0"/></g><g class="frame-children"><defs><clipPath id="d" class="frame-clip-def frame-clip"><rect width="370" height="48" x="4" y="12" rx="0" ry="0"/></clipPath></defs><g clip-path="url(#d)"><g class="fills"><rect width="370" height="48" x="4" y="12" class="frame-background" rx="0" ry="0"/></g><g class="frame-children"><g class="fills"><rect width="48" height="48" x="172" y="12" class="frame-background" rx="0" ry="0"/></g><g class="frame-children"><g class="fills"><rect width="24" height="24" x="184" y="24" class="frame-background" rx="0" ry="0"/></g><g class="frame-children"><path d="m203.9 44.975-6.575-6.575c-.5.433-1.083.771-1.749 1.012a6.178 6.178 0 0 1-2.126.363c-1.803 0-3.328-.625-4.577-1.875S187 35.142 187 33.375c0-1.767.625-3.275 1.875-4.525 1.25-1.25 2.762-1.875 4.537-1.875s3.284.625 4.525 1.875c1.242 1.25 1.863 2.76 1.863 4.529 0 .714-.117 1.404-.35 2.071a6.323 6.323 0 0 1-1.05 1.875l6.6 6.55-1.1 1.1Zm-10.475-6.7c1.354 0 2.505-.479 3.453-1.438.948-.958 1.422-2.112 1.422-3.462s-.474-2.504-1.422-3.463c-.948-.958-2.099-1.437-3.453-1.437-1.368 0-2.531.479-3.489 1.437-.957.959-1.436 2.113-1.436 3.463s.479 2.504 1.436 3.462c.958.959 2.121 1.438 3.489 1.438Z" class="fills" style="fill:#000"/></g></g><g class="fills"><rect width="48" height="48" x="116" y="12" class="frame-background" rx="0" ry="0"/></g><g class="frame-children"><g class="fills"><rect width="24" height="24" x="128" y="24" class="frame-background" rx="0" ry="0"/></g><g class="frame-children"><path d="M140 37.425a2.368 2.368 0 0 1-1.8-.773c-.483-.515-.725-1.141-.725-1.877V28.5a2.4 2.4 0 0 1 .736-1.771 2.447 2.447 0 0 1 1.788-.729c.701 0 1.297.243 1.788.729.492.486.738 1.077.738 1.771v6.275c0 .736-.242 1.362-.725 1.877a2.368 2.368 0 0 1-1.8.773Zm0-5.7ZM139.25 45v-3.4c-1.767-.183-3.25-.925-4.45-2.225-1.2-1.3-1.8-2.833-1.8-4.6h1.5c0 1.517.536 2.792 1.607 3.825 1.072 1.033 2.367 1.55 3.888 1.55 1.52 0 2.817-.517 3.892-1.55 1.075-1.033 1.613-2.308 1.613-3.825h1.5c0 1.767-.6 3.3-1.8 4.6-1.2 1.3-2.683 2.042-4.45 2.225V45h-1.5Zm.75-9.075a.92.92 0 0 0 .737-.338c.192-.224.288-.495.288-.812V28.5a.952.952 0 0 0-.295-.712 1.003 1.003 0 0 0-.73-.288c-.29 0-.534.096-.73.288a.952.952 0 0 0-.295.712v6.275c0 .317.096.588.287.812a.924.924 0 0 0 .738.338Z" class="fills" style="fill:#000"/></g></g><g class="fills"><rect width="48" height="48" x="60" y="12" class="frame-background" rx="0" ry="0"/></g><g class="frame-children"><g class="fills"><rect width="24" height="24" x="72" y="24" class="frame-background" rx="0" ry="0"/></g><g class="frame-children"><path d="M77.5 44c-.4 0-.75-.15-1.05-.45-.3-.3-.45-.65-.45-1.05v-3.575h1.5V42.5h13v-3.575H92V42.5c0 .4-.15.75-.45 1.05-.3.3-.65.45-1.05.45h-13Zm6.5-3.825-4.825-4.825 1.075-1.075 3 3V28h1.5v9.275l3-3 1.075 1.075L84 40.175Z" class="fills" style="fill:#000"/></g></g><g class="fills"><rect width="48" height="48" x="4" y="12" class="frame-background" rx="0" ry="0"/></g><g class="frame-children"><g class="fills"><rect width="24" height="24" x="16" y="24" class="frame-background" rx="0" ry="0"/></g><g class="frame-children" style="fill:#000"><path d="m28 33.65-1.05-1.05 1.85-1.85h-4.55v-1.5h4.55l-1.85-1.85L28 26.35 31.65 30 28 33.65ZM23.245 46c-.497 0-.92-.177-1.27-.53a1.749 1.749 0 0 1-.525-1.275c0-.497.177-.92.53-1.27.354-.35.779-.525 1.275-.525.497 0 .92.177 1.27.53.35.354.525.779.525 1.275 0 .497-.177.92-.53 1.27-.354.35-.779.525-1.275.525Zm10.1 0c-.497 0-.92-.177-1.27-.53a1.749 1.749 0 0 1-.525-1.275c0-.497.177-.92.53-1.27.354-.35.779-.525 1.275-.525.497 0 .92.177 1.27.53.35.354.525.779.525 1.275 0 .497-.177.92-.53 1.27-.354.35-.779.525-1.275.525ZM17.55 27.5V26h2.9l4.25 9.1h7.193l4.007-7h1.675l-4.05 7.575a2.227 2.227 0 0 1-.714.763 1.724 1.724 0 0 1-.961.287h-7.575l-1.4 2.6H35.15v1.5H23.1c-.628 0-1.105-.25-1.433-.75-.328-.5-.35-1.008-.067-1.525l1.6-2.95-3.7-8.1h-1.95Z" class="fills" style="fill:#6750a4;fill-opacity:1"/></g></g></g></g></g></g></g></g></svg>