<svg width="80" height="720" fill="none" style="-webkit-print-color-adjust:exact"><defs><clipPath id="a" class="frame-clip-def frame-clip"><rect width="80" height="720" rx="0" ry="0"/></clipPath></defs><g clip-path="url(#a)"><g class="fills"><rect width="80" height="720" class="frame-background" rx="0" ry="0"/></g><g class="frame-children"><g class="fills"><rect width="80" height="720" class="frame-background" rx="0" ry="0" style="fill:#fffbfe;fill-opacity:1"/></g><g class="frame-children"><g class="fills"><rect width="56" height="132" x="12" y="532" class="frame-background" rx="0" ry="0"/></g><g class="frame-children"><defs><clipPath id="b" class="frame-clip-def frame-clip"><rect width="56" height="56" x="12" y="608" rx="0" ry="0"/></clipPath></defs><g clip-path="url(#b)"><g class="fills"><rect width="56" height="56" x="12" y="608" class="frame-background" rx="0" ry="0"/></g><g class="frame-children"><g class="text-container"><text x="21.039" y="658" class="fills" dominant-baseline="ideographic" lengthAdjust="spacingAndGlyphs" style="text-transform:none;font-family:Roboto;letter-spacing:.05px;font-style:normal;font-weight:500;white-space:pre;font-size:12px;text-decoration:none solid #49454e;direction:ltr;fill:#49454e;fill-opacity:1" textLength="37.922">Logout</text></g><g style="fill:#000"><path d="M32.5 633c-.4 0-.75-.15-1.05-.45-.3-.3-.45-.65-.45-1.05v-15c0-.4.15-.75.45-1.05.3-.3.65-.45 1.05-.45h7.275v1.5H32.5v15h7.275v1.5H32.5Zm12.15-4.625-1.075-1.075 2.55-2.55h-8.75v-1.5h8.7l-2.55-2.55 1.075-1.075 4.4 4.4-4.35 4.35Z" class="fills" style="fill:#49454e;fill-opacity:1"/></g></g></g><defs><clipPath id="c" class="frame-clip-def frame-clip"><rect width="56" height="56" x="12" y="540" rx="0" ry="0"/></clipPath></defs><g clip-path="url(#c)"><g class="fills"><rect width="56" height="56" x="12" y="540" class="frame-background" rx="0" ry="0"/></g><g class="frame-children"><g class="text-container"><text x="17.602" y="590" class="fills" dominant-baseline="ideographic" lengthAdjust="spacingAndGlyphs" style="text-transform:none;font-family:Roboto;letter-spacing:.05px;font-style:normal;font-weight:500;white-space:pre;font-size:12px;text-decoration:none solid #49454e;direction:ltr;fill:#49454e;fill-opacity:1" textLength="44.797">Settings</text></g><g style="fill:#000"><path d="m37.7 566-.5-3.15a6.716 6.716 0 0 1-1-.475 6.86 6.86 0 0 1-.925-.625l-2.95 1.35L30 559l2.7-1.975a2.977 2.977 0 0 1-.062-.513 10.951 10.951 0 0 1 0-1.025c.008-.191.029-.362.062-.512L30 553l2.325-4.1 2.95 1.35a6.86 6.86 0 0 1 .925-.625c.35-.2.683-.35 1-.45l.5-3.175h4.6l.5 3.15c.317.117.654.271 1.013.462.358.192.662.405.912.638l2.95-1.35L50 553l-2.7 1.925c.033.167.054.346.062.537a11.489 11.489 0 0 1 0 1.063 3.492 3.492 0 0 1-.062.525L50 559l-2.325 4.1-2.95-1.35a8.289 8.289 0 0 1-.912.637c-.342.209-.68.363-1.013.463l-.5 3.15h-4.6Zm2.3-6.75c.9 0 1.667-.317 2.3-.95.633-.633.95-1.4.95-2.3 0-.9-.317-1.667-.95-2.3a3.133 3.133 0 0 0-2.3-.95c-.9 0-1.667.317-2.3.95-.633.633-.95 1.4-.95 2.3 0 .9.317 1.667.95 2.3.633.633 1.4.95 2.3.95Zm0-1.5c-.483 0-.896-.171-1.237-.513A1.684 1.684 0 0 1 38.25 556c0-.483.171-.896.513-1.238A1.687 1.687 0 0 1 40 554.25c.483 0 .896.171 1.237.512.342.342.513.755.513 1.238s-.171.896-.513 1.237a1.684 1.684 0 0 1-1.237.513Zm0-1.75Zm-1.1 8.5h2.2l.35-2.8a5.904 5.904 0 0 0 1.563-.625 6.41 6.41 0 0 0 1.337-1.025L47 561.2l1-1.8-2.35-1.725c.067-.283.121-.563.163-.838.041-.275.062-.554.062-.837 0-.283-.017-.563-.05-.838a5.16 5.16 0 0 0-.175-.837L48 552.6l-1-1.8-2.65 1.15a5.591 5.591 0 0 0-1.3-1.088 4.222 4.222 0 0 0-1.6-.562l-.35-2.8h-2.2l-.35 2.8a5.318 5.318 0 0 0-1.588.6 5.502 5.502 0 0 0-1.312 1.05L33 550.8l-1 1.8 2.35 1.725c-.067.283-.121.562-.162.837a5.55 5.55 0 0 0 0 1.675c.041.275.095.555.162.838L32 559.4l1 1.8 2.65-1.15c.4.4.846.742 1.337 1.025a5.904 5.904 0 0 0 1.563.625l.35 2.8Z" class="fills" style="fill:#49454e;fill-opacity:1"/></g></g></g></g><defs><clipPath id="d" class="frame-clip-def frame-clip"><rect width="56" height="260" x="12" y="216" rx="0" ry="0"/></clipPath></defs><g clip-path="url(#d)"><g class="fills"><rect width="56" height="260" x="12" y="216" class="frame-background" rx="0" ry="0"/></g><g class="frame-children"><defs><clipPath id="e" class="frame-clip-def frame-clip"><rect width="56" height="56" x="12" y="420" rx="0" ry="0"/></clipPath></defs><g clip-path="url(#e)"><g class="fills"><rect width="56" height="56" x="12" y="420" class="frame-background" rx="0" ry="0"/></g><g class="frame-children"><g class="text-container"><text x="17.031" y="470" class="fills" dominant-baseline="ideographic" lengthAdjust="spacingAndGlyphs" style="text-transform:none;font-family:Roboto;letter-spacing:.05px;font-style:normal;font-weight:500;white-space:pre;font-size:12px;text-decoration:none solid #49454e;direction:ltr;fill:#49454e;fill-opacity:1" textLength="45.938">Specials</text></g><g class="fills"><rect width="24" height="24" x="28" y="424" class="frame-background" rx="0" ry="0"/></g><g class="frame-children"><g style="fill:#000"><path d="M37.825 443.875 44.8 435.5h-4.5l.9-7.15-6.325 9.15h3.85l-.9 6.375ZM36 446l1-7h-5l9-13h2l-1 8h6l-10 12h-2Zm3.825-9.875Z" class="fills" style="fill:#49454e;fill-opacity:1"/></g><circle cx="49" cy="427" r="3" class="fills" style="fill:#b3261e;fill-opacity:1"/></g></g></g><defs><clipPath id="f" class="frame-clip-def frame-clip"><rect width="56" height="56" x="12" y="352" rx="0" ry="0"/></clipPath></defs><g clip-path="url(#f)"><g class="fills"><rect width="56" height="56" x="12" y="352" class="frame-background" rx="0" ry="0"/></g><g class="frame-children"><g class="text-container"><text x="13.523" y="402" class="fills" dominant-baseline="ideographic" lengthAdjust="spacingAndGlyphs" style="text-transform:none;font-family:Roboto;letter-spacing:.05px;font-style:normal;font-weight:500;white-space:pre;font-size:12px;text-decoration:none solid #49454e;direction:ltr;fill:#49454e;fill-opacity:1" textLength="52.953">Favorities</text></g><g style="fill:#000"><path d="m40 376.975-1.025-.925c-1.763-1.619-3.22-3.015-4.372-4.189-1.152-1.174-2.07-2.224-2.753-3.149-.683-.925-1.162-1.762-1.437-2.512a6.564 6.564 0 0 1-.413-2.275c0-1.503.504-2.757 1.513-3.764 1.008-1.007 2.254-1.511 3.737-1.511.95 0 1.829.225 2.638.675.808.45 1.512 1.1 2.112 1.95.7-.9 1.442-1.563 2.225-1.988a5.212 5.212 0 0 1 2.525-.637c1.483 0 2.729.504 3.737 1.511 1.009 1.007 1.513 2.261 1.513 3.764 0 .767-.138 1.525-.413 2.275-.274.75-.754 1.587-1.437 2.512s-1.601 1.975-2.753 3.149c-1.152 1.174-2.609 2.57-4.372 4.189l-1.025.925ZM40 375c1.687-1.55 3.076-2.879 4.165-3.987 1.09-1.109 1.956-2.08 2.598-2.913.641-.833 1.091-1.576 1.349-2.228.259-.653.388-1.3.388-1.943 0-1.103-.35-2.008-1.05-2.717-.7-.708-1.598-1.062-2.694-1.062-.859 0-1.654.262-2.385.787-.731.525-1.321 1.263-1.771 2.213h-1.225c-.433-.933-1.015-1.667-1.746-2.2-.731-.533-1.526-.8-2.385-.8-1.096 0-1.994.354-2.694 1.062-.7.709-1.05 1.616-1.05 2.721 0 .645.129 1.296.388 1.954.258.659.708 1.409 1.349 2.25.642.842 1.513 1.813 2.613 2.913 1.1 1.1 2.483 2.417 4.15 3.95Zm0-7.425Z" class="fills" style="fill:#49454e;fill-opacity:1"/></g></g></g><defs><clipPath id="g" class="frame-clip-def frame-clip"><rect width="56" height="32" x="12" y="284" rx="16" ry="16" style="fill:#e8def8;fill-opacity:1"/></clipPath></defs><g clip-path="url(#g)"><g class="fills"><rect width="56" height="32" x="12" y="284" class="frame-background" rx="16" ry="16" style="fill:#e8def8;fill-opacity:1"/></g></g><defs><clipPath id="h" class="frame-clip-def frame-clip"><rect width="56" height="56" x="12" y="284" rx="0" ry="0"/></clipPath></defs><g clip-path="url(#h)"><g class="fills"><rect width="56" height="56" x="12" y="284" class="frame-background" rx="0" ry="0"/></g><g class="frame-children"><g class="text-container"><text x="15.586" y="334.415" class="fills" dominant-baseline="ideographic" lengthAdjust="spacingAndGlyphs" style="text-transform:none;font-family:Roboto;letter-spacing:.05px;font-style:normal;font-weight:500;white-space:pre;font-size:12px;text-decoration:none solid #1c1b1f;direction:ltr;fill:#1c1b1f;fill-opacity:1" textLength="48.82">Products</text></g><g style="opacity:1;fill:#000"><path d="M33.791 308.317a1.6 1.6 0 0 1-1.184-.454 1.596 1.596 0 0 1-.495-1.167 1.597 1.597 0 0 1 .454-1.183c.312-.322.7-.487 1.167-.495.467-.008.861.143 1.183.454.322.311.487.7.496 1.167.008.466-.144.861-.455 1.183-.311.322-.7.487-1.166.495Zm6.349-.111a1.592 1.592 0 0 1-1.183-.454 1.593 1.593 0 0 1-.496-1.167 1.597 1.597 0 0 1 .454-1.183c.312-.322.7-.487 1.167-.495.467-.008.861.143 1.183.454.322.311.487.7.496 1.167.008.466-.144.861-.455 1.183-.311.322-.7.487-1.166.495Zm6.349-.11a1.596 1.596 0 0 1-1.183-.455 1.592 1.592 0 0 1-.496-1.166 1.596 1.596 0 0 1 .455-1.184 1.594 1.594 0 0 1 1.166-.495c.467-.008.861.143 1.183.454.322.312.487.7.496 1.167.008.467-.144.861-.455 1.183a1.6 1.6 0 0 1-1.166.496Zm-12.809-6.128a1.596 1.596 0 0 1-1.183-.454 1.597 1.597 0 0 1-.496-1.167 1.598 1.598 0 0 1 .455-1.183c.311-.322.7-.487 1.166-.495.467-.008.861.143 1.183.454.322.311.488.7.496 1.167.008.466-.144.861-.455 1.183-.311.322-.7.487-1.166.495Zm6.349-.111a1.596 1.596 0 0 1-1.183-.454 1.597 1.597 0 0 1-.496-1.167 1.598 1.598 0 0 1 .455-1.183c.311-.322.7-.487 1.166-.495.467-.008.861.143 1.183.454.322.311.488.7.496 1.167.008.466-.144.861-.455 1.183-.311.322-.7.487-1.166.495Zm6.349-.11a1.596 1.596 0 0 1-1.183-.455 1.596 1.596 0 0 1-.496-1.166 1.6 1.6 0 0 1 .455-1.184c.311-.322.7-.487 1.166-.495.467-.008.861.143 1.183.454.322.312.488.7.496 1.167.008.467-.144.861-.455 1.183a1.6 1.6 0 0 1-1.166.496Zm-12.809-6.128a1.596 1.596 0 0 1-1.183-.454 1.6 1.6 0 0 1-.496-1.167 1.598 1.598 0 0 1 .455-1.183c.311-.322.7-.487 1.166-.495.467-.009.861.143 1.183.454.323.311.488.7.496 1.167.008.466-.143.861-.455 1.183a1.594 1.594 0 0 1-1.166.495Zm6.349-.111a1.596 1.596 0 0 1-1.183-.454 1.6 1.6 0 0 1-.496-1.167 1.598 1.598 0 0 1 .455-1.183c.311-.322.7-.487 1.166-.495.467-.008.861.143 1.183.454.323.311.488.7.496 1.167.008.466-.143.861-.454 1.183-.312.322-.7.487-1.167.495Zm6.349-.111a1.592 1.592 0 0 1-1.183-.454 1.6 1.6 0 0 1-.496-1.166 1.6 1.6 0 0 1 .455-1.184c.311-.322.7-.487 1.166-.495a1.6 1.6 0 0 1 1.184.454c.322.312.487.7.495 1.167.008.467-.143.861-.454 1.183-.312.322-.7.487-1.167.495Z" class="fills" style="fill:#1e192b;fill-opacity:1"/></g></g></g><defs><clipPath id="i" class="frame-clip-def frame-clip"><rect width="56" height="56" x="12" y="216" rx="0" ry="0"/></clipPath></defs><g clip-path="url(#i)"><g class="fills"><rect width="56" height="56" x="12" y="216" class="frame-background" rx="0" ry="0"/></g><g class="frame-children"><g class="text-container"><text x="28.484" y="266" class="fills" dominant-baseline="ideographic" lengthAdjust="spacingAndGlyphs" style="text-transform:none;font-family:Roboto;letter-spacing:.05px;font-style:normal;font-weight:500;white-space:pre;font-size:12px;text-decoration:none solid #49454e;direction:ltr;fill:#49454e;fill-opacity:1" textLength="23.031">Cart</text></g><g class="fills"><rect width="24" height="24" x="28" y="220" class="frame-background" rx="0" ry="0"/></g><g class="frame-children"><g style="fill:#000"><path d="m40 229.65-1.05-1.05 1.85-1.85h-4.55v-1.5h4.55l-1.85-1.85 1.05-1.05 3.65 3.65-3.65 3.65ZM35.245 242c-.497 0-.92-.177-1.27-.53a1.749 1.749 0 0 1-.525-1.275c0-.497.177-.92.53-1.27.354-.35.779-.525 1.275-.525.497 0 .92.177 1.27.53.35.354.525.779.525 1.275 0 .497-.177.92-.53 1.27-.354.35-.779.525-1.275.525Zm10.1 0c-.497 0-.92-.177-1.27-.53a1.749 1.749 0 0 1-.525-1.275c0-.497.177-.92.53-1.27.354-.35.779-.525 1.275-.525.497 0 .92.177 1.27.53.35.354.525.779.525 1.275 0 .497-.177.92-.53 1.27-.354.35-.779.525-1.275.525ZM29.55 223.5V222h2.9l4.25 9.1h7.193l4.007-7h1.675l-4.05 7.575a2.227 2.227 0 0 1-.714.763 1.724 1.724 0 0 1-.961.287h-7.575l-1.4 2.6H47.15v1.5H35.1c-.628 0-1.105-.25-1.433-.75-.328-.5-.35-1.008-.067-1.525l1.6-2.95-3.7-8.1h-1.95Z" class="fills" style="fill:#49454e;fill-opacity:1"/></g><g class="fills"><path d="M49 216a8 8 0 0 1 8 8 8 8 0 0 1-8 8 8 8 0 0 1-8-8 8 8 0 0 1 8-8z" class="frame-background" style="fill:#b3261e;fill-opacity:1"/></g><g class="frame-children"><g class="text-container"><text x="46" y="230" class="fills" dominant-baseline="ideographic" lengthAdjust="spacingAndGlyphs" style="text-transform:none;font-family:Roboto;letter-spacing:normal;font-style:normal;font-weight:400;white-space:pre;font-size:10px;text-decoration:none solid #fff;direction:ltr;fill:#fff;fill-opacity:1" textLength="5.617">1</text></g></g></g></g></g></g></g><g class="fills"><rect width="56" height="132" x="12" y="12" class="frame-background" rx="0" ry="0"/></g><g class="frame-children"><g class="fills"><rect width="56" height="56" x="12" y="88" class="frame-background" rx="0" ry="0"/></g><g class="frame-children"><defs><clipPath id="j" class="frame-clip-def frame-clip"><rect width="56" height="56" x="12" y="88" rx="16" ry="16" style="fill:#ffd8e4;fill-opacity:1"/></clipPath></defs><g clip-path="url(#j)"><g class="fills"><rect width="56" height="56" x="12" y="88" class="frame-background" rx="16" ry="16" style="fill:#ffd8e4;fill-opacity:1"/></g><g class="frame-children" style="fill:#000"><path d="M39.25 123v-6.25H33v-1.5h6.25V109h1.5v6.25H47v1.5h-6.25V123h-1.5Z" class="fills" style="fill:#370b1e;fill-opacity:1"/></g></g></g><defs><clipPath id="k" class="frame-clip-def frame-clip"><rect width="56" height="56" x="12" y="20" rx="0" ry="0"/></clipPath></defs><g clip-path="url(#k)"><g class="fills"><rect width="56" height="56" x="12" y="20" class="frame-background" rx="0" ry="0"/></g><g class="frame-children" style="fill:#000"><path d="M31 54v-1.5h18V54H31Zm0-5.25v-1.5h18v1.5H31Zm0-5.25V42h18v1.5H31Z" class="fills" style="fill:#49454e;fill-opacity:1"/></g></g></g></g></g></g></svg>