<svg width="310" height="48" fill="none" style="-webkit-print-color-adjust:exact"><defs><clipPath id="a" class="frame-clip-def frame-clip"><rect width="310" height="48" rx="0" ry="0"/></clipPath></defs><g clip-path="url(#a)"><g class="fills"><rect width="310" height="48" class="frame-background" rx="0" ry="0"/></g><g class="frame-children"><defs><clipPath id="b" class="frame-clip-def frame-clip"><rect width="302" height="40" x="4" y="4" rx="0" ry="0"/></clipPath></defs><g clip-path="url(#b)"><g class="fills"><rect width="302" height="40" x="4" y="4" class="frame-background" rx="0" ry="0"/></g><g class="frame-children"><g class="fills"><rect width="99" height="40" x="207" y="4" class="frame-background" rx="0" ry="0"/></g><g class="frame-children"><defs><clipPath id="c" class="frame-clip-def frame-clip"><path d="M206 4h80a20 20 0 0 1 20 20 20 20 0 0 1-20 20h-80V4z"/></clipPath></defs><g clip-path="url(#c)"><g class="fills"><path d="M206 4h80a20 20 0 0 1 20 20 20 20 0 0 1-20 20h-80V4z" class="frame-background"/></g><g class="frame-children"><g class="text-container"><text x="244" y="31.852" class="fills" dominant-baseline="ideographic" lengthAdjust="spacingAndGlyphs" style="text-transform:none;font-family:Roboto;letter-spacing:.01px;font-style:normal;font-weight:500;white-space:pre;font-size:14px;text-decoration:none solid #1c1b1f;direction:ltr;fill:#1c1b1f;fill-opacity:1" textLength="50.219">Enabled</text></g><g style="fill:#000"><path d="M224.056 29.156 227 27.394l2.944 1.781-.788-3.337 2.588-2.25-3.413-.3-1.331-3.15-1.331 3.131-3.413.3 2.588 2.25-.788 3.337Zm-1.687 2.344 1.219-5.269-4.088-3.543 5.4-.469 2.1-4.969 2.1 4.969 5.4.469-4.087 3.543 1.218 5.269L227 28.706l-4.631 2.794ZM227 24.844Z" class="fills" style="fill:#1c1b1f;fill-opacity:1"/></g></g></g><g class="strokes"><g class="inner-stroke-shape"><defs><clipPath id="e"><use href="#d"/></clipPath><path id="d" d="M206 4h80a20 20 0 0 1 20 20 20 20 0 0 1-20 20h-80V4z" class="frame-background" style="fill:none;stroke-width:2;stroke:#79747e;stroke-opacity:1"/></defs><use clip-path="url('#e')" href="#d"/></g></g></g><g class="fills"><rect width="100" height="40" x="107" y="4" class="frame-background" rx="0" ry="0"/></g><g class="frame-children"><defs><clipPath id="f" class="frame-clip-def frame-clip"><rect width="100" height="40" x="107" y="4" rx="0" ry="0"/></clipPath></defs><g clip-path="url(#f)"><g class="fills"><rect width="100" height="40" x="107" y="4" class="frame-background" rx="0" ry="0"/></g><g class="frame-children"><g class="text-container"><text x="145" y="31.852" class="fills" dominant-baseline="ideographic" lengthAdjust="spacingAndGlyphs" style="text-transform:none;font-family:Roboto;letter-spacing:.01px;font-style:normal;font-weight:500;white-space:pre;font-size:14px;text-decoration:none solid #1c1b1f;direction:ltr;fill:#1c1b1f;fill-opacity:1" textLength="50.219">Enabled</text></g><g style="fill:#000"><path d="M125.056 29.156 128 27.394l2.944 1.781-.788-3.338 2.588-2.25-3.413-.299-1.331-3.15-1.331 3.131-3.413.3 2.588 2.25-.788 3.337Zm-1.687 2.344 1.219-5.269-4.088-3.543 5.4-.469 2.1-4.969 2.1 4.969 5.4.469-4.087 3.543 1.218 5.269L128 28.706l-4.631 2.794ZM128 24.844Z" class="fills" style="fill:#1c1b1f;fill-opacity:1"/></g></g></g><g class="strokes"><g class="inner-stroke-shape"><defs><clipPath id="h"><use href="#g"/></clipPath><rect id="g" width="100" height="40" x="107" y="4" class="frame-background" rx="0" ry="0" style="fill:none;stroke-width:2;stroke:#79747e;stroke-opacity:1"/></defs><use clip-path="url('#h')" href="#g"/></g></g></g><g class="fills"><rect width="103" height="40" x="4" y="4" class="frame-background" rx="0" ry="0"/></g><g class="frame-children"><defs><clipPath id="i" class="frame-clip-def frame-clip"><path d="M24 4h84v40H24A20 20 0 0 1 4 24 20 20 0 0 1 24 4z" style="fill:#e8def8;fill-opacity:1"/></clipPath></defs><g clip-path="url(#i)"><g class="fills"><path d="M24 4h84v40H24A20 20 0 0 1 4 24 20 20 0 0 1 24 4z" class="frame-background" style="fill:#e8def8;fill-opacity:1"/></g><g class="frame-children"><g class="text-container"><text x="42" y="31.852" class="fills" dominant-baseline="ideographic" lengthAdjust="spacingAndGlyphs" style="text-transform:none;font-family:Roboto;letter-spacing:.01px;font-style:normal;font-weight:500;white-space:pre;font-size:14px;text-decoration:none solid #1e192b;direction:ltr;fill:#1e192b;fill-opacity:1" textLength="54.531">Selected</text></g><g style="fill:#000"><path d="m23.088 28.387-4.2-4.199.806-.807 3.394 3.394 7.199-7.2.807.806-8.006 8.006Z" class="fills" style="fill:#1e192b;fill-opacity:1"/></g></g></g><g class="strokes"><g class="inner-stroke-shape"><defs><clipPath id="k"><use href="#j"/></clipPath><path id="j" d="M24 4h84v40H24A20 20 0 0 1 4 24 20 20 0 0 1 24 4z" class="frame-background" style="fill:none;stroke-width:2;stroke:#79747e;stroke-opacity:1"/></defs><use clip-path="url('#k')" href="#j"/></g></g></g></g></g></g></g></svg>