<svg width="258" height="48" fill="none" style="-webkit-print-color-adjust:exact"><defs><clipPath id="a" class="frame-clip-def frame-clip"><rect width="258" height="48" rx="0" ry="0"/></clipPath></defs><g clip-path="url(#a)"><g class="fills"><rect width="258" height="48" class="frame-background" rx="0" ry="0"/></g><g class="frame-children"><defs><clipPath id="b" class="frame-clip-def frame-clip"><rect width="250" height="40" x="4" y="4" rx="0" ry="0"/></clipPath></defs><g clip-path="url(#b)"><g class="fills"><rect width="250" height="40" x="4" y="4" class="frame-background" rx="0" ry="0"/></g><g class="frame-children"><g class="fills"><rect width="73" height="40" x="181" y="4" class="frame-background" rx="0" ry="0"/></g><g class="frame-children"><defs><clipPath id="c" class="frame-clip-def frame-clip"><path d="M180 4h54a20 20 0 0 1 20 20 20 20 0 0 1-20 20h-54V4z"/></clipPath></defs><g clip-path="url(#c)"><g class="fills"><path d="M180 4h54a20 20 0 0 1 20 20 20 20 0 0 1-20 20h-54V4z" class="frame-background"/></g><g class="frame-children"><g class="text-container"><text x="192" y="31.852" class="fills" dominant-baseline="ideographic" lengthAdjust="spacingAndGlyphs" style="text-transform:none;font-family:Roboto;letter-spacing:.01px;font-style:normal;font-weight:500;white-space:pre;font-size:14px;text-decoration:none solid #1c1b1f;direction:ltr;fill:#1c1b1f;fill-opacity:1" textLength="50.219">Enabled</text></g></g></g><g class="strokes"><g class="inner-stroke-shape"><defs><clipPath id="e"><use href="#d"/></clipPath><path id="d" d="M180 4h54a20 20 0 0 1 20 20 20 20 0 0 1-20 20h-54V4z" class="frame-background" style="fill:none;stroke-width:2;stroke:#79747e;stroke-opacity:1"/></defs><use clip-path="url('#e')" href="#d"/></g></g></g><defs><clipPath id="f" class="frame-clip-def frame-clip"><rect width="104" height="40" x="77" y="4" rx="0" ry="0"/></clipPath></defs><g clip-path="url(#f)"><g class="fills"><rect width="104" height="40" x="77" y="4" class="frame-background" rx="0" ry="0"/></g><g class="frame-children"><g class="fills"><rect width="104" height="40" x="77" y="4" class="frame-background" rx="0" ry="0" style="fill:#e8def8;fill-opacity:1"/></g><g class="frame-children"><g class="text-container"><text x="115" y="31.852" class="fills" dominant-baseline="ideographic" lengthAdjust="spacingAndGlyphs" style="text-transform:none;font-family:Roboto;letter-spacing:.01px;font-style:normal;font-weight:500;white-space:pre;font-size:14px;text-decoration:none solid #1e192b;direction:ltr;fill:#1e192b;fill-opacity:1" textLength="54.531">Selected</text></g><g style="fill:#000"><path d="m96.087 28.388-4.2-4.2.807-.807 3.393 3.394 7.2-7.2.807.806-8.007 8.007Z" class="fills" style="fill:#1e192b;fill-opacity:1"/></g></g><g class="strokes"><g class="inner-stroke-shape"><defs><clipPath id="h"><use href="#g"/></clipPath><rect id="g" width="104" height="40" x="77" y="4" class="frame-background" rx="0" ry="0" style="fill:none;stroke-width:2;stroke:#79747e;stroke-opacity:1"/></defs><use clip-path="url('#h')" href="#g"/></g></g></g></g><g class="fills"><rect width="73" height="40" x="4" y="4" class="frame-background" rx="0" ry="0"/></g><g class="frame-children"><defs><clipPath id="i" class="frame-clip-def frame-clip"><path d="M24 4h54v40H24A20 20 0 0 1 4 24 20 20 0 0 1 24 4z"/></clipPath></defs><g clip-path="url(#i)"><g class="fills"><path d="M24 4h54v40H24A20 20 0 0 1 4 24 20 20 0 0 1 24 4z" class="frame-background"/></g><g class="frame-children"><g class="text-container"><text x="16" y="31.852" class="fills" dominant-baseline="ideographic" lengthAdjust="spacingAndGlyphs" style="text-transform:none;font-family:Roboto;letter-spacing:.01px;font-style:normal;font-weight:500;white-space:pre;font-size:14px;text-decoration:none solid #1c1b1f;direction:ltr;fill:#1c1b1f;fill-opacity:1" textLength="50.219">Enabled</text></g></g></g><g class="strokes"><g class="inner-stroke-shape"><defs><clipPath id="k"><use href="#j"/></clipPath><path id="j" d="M24 4h54v40H24A20 20 0 0 1 4 24 20 20 0 0 1 24 4z" class="frame-background" style="fill:none;stroke-width:2;stroke:#79747e;stroke-opacity:1"/></defs><use clip-path="url('#k')" href="#j"/></g></g></g></g></g></g></g></svg>