<svg xmlns:xlink="http://www.w3.org/1999/xlink" width="310" xmlns="http://www.w3.org/2000/svg" height="48" id="screenshot-feab48a5-f503-8039-8002-3a555151053c" viewBox="0 0 310 48" style="-webkit-print-color-adjust: exact;" fill="none" version="1.1"><style data-loading="true">
/* latin */
@font-face {
  font-family: 'sourcesanspro';
  font-style: normal;
  font-weight: 400;
  font-display: block;
  src: url(https://design.penpot.app/fonts/sourcesanspro-regular.woff) format('woff');
}

/* cyrillic-ext */
@font-face {
  font-family: 'Roboto';
  font-style: normal;
  font-weight: 500;
  font-display: block;
  src: url(https://fonts.gstatic.com/s/roboto/v30/KFOlCnqEu92Fr1MmEU9fCRc4EsA.woff2) format('woff2');
  unicode-range: U+0460-052F, U+1C80-1C88, U+20B4, U+2DE0-2DFF, U+A640-A69F, U+FE2E-FE2F;
}
/* cyrillic */
@font-face {
  font-family: 'Roboto';
  font-style: normal;
  font-weight: 500;
  font-display: block;
  src: url(https://fonts.gstatic.com/s/roboto/v30/KFOlCnqEu92Fr1MmEU9fABc4EsA.woff2) format('woff2');
  unicode-range: U+0301, U+0400-045F, U+0490-0491, U+04B0-04B1, U+2116;
}
/* greek-ext */
@font-face {
  font-family: 'Roboto';
  font-style: normal;
  font-weight: 500;
  font-display: block;
  src: url(https://fonts.gstatic.com/s/roboto/v30/KFOlCnqEu92Fr1MmEU9fCBc4EsA.woff2) format('woff2');
  unicode-range: U+1F00-1FFF;
}
/* greek */
@font-face {
  font-family: 'Roboto';
  font-style: normal;
  font-weight: 500;
  font-display: block;
  src: url(https://fonts.gstatic.com/s/roboto/v30/KFOlCnqEu92Fr1MmEU9fBxc4EsA.woff2) format('woff2');
  unicode-range: U+0370-03FF;
}
/* vietnamese */
@font-face {
  font-family: 'Roboto';
  font-style: normal;
  font-weight: 500;
  font-display: block;
  src: url(https://fonts.gstatic.com/s/roboto/v30/KFOlCnqEu92Fr1MmEU9fCxc4EsA.woff2) format('woff2');
  unicode-range: U+0102-0103, U+0110-0111, U+0128-0129, U+0168-0169, U+01A0-01A1, U+01AF-01B0, U+1EA0-1EF9, U+20AB;
}
/* latin-ext */
@font-face {
  font-family: 'Roboto';
  font-style: normal;
  font-weight: 500;
  font-display: block;
  src: url(https://fonts.gstatic.com/s/roboto/v30/KFOlCnqEu92Fr1MmEU9fChc4EsA.woff2) format('woff2');
  unicode-range: U+0100-02AF, U+1E00-1EFF, U+2020, U+20A0-20AB, U+20AD-20CF, U+2113, U+2C60-2C7F, U+A720-A7FF;
}
/* latin */
@font-face {
  font-family: 'Roboto';
  font-style: normal;
  font-weight: 500;
  font-display: block;
  src: url(https://fonts.gstatic.com/s/roboto/v30/KFOlCnqEu92Fr1MmEU9fBBc4.woff2) format('woff2');
  unicode-range: U+0000-00FF, U+0131, U+0152-0153, U+02BB-02BC, U+02C6, U+02DA, U+02DC, U+2000-206F, U+2074, U+20AC, U+2122, U+2191, U+2193, U+2212, U+2215, U+FEFF, U+FFFD;
}
</style><g id="shape-feab48a5-f503-8039-8002-3a555151053c"><defs><clipPath class="frame-clip-def frame-clip" id="frame-clip-feab48a5-f503-8039-8002-3a555151053c-rumext-id-1"><rect rx="0" ry="0" x="0" y="0" width="310.0000000000018" height="48" transform="matrix(1.000000, 0.000000, 0.000000, 1.000000, 0.000000, 0.000000)"/></clipPath></defs><g clip-path="url(#frame-clip-feab48a5-f503-8039-8002-3a555151053c-rumext-id-1)"><clipPath class="frame-clip-def frame-clip" id="frame-clip-feab48a5-f503-8039-8002-3a555151053c-rumext-id-1"><rect rx="0" ry="0" x="0" y="0" width="310.0000000000018" height="48" transform="matrix(1.000000, 0.000000, 0.000000, 1.000000, 0.000000, 0.000000)"/></clipPath><g class="fills" id="fills-feab48a5-f503-8039-8002-3a555151053c"><rect rx="0" ry="0" x="0" y="0" transform="matrix(1.000000, 0.000000, 0.000000, 1.000000, 0.000000, 0.000000)" width="310.0000000000018" height="48" class="frame-background"/></g><g class="frame-children"><g id="shape-feab48a5-f503-8039-8002-3a555151053d"><defs><clipPath class="frame-clip-def frame-clip" id="frame-clip-feab48a5-f503-8039-8002-3a555151053d-rumext-id-2"><rect rx="0" ry="0" x="4" y="4" width="302.0000000000018" height="39.999999999999886" transform="matrix(1.000000, 0.000000, 0.000000, 1.000000, 0.000000, 0.000000)"/></clipPath></defs><g clip-path="url(#frame-clip-feab48a5-f503-8039-8002-3a555151053d-rumext-id-2)"><clipPath class="frame-clip-def frame-clip" id="frame-clip-feab48a5-f503-8039-8002-3a555151053d-rumext-id-2"><rect rx="0" ry="0" x="4" y="4" width="302.0000000000018" height="39.999999999999886" transform="matrix(1.000000, 0.000000, 0.000000, 1.000000, 0.000000, 0.000000)"/></clipPath><g class="fills" id="fills-feab48a5-f503-8039-8002-3a555151053d"><rect rx="0" ry="0" x="4" y="4" transform="matrix(1.000000, 0.000000, 0.000000, 1.000000, 0.000000, 0.000000)" width="302.0000000000018" height="39.999999999999886" class="frame-background"/></g><g class="frame-children"><g id="shape-feab48a5-f503-8039-8002-3a555151053e"><g><g class="fills" id="fills-feab48a5-f503-8039-8002-3a555151053e"><rect rx="0" ry="0" x="207.00000000000182" y="4.000000000000114" transform="matrix(1.000000, 0.000000, 0.000000, 1.000000, 0.000000, 0.000000)" width="99.00000000000045" height="39.999999999999886" class="frame-background"/></g><g class="frame-children"><g id="shape-feab48a5-f503-8039-8002-3a5551517b95"><defs><clipPath class="frame-clip-def frame-clip" id="frame-clip-feab48a5-f503-8039-8002-3a5551517b95-rumext-id-4"><path d="M206.00000000000182,4.0000000000001705 h80.000000000001 a19.999999999999915,19.999999999999915 0 0 1 19.999999999999915,19.999999999999915 v0 a19.999999999999915,19.999999999999915 0 0 1 -19.999999999999915,19.999999999999915 h-80.000000000001 a0,0 0 0 1 0,0 v-39.99999999999983 a0,0 0 0 1 0,0 z" x="206.00000000000182" y="4.0000000000001705" width="100.00000000000091" height="39.99999999999983" transform="matrix(1.000000, 0.000000, 0.000000, 1.000000, 0.000000, 0.000000)"/></clipPath></defs><g clip-path="url(#frame-clip-feab48a5-f503-8039-8002-3a5551517b95-rumext-id-4)"><clipPath class="frame-clip-def frame-clip" id="frame-clip-feab48a5-f503-8039-8002-3a5551517b95-rumext-id-4"><path d="M206.00000000000182,4.0000000000001705 h80.000000000001 a19.999999999999915,19.999999999999915 0 0 1 19.999999999999915,19.999999999999915 v0 a19.999999999999915,19.999999999999915 0 0 1 -19.999999999999915,19.999999999999915 h-80.000000000001 a0,0 0 0 1 0,0 v-39.99999999999983 a0,0 0 0 1 0,0 z" x="206.00000000000182" y="4.0000000000001705" width="100.00000000000091" height="39.99999999999983" transform="matrix(1.000000, 0.000000, 0.000000, 1.000000, 0.000000, 0.000000)"/></clipPath><g class="fills" id="fills-feab48a5-f503-8039-8002-3a5551517b95"><path d="M206.00000000000182,4.0000000000001705 h80.000000000001 a19.999999999999915,19.999999999999915 0 0 1 19.999999999999915,19.999999999999915 v0 a19.999999999999915,19.999999999999915 0 0 1 -19.999999999999915,19.999999999999915 h-80.000000000001 a0,0 0 0 1 0,0 v-39.99999999999983 a0,0 0 0 1 0,0 z" x="206.00000000000182" y="4.0000000000001705" transform="matrix(1.000000, 0.000000, 0.000000, 1.000000, 0.000000, 0.000000)" width="100.00000000000091" height="39.99999999999983" class="frame-background"/></g><g class="frame-children"><g id="shape-feab48a5-f503-8039-8002-3a5551517b96"><defs><pattern patternUnits="userSpaceOnUse" x="244.00000000000136" y="15.500000000000114" height="16.999999999999886" width="50" data-loading="false" id="fill-0-rumext-id-5"><g><rect width="50" height="16.999999999999886" style="fill: rgb(28, 27, 31); fill-opacity: 1;"/></g></pattern></defs><g transform="matrix(1.000000, 0.000000, 0.000000, 1.000000, 0.000000, 0.000000)" class="text-container" x="244.00000000000136" y="15.500000000000114" width="50" height="16.999999999999886" rx="0" ry="0"><g class="fills" id="fills-feab48a5-f503-8039-8002-3a5551517b96"><text x="244.00000000000136" y="31.851562500000114" dominant-baseline="ideographic" textLength="50.21875" lengthAdjust="spacingAndGlyphs" style="text-transform: none; font-family: Roboto; letter-spacing: 0.01px; font-style: normal; font-weight: 500; white-space: pre; font-size: 14px; text-decoration: none solid rgb(28, 27, 31); direction: ltr; fill: rgb(28, 27, 31); fill-opacity: 1;">Enabled</text></g></g></g><g id="shape-feab48a5-f503-8039-8002-3a5551517b97" height="48" width="48" rx="0" ry="0" style="fill: rgb(0, 0, 0);"><g id="shape-feab48a5-f503-8039-8002-3a5551517b99"><g class="fills" id="fills-feab48a5-f503-8039-8002-3a5551517b99"><path rx="0" ry="0" d="M224.056,29.156L227.000,27.394L229.944,29.175L229.156,25.838L231.744,23.588L228.331,23.288L227.000,20.138L225.669,23.269L222.256,23.569L224.844,25.819L224.056,29.156ZZM222.369,31.500L223.588,26.231L219.500,22.688L224.900,22.219L227.000,17.250L229.100,22.219L234.500,22.688L230.413,26.231L231.631,31.500L227.000,28.706L222.369,31.500ZZM227.000,24.844Z" style="fill: rgb(28, 27, 31); fill-opacity: 1;"/></g></g></g></g></g><g id="strokes-feab48a5-f503-8039-8002-3a5551517b95" class="strokes"><g class="inner-stroke-shape" transform="matrix(1.000000, 0.000000, 0.000000, 1.000000, 0.000000, 0.000000)"><defs><clipPath id="inner-stroke-rumext-id-4-feab48a5-f503-8039-8002-3a5551517b95-0"><use href="#stroke-shape-rumext-id-4-feab48a5-f503-8039-8002-3a5551517b95-0"/></clipPath><path d="M206.00000000000182,4.0000000000001705 h80.000000000001 a19.999999999999915,19.999999999999915 0 0 1 19.999999999999915,19.999999999999915 v0 a19.999999999999915,19.999999999999915 0 0 1 -19.999999999999915,19.999999999999915 h-80.000000000001 a0,0 0 0 1 0,0 v-39.99999999999983 a0,0 0 0 1 0,0 z" x="206.00000000000182" y="4.0000000000001705" width="100.00000000000091" height="39.99999999999983" class="frame-background" id="stroke-shape-rumext-id-4-feab48a5-f503-8039-8002-3a5551517b95-0" style="fill: none; stroke-width: 2; stroke: rgb(121, 116, 126); stroke-opacity: 1;"/></defs><use href="#stroke-shape-rumext-id-4-feab48a5-f503-8039-8002-3a5551517b95-0" clip-path="url('#inner-stroke-rumext-id-4-feab48a5-f503-8039-8002-3a5551517b95-0')"/></g></g></g></g></g></g><g id="shape-feab48a5-f503-8039-8002-3a5551517b9a"><g><g class="fills" id="fills-feab48a5-f503-8039-8002-3a5551517b9a"><rect rx="0" ry="0" x="107.00000000000091" y="4.000000000000114" transform="matrix(1.000000, 0.000000, 0.000000, 1.000000, 0.000000, 0.000000)" width="99.99999999999955" height="39.99999999999977" class="frame-background"/></g><g class="frame-children"><g id="shape-feab48a5-f503-8039-8002-3a5551517ba5"><defs><clipPath class="frame-clip-def frame-clip" id="frame-clip-feab48a5-f503-8039-8002-3a5551517ba5-rumext-id-9"><rect rx="0" ry="0" x="107.00000000000182" y="4.000000000000114" width="99.99999999999955" height="39.99999999999977" transform="matrix(1.000000, 0.000000, 0.000000, 1.000000, 0.000000, 0.000000)"/></clipPath></defs><g clip-path="url(#frame-clip-feab48a5-f503-8039-8002-3a5551517ba5-rumext-id-9)"><clipPath class="frame-clip-def frame-clip" id="frame-clip-feab48a5-f503-8039-8002-3a5551517ba5-rumext-id-9"><rect rx="0" ry="0" x="107.00000000000182" y="4.000000000000114" width="99.99999999999955" height="39.99999999999977" transform="matrix(1.000000, 0.000000, 0.000000, 1.000000, 0.000000, 0.000000)"/></clipPath><g class="fills" id="fills-feab48a5-f503-8039-8002-3a5551517ba5"><rect rx="0" ry="0" x="107.00000000000182" y="4.000000000000114" transform="matrix(1.000000, 0.000000, 0.000000, 1.000000, 0.000000, 0.000000)" width="99.99999999999955" height="39.99999999999977" class="frame-background"/></g><g class="frame-children"><g id="shape-feab48a5-f503-8039-8002-3a5551517ba6"><defs><pattern patternUnits="userSpaceOnUse" x="145.00000000000182" y="15.5" height="17" width="50.00000000000364" data-loading="false" id="fill-0-rumext-id-10"><g><rect width="50.00000000000364" height="17" style="fill: rgb(28, 27, 31); fill-opacity: 1;"/></g></pattern></defs><g transform="matrix(1.000000, 0.000000, 0.000000, 1.000000, 0.000000, 0.000000)" class="text-container" x="145.00000000000182" y="15.5" width="50.00000000000364" height="17" rx="0" ry="0"><g class="fills" id="fills-feab48a5-f503-8039-8002-3a5551517ba6"><text x="145.00000000000182" y="31.8515625" dominant-baseline="ideographic" textLength="50.21875" lengthAdjust="spacingAndGlyphs" style="text-transform: none; font-family: Roboto; letter-spacing: 0.01px; font-style: normal; font-weight: 500; white-space: pre; font-size: 14px; text-decoration: none solid rgb(28, 27, 31); direction: ltr; fill: rgb(28, 27, 31); fill-opacity: 1;">Enabled</text></g></g></g><g id="shape-feab48a5-f503-8039-8002-3a5551517ba7" height="48" width="48" rx="0" ry="0" style="fill: rgb(0, 0, 0);"><g id="shape-feab48a5-f503-8039-8002-3a5551517ba9"><g class="fills" id="fills-feab48a5-f503-8039-8002-3a5551517ba9"><path rx="0" ry="0" d="M125.056,29.156L128.000,27.394L130.944,29.175L130.156,25.837L132.744,23.587L129.331,23.288L128.000,20.138L126.669,23.269L123.256,23.569L125.844,25.819L125.056,29.156ZZM123.369,31.500L124.588,26.231L120.500,22.688L125.900,22.219L128.000,17.250L130.100,22.219L135.500,22.688L131.413,26.231L132.631,31.500L128.000,28.706L123.369,31.500ZZM128.000,24.844Z" style="fill: rgb(28, 27, 31); fill-opacity: 1;"/></g></g></g></g></g><g id="strokes-feab48a5-f503-8039-8002-3a5551517ba5" class="strokes"><g class="inner-stroke-shape" transform="matrix(1.000000, 0.000000, 0.000000, 1.000000, 0.000000, 0.000000)"><defs><clipPath id="inner-stroke-rumext-id-9-feab48a5-f503-8039-8002-3a5551517ba5-0"><use href="#stroke-shape-rumext-id-9-feab48a5-f503-8039-8002-3a5551517ba5-0"/></clipPath><rect width="99.99999999999955" height="39.99999999999977" class="frame-background" x="107.00000000000182" id="stroke-shape-rumext-id-9-feab48a5-f503-8039-8002-3a5551517ba5-0" style="fill: none; stroke-width: 2; stroke: rgb(121, 116, 126); stroke-opacity: 1;" ry="0" rx="0" y="4.000000000000114"/></defs><use href="#stroke-shape-rumext-id-9-feab48a5-f503-8039-8002-3a5551517ba5-0" clip-path="url('#inner-stroke-rumext-id-9-feab48a5-f503-8039-8002-3a5551517ba5-0')"/></g></g></g></g></g></g><g id="shape-feab48a5-f503-8039-8002-3a5551517baa"><g><g class="fills" id="fills-feab48a5-f503-8039-8002-3a5551517baa"><rect rx="0" ry="0" x="4" y="4" transform="matrix(1.000000, 0.000000, 0.000000, 1.000000, 0.000000, 0.000000)" width="103.00000000000136" height="39.999999999999886" class="frame-background"/></g><g class="frame-children"><g id="shape-feab48a5-f503-8039-8002-3a5551517bb0"><defs><clipPath class="frame-clip-def frame-clip" id="frame-clip-feab48a5-f503-8039-8002-3a5551517bb0-rumext-id-14"><path d="M23.999999999999943,4 h84.00000000000142 a0,0 0 0 1 0,0 v39.999999999999886 a0,0 0 0 1 0,0 h-84.00000000000142 a19.999999999999943,19.999999999999943 0 0 1 -19.999999999999943,-19.999999999999943 v0 a19.999999999999943,19.999999999999943 0 0 1 19.999999999999943,-19.999999999999943 z" x="4" y="4" width="104.00000000000136" height="39.999999999999886" transform="matrix(1.000000, 0.000000, 0.000000, 1.000000, 0.000000, 0.000000)" style="fill: rgb(232, 222, 248); fill-opacity: 1;"/></clipPath></defs><g clip-path="url(#frame-clip-feab48a5-f503-8039-8002-3a5551517bb0-rumext-id-14)"><clipPath class="frame-clip-def frame-clip" id="frame-clip-feab48a5-f503-8039-8002-3a5551517bb0-rumext-id-14"><path d="M23.999999999999943,4 h84.00000000000142 a0,0 0 0 1 0,0 v39.999999999999886 a0,0 0 0 1 0,0 h-84.00000000000142 a19.999999999999943,19.999999999999943 0 0 1 -19.999999999999943,-19.999999999999943 v0 a19.999999999999943,19.999999999999943 0 0 1 19.999999999999943,-19.999999999999943 z" x="4" y="4" width="104.00000000000136" height="39.999999999999886" transform="matrix(1.000000, 0.000000, 0.000000, 1.000000, 0.000000, 0.000000)" style="fill: rgb(232, 222, 248); fill-opacity: 1;"/></clipPath><g class="fills" id="fills-feab48a5-f503-8039-8002-3a5551517bb0"><path d="M23.999999999999943,4 h84.00000000000142 a0,0 0 0 1 0,0 v39.999999999999886 a0,0 0 0 1 0,0 h-84.00000000000142 a19.999999999999943,19.999999999999943 0 0 1 -19.999999999999943,-19.999999999999943 v0 a19.999999999999943,19.999999999999943 0 0 1 19.999999999999943,-19.999999999999943 z" x="4" y="4" transform="matrix(1.000000, 0.000000, 0.000000, 1.000000, 0.000000, 0.000000)" width="104.00000000000136" height="39.999999999999886" class="frame-background" style="fill: rgb(232, 222, 248); fill-opacity: 1;"/></g><g class="frame-children"><g id="shape-feab48a5-f503-8039-8002-3a5551517bb1"><defs><pattern patternUnits="userSpaceOnUse" x="42" y="15.499999999999886" height="16.999999999999886" width="54" data-loading="false" id="fill-0-rumext-id-15"><g><rect width="54" height="16.999999999999886" style="fill: rgb(30, 25, 43); fill-opacity: 1;"/></g></pattern></defs><g transform="matrix(1.000000, 0.000000, 0.000000, 1.000000, 0.000000, 0.000000)" class="text-container" x="42" y="15.499999999999886" width="54" height="16.999999999999886" rx="0" ry="0"><g class="fills" id="fills-feab48a5-f503-8039-8002-3a5551517bb1"><text x="42" y="31.851562499999886" dominant-baseline="ideographic" textLength="54.53125" lengthAdjust="spacingAndGlyphs" style="text-transform: none; font-family: Roboto; letter-spacing: 0.01px; font-style: normal; font-weight: 500; white-space: pre; font-size: 14px; text-decoration: none solid rgb(30, 25, 43); direction: ltr; fill: rgb(30, 25, 43); fill-opacity: 1;">Selected</text></g></g></g><g id="shape-feab48a5-f503-8039-8002-3a5551517bb2" height="48" width="48" rx="0" ry="0" style="fill: rgb(0, 0, 0);"><g id="shape-feab48a5-f503-8039-8002-3a5551517bb4"><g class="fills" id="fills-feab48a5-f503-8039-8002-3a5551517bb4"><path rx="0" ry="0" d="M23.088,28.387L18.888,24.188L19.694,23.381L23.088,26.775L30.287,19.575L31.094,20.381L23.088,28.387ZZ" style="fill: rgb(30, 25, 43); fill-opacity: 1;"/></g></g></g></g></g><g id="strokes-feab48a5-f503-8039-8002-3a5551517bb0" class="strokes"><g class="inner-stroke-shape" transform="matrix(1.000000, 0.000000, 0.000000, 1.000000, 0.000000, 0.000000)"><defs><clipPath id="inner-stroke-rumext-id-14-feab48a5-f503-8039-8002-3a5551517bb0-0"><use href="#stroke-shape-rumext-id-14-feab48a5-f503-8039-8002-3a5551517bb0-0"/></clipPath><path d="M23.999999999999943,4 h84.00000000000142 a0,0 0 0 1 0,0 v39.999999999999886 a0,0 0 0 1 0,0 h-84.00000000000142 a19.999999999999943,19.999999999999943 0 0 1 -19.999999999999943,-19.999999999999943 v0 a19.999999999999943,19.999999999999943 0 0 1 19.999999999999943,-19.999999999999943 z" x="4" y="4" width="104.00000000000136" height="39.999999999999886" class="frame-background" id="stroke-shape-rumext-id-14-feab48a5-f503-8039-8002-3a5551517bb0-0" style="fill: none; stroke-width: 2; stroke: rgb(121, 116, 126); stroke-opacity: 1;"/></defs><use href="#stroke-shape-rumext-id-14-feab48a5-f503-8039-8002-3a5551517bb0-0" clip-path="url('#inner-stroke-rumext-id-14-feab48a5-f503-8039-8002-3a5551517bb0-0')"/></g></g></g></g></g></g></g></g></g></g></g></g></svg>