<svg width="390" height="240" fill="none" style="-webkit-print-color-adjust:exact"><defs><clipPath id="a" class="frame-clip-def frame-clip"><rect width="390" height="240" rx="0" ry="0" style="fill:#fff;fill-opacity:1"/></clipPath></defs><g clip-path="url(#a)"><g class="fills"><rect width="390" height="240" class="frame-background" rx="0" ry="0" style="fill:#fff;fill-opacity:1"/></g><g class="frame-children"><g class="text-container"><text x="20" y="224" class="fills" dominant-baseline="ideographic" lengthAdjust="spacingAndGlyphs" style="text-transform:none;font-family:Roboto;letter-spacing:.04px;font-style:normal;font-weight:400;white-space:pre;font-size:12px;text-decoration:none solid #000;direction:ltr;fill:#000;fill-opacity:1" textLength="104.07">Documentation link</text></g><g class="fills"><rect width="52" height="32" x="318" y="80" class="frame-background" rx="0" ry="0"/></g><g class="frame-children"><defs><clipPath id="b" class="frame-clip-def frame-clip"><rect width="52" height="32" x="318" y="80" rx="16" ry="16"/></clipPath></defs><g clip-path="url(#b)"><g class="fills"><rect width="52" height="32" x="318" y="80" class="frame-background" rx="16" ry="16"/></g><g class="frame-children"><g class="fills"><rect width="52" height="32" x="318" y="80" class="frame-background" rx="16" ry="16" style="opacity:.12;fill:#1c1b1f;fill-opacity:1"/></g><g class="fills"><rect width="24" height="24" x="341" y="84" class="frame-background" rx="0" ry="0"/></g><g class="frame-children"><circle cx="353" cy="96" r="12" class="fills" style="fill:#fffbfe;fill-opacity:1"/><g style="opacity:.38"><g style="fill:#000"><path d="m351.3 99.9-3.733-3.733.716-.717 3.017 3.017 6.4-6.4.717.716L351.3 99.9Z" class="fills" style="fill:#1c1b1f;fill-opacity:1"/></g></g></g></g></g></g><g class="fills"><rect width="52" height="32" x="318" y="20" class="frame-background" rx="0" ry="0"/></g><g class="frame-children"><defs><clipPath id="c" class="frame-clip-def frame-clip"><rect width="52" height="32" x="318" y="20" rx="16" ry="16"/></clipPath></defs><g clip-path="url(#c)"><g class="fills"><rect width="52" height="32" x="318" y="20" class="frame-background" rx="16" ry="16"/></g><g class="frame-children"><g class="fills"><rect width="52" height="32" x="318" y="20" class="frame-background" rx="16" ry="16" style="fill:#6750a4;fill-opacity:1"/></g><g class="fills"><rect width="24" height="24" x="341" y="24" class="frame-background" rx="0" ry="0"/></g><g class="frame-children"><circle cx="353" cy="36" r="12" class="fills" style="fill:#fff;fill-opacity:1"/><g style="fill:#000"><path d="m351.3 39.9-3.733-3.733.716-.717 3.017 3.017 6.4-6.4.717.716L351.3 39.9Z" class="fills" style="fill:#21005e;fill-opacity:1"/></g></g></g></g></g><g class="fills"><rect width="52" height="32" x="238" y="80" class="frame-background" rx="0" ry="0"/></g><g class="frame-children"><defs><clipPath id="d" class="frame-clip-def frame-clip"><rect width="52" height="32" x="238" y="80" rx="0" ry="0"/></clipPath></defs><g clip-path="url(#d)"><g class="fills"><rect width="52" height="32" x="238" y="80" class="frame-background" rx="0" ry="0"/></g><g class="frame-children"><g class="fills"><rect width="52" height="32" x="238" y="80" class="frame-background" rx="16" ry="16" style="opacity:.12;fill:#e7e0ec;fill-opacity:1"/></g><g class="strokes"><g class="inner-stroke-shape"><defs><clipPath id="f"><use href="#e"/></clipPath><rect id="e" width="52" height="32" x="238" y="80" class="frame-background" rx="16" ry="16" style="opacity:.12;fill:none;stroke-width:4;stroke:#1c1b1f;stroke-opacity:1"/></defs><use clip-path="url('#f')" href="#e"/></g></g><g class="fills"><rect width="24" height="24" x="243" y="84" class="frame-background" rx="0" ry="0"/></g><g class="frame-children"><circle cx="255" cy="96" r="12" class="fills" style="opacity:.38;fill:#1c1b1f;fill-opacity:1"/><g style="opacity:.38"><g style="fill:#000"><path d="m251.15 100.55-.7-.7L254.3 96l-3.85-3.85.7-.7L255 95.3l3.85-3.85.7.7L255.7 96l3.85 3.85-.7.7L255 96.7l-3.85 3.85Z" class="fills" style="fill:#e7e0ec;fill-opacity:1"/></g></g></g></g></g></g><g class="fills"><rect width="52" height="32" x="238" y="20" class="frame-background" rx="0" ry="0"/></g><g class="frame-children"><defs><clipPath id="g" class="frame-clip-def frame-clip"><rect width="52" height="32" x="238" y="20" rx="0" ry="0"/></clipPath></defs><g clip-path="url(#g)"><g class="fills"><rect width="52" height="32" x="238" y="20" class="frame-background" rx="0" ry="0"/></g><g class="frame-children"><g class="fills"><rect width="52" height="32" x="238" y="20" class="frame-background" rx="16" ry="16" style="fill:#e7e0ec;fill-opacity:1"/></g><g class="strokes"><g class="inner-stroke-shape"><defs><clipPath id="i"><use href="#h"/></clipPath><rect id="h" width="52" height="32" x="238" y="20" class="frame-background" rx="16" ry="16" style="fill:none;stroke-width:4;stroke:#79747e;stroke-opacity:1"/></defs><use clip-path="url('#i')" href="#h"/></g></g><g class="fills"><rect width="24" height="24" x="243" y="24" class="frame-background" rx="0" ry="0"/></g><g class="frame-children"><circle cx="255" cy="36" r="12" class="fills" style="fill:#79747e;fill-opacity:1"/><g style="fill:#000"><path d="m251.15 40.55-.7-.7L254.3 36l-3.85-3.85.7-.7L255 35.3l3.85-3.85.7.7L255.7 36l3.85 3.85-.7.7L255 36.7l-3.85 3.85Z" class="fills" style="fill:#e7e0ec;fill-opacity:1"/></g></g></g></g></g><g class="fills"><rect width="52" height="32" x="100" y="80" class="frame-background" rx="0" ry="0"/></g><g class="frame-children"><g class="fills"><rect width="52" height="32" x="100" y="80" class="frame-background" rx="0" ry="0"/></g><g class="frame-children"><g class="fills"><rect width="52" height="32" x="100" y="80" class="frame-background" rx="16" ry="16" style="opacity:.12;fill:#1c1b1f;fill-opacity:1"/></g><circle cx="135" cy="96" r="12" class="fills" style="fill:#fffbfe;fill-opacity:1"/></g></g><g class="fills"><rect width="52" height="32" x="100" y="20" class="frame-background" rx="0" ry="0"/></g><g class="frame-children"><defs><clipPath id="j" class="frame-clip-def frame-clip"><rect width="52" height="32" x="100" y="20" rx="0" ry="0"/></clipPath></defs><g clip-path="url(#j)"><g class="fills"><rect width="52" height="32" x="100" y="20" class="frame-background" rx="0" ry="0"/></g><g class="frame-children"><g class="fills"><rect width="52" height="32" x="100" y="20" class="frame-background" rx="16" ry="16" style="fill:#6750a4;fill-opacity:1"/></g><circle cx="135" cy="36" r="12" class="fills" style="fill:#fff;fill-opacity:1"/></g></g></g><g class="fills"><rect width="52" height="32" x="20" y="80" class="frame-background" rx="0" ry="0"/></g><g class="frame-children"><g class="fills"><rect width="52" height="32" x="20" y="80" class="frame-background" rx="16" ry="16" style="opacity:1"/></g><g class="frame-children"><g class="fills"><rect width="52" height="32" x="20" y="80" class="frame-background" rx="16" ry="16" style="opacity:.12;fill:#e7e0ec;fill-opacity:1"/></g><g class="strokes"><g class="inner-stroke-shape"><defs><clipPath id="l"><use href="#k"/></clipPath><rect id="k" width="52" height="32" x="20" y="80" class="frame-background" rx="16" ry="16" style="opacity:.12;fill:none;stroke-width:4;stroke:#1c1b1f;stroke-opacity:1"/></defs><use clip-path="url('#l')" href="#k"/></g></g><circle cx="35" cy="96" r="8" class="fills" style="opacity:.38;fill:#1c1b1f;fill-opacity:1"/></g></g><g class="fills"><rect width="52" height="32" x="20" y="20" class="frame-background" rx="0" ry="0"/></g><g class="frame-children"><defs><clipPath id="m" class="frame-clip-def frame-clip"><rect width="52" height="32" x="20" y="20" rx="0" ry="0"/></clipPath></defs><g clip-path="url(#m)"><g class="fills"><rect width="52" height="32" x="20" y="20" class="frame-background" rx="0" ry="0"/></g><g class="frame-children"><g class="fills"><rect width="52" height="32" x="20" y="20" class="frame-background" rx="16" ry="16" style="fill:#e7e0ec;fill-opacity:1"/></g><g class="strokes"><g class="inner-stroke-shape"><defs><clipPath id="o"><use href="#n"/></clipPath><rect id="n" width="52" height="32" x="20" y="20" class="frame-background" rx="16" ry="16" style="fill:none;stroke-width:4;stroke:#79747e;stroke-opacity:1"/></defs><use clip-path="url('#o')" href="#n"/></g></g><circle cx="35" cy="36" r="8" class="fills" style="fill:#79747e;fill-opacity:1"/></g></g></g></g></g></svg>