<svg xmlns="http://www.w3.org/2000/svg" fill="none" viewBox="0,0,360,56"><defs><clipPath id="c"><path d="m0,0h360v56H0z"/></clipPath><clipPath id="d"><path d="m0,0h360v56H0z"/></clipPath><clipPath id="e"><path d="m310,8h30v40h-30z"/></clipPath><clipPath id="f"><path d="m316,19h18v18h-18z"/></clipPath><clipPath id="g"><path d="m316,19h18v18h-18z"/></clipPath><clipPath id="h"><path d="m12,3h50v50H12z" opacity=".38" fill="#e7e0ec"/></clipPath><clipPath id="i"><path d="m16,29.67h42v22H16z"/></clipPath><clipPath id="j"><path d="m16,7h42v16.67H16z"/></clipPath><clipPath id="k"><use href="#a"/></clipPath><path id="a" d="m12,3h50v50H12z" opacity=".38" fill="none" stroke-width="4" stroke="#c4c7c5"/><clipPath id="l"><path d="m16,55v1h320v-1z" opacity=".4"/></clipPath><clipPath id="m"><use href="#b"/></clipPath><path id="b" d="m16,55v1h320v-1z" opacity=".4" fill="none" stroke-width="2" stroke="#e7e0ec"/></defs><g clip-path="url(#c)"><clipPath/><g><g><path d="m0,0v56h360V0z" fill="#fffbfe"/></g><g clip-path="url(#d)"><clipPath/><g><g clip-path="url(#e)"><clipPath/><g><g clip-path="url(#f)"><clipPath/><g><g><rect rx="2" x="316" y="19" width="18" height="18" opacity=".38" fill="#1c1b1f"/></g><g clip-path="url(#g)"><clipPath/><g><g><path d="m323.09,32.39-4.2-4.2.81-.81,3.39,3.39,7.2-7.2.81.81-8.01,8.01z" fill="#fffbfe"/></g></g></g></g></g></g></g><g opacity=".38"><g><text x="78" y="36.91" textLength="63" lengthAdjust="spacingAndGlyphs" style="dominant-baseline:ideographic;text-transform:none;font-family:Roboto;letter-spacing:.04px;font-weight:400;white-space:pre;font-size:16px;fill:#1c1b1f">Headline</text></g></g><g clip-path="url(#h)"><clipPath><path d="m12,3h50v50H12z" opacity=".38" fill="#e7e0ec"/></clipPath><g><path d="m12,3h50v50H12z" opacity=".38" fill="#e7e0ec"/></g><g opacity=".38"><g clip-path="url(#i)"><clipPath/><g><g><circle cx="51" cy="39.67" r="10" opacity=".38" fill="#49454e"/></g><g opacity=".38"><g><path d="m17.13,48.92c-.37,0-.69-.14-.96-.41s-.41-.6-.41-.96V33.8c0-.37.14-.69.41-.96s.6-.41.96-.41h13.75c.37,0,.69.14.96.41.28.28.41.6.41.96v13.75c0,.37-.14.69-.41.96-.27.28-.6.41-.96.41H17.13zm0-1.38h13.75V33.79H17.13v13.75zm1.28-2.22h11.21l-3.37-4.49-3.03,3.92-2.13-2.91-2.68,3.48zm-1.28,2.22V33.79,47.54z" fill="#49454e"/></g></g></g></g><g clip-path="url(#j)"><clipPath/><g><g><path d="m47,23.67H27L37,7,47,23.67z" opacity=".38" fill="#49454e"/></g></g></g></g></g><g><g><use href="#a" clip-path="url(#k)"/></g></g></g></g><g><clipPath clip-path="url(#l)"/><g><g><use href="#b" clip-path="url(#m)"/></g></g></g></g></g></svg>
