<svg xmlns="http://www.w3.org/2000/svg" fill="none" viewBox="0,0,360,72"><defs><clipPath id="b"><path d="m0,0v72h360V0z"/></clipPath><clipPath id="c"><path d="m0,0v72h360V0z"/></clipPath><clipPath id="d"><path d="m318,12h18v48h-18z"/></clipPath><clipPath id="e"><path d="m318,27h18v18h-18z"/></clipPath><clipPath id="f"><path d="m318,27h18v18h-18z"/></clipPath><clipPath id="g"><path d="m0,4v64h114V4z" opacity=".5" fill="#c4c7c5"/></clipPath><clipPath id="h"><path d="m4,36h106v26H4z"/></clipPath><clipPath id="i"><path d="m4,8h106v20H4z"/></clipPath><clipPath id="j"><use href="#a"/></clipPath><path id="a" d="m0,4v64h114V4z" opacity=".5" fill="none" stroke-width="4" stroke="#49454e"/></defs><g clip-path="url(#b)"><clipPath/><g><g><path d="m0,0v72h360V0z" fill="#fffbfe"/></g><g clip-path="url(#c)"><clipPath/><g><g clip-path="url(#d)"><clipPath/><g><g clip-path="url(#e)"><clipPath/><g><g><rect rx="2" x="318" y="27" width="18" height="18" fill="#6750a4"/></g><g clip-path="url(#f)"><clipPath/><g><g><path d="m325.09,40.39-4.2-4.2.81-.81,3.39,3.39,7.2-7.2.81.81-8.01,8.01z" fill="#fff"/></g></g></g></g></g></g></g><g><g><g><text x="130" y="55.83" textLength="131.77" lengthAdjust="spacingAndGlyphs" style="dominant-baseline:ideographic;text-transform:none;font-family:Roboto;letter-spacing:.02px;font-weight:400;white-space:pre;font-size:14px;fill:#49454e">Short supporting text</text></g></g><g><g><text x="130" y="34.57" textLength="63" lengthAdjust="spacingAndGlyphs" style="dominant-baseline:ideographic;text-transform:none;font-family:Roboto;letter-spacing:.04px;font-weight:400;white-space:pre;font-size:16px;fill:#1c1b1f">Headline</text></g></g></g><g clip-path="url(#g)"><clipPath><path d="m0,4v64h114V4z" opacity=".5" fill="#c4c7c5"/></clipPath><g><path d="m0,4v64h114V4z" opacity=".5" fill="#c4c7c5"/></g><g opacity=".5"><g clip-path="url(#h)"><clipPath/><g><g><circle cx="74" cy="48" r="12" fill="#49454e"/></g><g><path d="m31.79,57.67c-.43,0-.81-.16-1.14-.49s-.49-.7-.49-1.14V41.96c0-.43.16-.81.49-1.14s.7-.49,1.14-.49h14.08c.43,0,.81.16,1.14.49.32.33.49.7.49,1.14v5.82l4.33-4.33v11.1l-4.33-4.33v5.82c0,.43-.16.81-.49,1.14s-.71.49-1.14.49H31.79zm0-1.63h14.08V41.96H31.79v14.08zm0,0V41.96,56.04z" fill="#49454e"/></g></g></g><g clip-path="url(#i)"><clipPath/><g><g><path d="m69,28H45L57,8,69,28z" fill="#49454e"/></g></g></g></g></g><g><g><use href="#a" clip-path="url(#j)"/></g></g></g></g></g></g></svg>
