<svg xmlns="http://www.w3.org/2000/svg" fill="none" viewBox="0,0,360,72"><defs><clipPath id="b"><path d="m0,0h360v72H0z"/></clipPath><clipPath id="c"><path d="m0,0v72h360V0z"/></clipPath><clipPath id="d"><path d="m310,8h30v56h-30z"/></clipPath><clipPath id="e"><path d="m1443,678h18v18h-18z"/></clipPath><clipPath id="f"><use href="#a"/></clipPath><rect rx="2" x="1443" y="678" width="18" height="18" id="a" opacity=".38" fill="none" stroke-width="4" stroke="#1c1b1f"/><clipPath id="g"><path d="m1443,678h18v18h-18z" opacity=".38"/></clipPath><clipPath id="h"><path d="m316,27h18v18h-18z"/></clipPath><clipPath id="i"><path d="m316,27h18v18h-18z"/></clipPath></defs><g clip-path="url(#b)"><clipPath/><g><g><path d="m0,0v72h360V0z" fill="#fffbfe"/></g><g clip-path="url(#c)"><clipPath/><g><g clip-path="url(#d)"><clipPath/><g><g clip-path="url(#e)"><clipPath/><g><g><g><use href="#a" clip-path="url(#f)"/></g></g><g clip-path="url(#g)"><clipPath/><g opacity=".38"><g><path d="m1516.62,1023.15-4.2-4.2.81-.81,3.39,3.39,7.2-7.2.81.81-8.01,8.01z" fill="#fff"/></g></g></g></g></g><g clip-path="url(#h)"><clipPath/><g><g><rect rx="2" x="316" y="27" width="18" height="18" opacity=".38" fill="#1c1b1f"/></g><g clip-path="url(#i)"><clipPath/><g><g><path d="m323.09,40.39-4.2-4.2.81-.81,3.39,3.39,7.2-7.2.81.81-8.01,8.01z" fill="#fffbfe"/></g></g></g></g></g></g></g><g><g opacity=".38"><g><text x="46" y="54" textLength="131.77" lengthAdjust="spacingAndGlyphs" style="dominant-baseline:ideographic;text-transform:none;font-family:Roboto;letter-spacing:.02px;font-weight:400;white-space:pre;font-size:14px;fill:#1c1b1f">Short supporting text</text></g></g><g opacity=".38"><g><text x="46" y="36.41" textLength="63" lengthAdjust="spacingAndGlyphs" style="dominant-baseline:ideographic;text-transform:none;font-family:Roboto;letter-spacing:.04px;font-weight:400;white-space:pre;font-size:16px;fill:#1c1b1f">Headline</text></g></g></g><g opacity=".38"><g><path d="m21,35.98c-.83,0-1.5-.26-2.03-.79s-.79-1.2-.79-2.03.26-1.5.79-2.03,1.2-.79,2.03-.79,1.5.26,2.03.79.79,1.2.79,2.03-.26,1.5-.79,2.03-1.2.79-2.03.79zM15,42v-1.76c0-.48.12-.88.36-1.22s.54-.59.92-.77c.84-.38,1.64-.66,2.41-.84.77-.19,1.54-.28,2.32-.28s1.54.1,2.31.29c.76.19,1.56.47,2.4.83.39.18.7.43.94.77s.36.74.36,1.22V42zm1.13-1.13h9.75v-.64c0-.2-.06-.39-.18-.57s-.27-.32-.44-.4c-.8-.39-1.53-.65-2.19-.8-.66-.14-1.35-.22-2.06-.22s-1.41.07-2.08.22c-.68.14-1.41.41-2.19.8-.18.09-.32.22-.43.4s-.17.37-.17.57zM21,34.86c.49,0,.89-.16,1.21-.48s.48-.72.48-1.21-.16-.89-.48-1.21-.72-.48-1.21-.48-.89.16-1.21.48-.48.72-.48,1.21.16.89.48,1.21.72.48,1.21.48z" fill="#1c1b1f"/></g></g></g></g></g></g></svg>
