<svg xmlns="http://www.w3.org/2000/svg" fill="none" viewBox="0,0,360,88"><style>.a{fill:#1c1b1f;font-family:Roboto;font-size:14px;font-weight:400;letter-spacing:.02px;text-transform:none;white-space:pre}</style><defs><clipPath id="b"><path d="m0,0v88h360V0z"/></clipPath><clipPath id="c"><path d="m0,0v88h360V0z"/></clipPath><clipPath id="d"><path d="m318,12h18v64h-18z"/></clipPath><clipPath id="e"><path d="m318,12h18v18h-18z"/></clipPath><clipPath id="f"><path d="m318,12h18v18h-18z"/></clipPath><clipPath id="g"><path d="m0,12v64h114V12z" opacity=".38" fill="#e7e0ec"/></clipPath><clipPath id="h"><path d="m4,44v26h106V44z"/></clipPath><clipPath id="i"><path d="m4,16v20h106V16z"/></clipPath><clipPath id="j"><use href="#a"/></clipPath><path id="a" d="m0,12v64h114V12z" opacity=".38" fill="none" stroke-width="4" stroke="#c4c7c5"/></defs><g clip-path="url(#b)"><clipPath/><g><g><path d="m0,0v88h360V0z" fill="#fffbfe"/></g><g clip-path="url(#c)"><clipPath/><g><g clip-path="url(#d)"><clipPath/><g><g clip-path="url(#e)"><clipPath/><g><g><rect rx="2" x="318" y="12" width="18" height="18" opacity=".38" fill="#1c1b1f"/></g><g clip-path="url(#f)"><clipPath/><g><g><path d="m325.09,25.39-4.2-4.2.81-.81,3.39,3.39,7.2-7.2.81.81-8.01,8.01z" fill="#fffbfe"/></g></g></g></g></g></g></g><g><g opacity=".38"><g><text x="130" y="54.5" dominant-baseline="ideographic" textLength="153" lengthAdjust="spacingAndGlyphs" class="a">Supporting text that fills </text></g><g><text x="130" y="71.8" dominant-baseline="ideographic" textLength="86.63" lengthAdjust="spacingAndGlyphs" class="a">multiple lines.</text></g></g><g opacity=".38"><g><text x="130" y="33.91" textLength="63" lengthAdjust="spacingAndGlyphs" style="dominant-baseline:ideographic;text-transform:none;font-family:Roboto;letter-spacing:.04px;font-weight:400;white-space:pre;font-size:16px;fill:#1c1b1f">Headline</text></g></g></g><g clip-path="url(#g)"><clipPath><path d="m0,12v64h114V12z" opacity=".38" fill="#e7e0ec"/></clipPath><g><path d="m0,12v64h114V12z" opacity=".38" fill="#e7e0ec"/></g><g opacity=".38"><g clip-path="url(#h)"><clipPath/><g><g><ellipse rx="12" ry="12" cx="74" cy="56" opacity=".38" fill="#49454e"/></g><g opacity=".38"><g><path d="m31.79,65.67c-.43,0-.81-.16-1.14-.49s-.49-.7-.49-1.14V49.96c0-.43.16-.81.49-1.14s.7-.49,1.14-.49h14.08c.43,0,.81.16,1.14.49.32.33.49.7.49,1.14v5.82l4.33-4.33v11.1l-4.33-4.33v5.82c0,.43-.16.81-.49,1.14s-.71.49-1.14.49H31.79zm0-1.63h14.08V49.96H31.79v14.08zm0,0V49.96,64.04z" fill="#49454e"/></g></g></g></g><g clip-path="url(#i)"><clipPath/><g><g><path d="m69,36H45l12-20,12,20z" opacity=".38" fill="#49454e"/></g></g></g></g></g><g><g><use href="#a" clip-path="url(#j)"/></g></g></g></g></g></g></svg>
