<svg xmlns="http://www.w3.org/2000/svg" fill="none" viewBox="0,0,360,88"><style>.a{fill:#49454e;font-family:Roboto;font-size:14px;font-weight:400;letter-spacing:.02px;text-transform:none;white-space:pre}</style><defs><clipPath id="c"><path d="m0,0v88h360V0z"/></clipPath><clipPath id="d"><path d="m0,0v88h360V0z"/></clipPath><clipPath id="e"><path d="m12,8h56v56H12z" opacity=".5" fill="#c4c7c5"/></clipPath><clipPath id="f"><path d="m16,34.67h48v22H16z"/></clipPath><clipPath id="g"><path d="m16,12h48v16.67H16z"/></clipPath><clipPath id="h"><use href="#a"/></clipPath><path id="a" d="m12,8h56v56H12z" opacity=".5" fill="none" stroke-width="4" stroke="#49454e"/><clipPath id="i"><path d="m16,87v1h320v-1z" opacity=".4"/></clipPath><clipPath id="j"><use href="#b"/></clipPath><path id="b" d="m16,87v1h320v-1z" opacity=".4" fill="none" stroke-width="2" stroke="#e7e0ec"/></defs><g clip-path="url(#c)"><clipPath/><g><g><path d="m0,0h360v88H0z" fill="#fffbfe"/></g><g clip-path="url(#d)"><clipPath/><g><g><g><g><text x="84" y="53" dominant-baseline="ideographic" textLength="256.39" lengthAdjust="spacingAndGlyphs" class="a">Supporting text that is long enough to fill </text></g><g><text x="84" y="70.3" dominant-baseline="ideographic" textLength="105.73" lengthAdjust="spacingAndGlyphs" class="a">up multiple lines.</text></g></g><g><g><text x="84" y="35.41" textLength="63" lengthAdjust="spacingAndGlyphs" style="dominant-baseline:ideographic;text-transform:none;font-family:Roboto;letter-spacing:.04px;font-weight:400;white-space:pre;font-size:16px;fill:#1c1b1f">Headline</text></g></g></g><g clip-path="url(#e)"><clipPath><path d="m12,8h56v56H12z" opacity=".5" fill="#c4c7c5"/></clipPath><g><path d="m12,8h56v56H12z" opacity=".5" fill="#c4c7c5"/></g><g opacity=".5"><g clip-path="url(#f)"><clipPath/><g><g><circle cx="54" cy="44.67" r="10" fill="#49454e"/></g><g><path d="m20.13,53.92c-.37,0-.69-.14-.96-.41s-.41-.6-.41-.96V38.8c0-.37.14-.69.41-.96s.6-.41.96-.41h13.75c.37,0,.69.14.96.41.28.28.41.6.41.96v13.75c0,.37-.14.69-.41.96-.27.28-.6.41-.96.41H20.13zm0-1.38h13.75V38.79H20.13v13.75zm1.28-2.22h11.21l-3.37-4.49-3.03,3.92-2.13-2.91-2.68,3.48zm-1.28,2.22V38.79,52.54z" fill="#49454e"/></g></g></g><g clip-path="url(#g)"><clipPath/><g><g><path d="m50,28.67H30L40,12,50,28.67z" fill="#49454e"/></g></g></g></g></g><g><g><use href="#a" clip-path="url(#h)"/></g></g></g></g><g><clipPath clip-path="url(#i)"/><g><g><use href="#b" clip-path="url(#j)"/></g></g></g></g></g></svg>
