<svg xmlns="http://www.w3.org/2000/svg" fill="none" viewBox="0,0,360,88"><style>.a{fill:#49454e;font-family:Roboto;font-size:14px;font-weight:400;letter-spacing:.02px;text-transform:none;white-space:pre}</style><defs><clipPath id="a"><path d="m0,0h360v88H0z"/></clipPath><clipPath id="b"><path d="m0,0v88h360V0z"/></clipPath><clipPath id="c"><path d="m318,18h18v62h-18z"/></clipPath><clipPath id="d"><path d="m318,18h18v18h-18z"/></clipPath><clipPath id="e"><path d="m318,18h18v18h-18z"/></clipPath><clipPath id="f"><rect rx="20" x="16" y="8" width="40" height="40" fill="#eaddff"/></clipPath></defs><g clip-path="url(#a)"><clipPath/><g><g><path d="m0,0v88h360V0z" fill="#fffbfe"/></g><g clip-path="url(#b)"><clipPath/><g><g clip-path="url(#c)"><clipPath/><g><g clip-path="url(#d)"><clipPath/><g><g><rect rx="2" x="318" y="18" width="18" height="18" fill="#6750a4"/></g><g clip-path="url(#e)"><clipPath/><g><g><path d="m325.09,31.39-4.2-4.2.81-.81,3.39,3.39,7.2-7.2.81.81-8.01,8.01z" fill="#fff"/></g></g></g></g></g></g></g><g><g><g><text x="72" y="55.83" dominant-baseline="ideographic" textLength="221.83" lengthAdjust="spacingAndGlyphs" class="a">Supporting text that is long enough </text></g><g><text x="72" y="73.13" dominant-baseline="ideographic" textLength="140.3" lengthAdjust="spacingAndGlyphs" class="a">to fill up multiple lines.</text></g></g><g><g><text x="72" y="32.57" textLength="63" lengthAdjust="spacingAndGlyphs" style="dominant-baseline:ideographic;text-transform:none;font-family:Roboto;letter-spacing:.04px;font-weight:400;white-space:pre;font-size:16px;fill:#1c1b1f">Headline</text></g></g></g><g clip-path="url(#f)"><clipPath><rect rx="20" x="16" y="8" width="40" height="40" fill="#eaddff"/></clipPath><g><rect rx="20" x="16" y="8" width="40" height="40" fill="#eaddff"/></g><g><g><g><text x="30.5" y="37" textLength="10.66" lengthAdjust="spacingAndGlyphs" style="dominant-baseline:ideographic;text-transform:none;font-family:Roboto;letter-spacing:.01px;font-weight:500;white-space:pre;font-size:16px;fill:#21005e">A</text></g></g></g></g></g></g></g></g></svg>
