<svg xmlns="http://www.w3.org/2000/svg" fill="none" viewBox="0,0,360,88"><style>.a{fill:#49454e;font-family:Roboto;font-size:14px;font-weight:400;letter-spacing:.02px;text-transform:none;white-space:pre}</style><defs><clipPath id="a"><path d="m0,0v88h360V0z"/></clipPath><clipPath id="b"><path d="m0,0h360v88H0z"/></clipPath></defs><g clip-path="url(#a)"><clipPath/><g><g><path d="m0,0v88h360V0z" fill="#fffbfe"/></g><g clip-path="url(#b)"><clipPath/><g><g><g><g><text x="46" y="53" dominant-baseline="ideographic" textLength="275.49" lengthAdjust="spacingAndGlyphs" class="a">Supporting text that is long enough to fill up </text></g><g><text x="46" y="70.3" dominant-baseline="ideographic" textLength="86.63" lengthAdjust="spacingAndGlyphs" class="a">multiple lines.</text></g></g><g><g><text x="46" y="35.41" textLength="63" lengthAdjust="spacingAndGlyphs" style="dominant-baseline:ideographic;text-transform:none;font-family:Roboto;letter-spacing:.04px;font-weight:400;white-space:pre;font-size:16px;fill:#1c1b1f">Headline</text></g></g></g><g><path d="m21,24.98c-.83,0-1.5-.26-2.03-.79s-.79-1.2-.79-2.03.26-1.5.79-2.03,1.2-.79,2.03-.79,1.5.26,2.03.79.79,1.2.79,2.03-.26,1.5-.79,2.03-1.2.79-2.03.79zM15,31v-1.76c0-.48.12-.88.36-1.22s.54-.59.92-.77c.84-.38,1.64-.66,2.41-.84.77-.19,1.54-.28,2.32-.28s1.54.1,2.31.29c.76.19,1.56.47,2.4.83.39.18.7.43.94.77s.36.74.36,1.22V31zm1.13-1.13h9.75v-.64c0-.2-.06-.39-.18-.57s-.27-.32-.44-.4c-.8-.39-1.53-.65-2.19-.8-.66-.14-1.35-.22-2.06-.22s-1.41.07-2.08.22c-.68.14-1.41.41-2.19.8-.18.09-.32.22-.43.4s-.17.37-.17.57zM21,23.86c.49,0,.89-.16,1.21-.48s.48-.72.48-1.21-.16-.89-.48-1.21-.72-.48-1.21-.48-.89.16-1.21.48-.48.72-.48,1.21.16.89.48,1.21.72.48,1.21.48z" fill="#49454e"/></g></g></g></g></g></svg>
