<svg xmlns="http://www.w3.org/2000/svg" fill="none" viewBox="0,0,360,88"><style>.a{fill:#1c1b1f;font-family:Roboto;font-size:14px;font-weight:400;letter-spacing:.02px;text-transform:none;white-space:pre}</style><defs><clipPath id="b"><path d="m0,0v88h360V0z"/></clipPath><clipPath id="c"><path d="m0,0v88h360V0z"/></clipPath><clipPath id="d"><path d="m16,16h24v64H16z"/></clipPath><clipPath id="e"><path d="m849,382h18v18h-18z"/></clipPath><clipPath id="f"><use href="#a"/></clipPath><rect rx="2" x="849" y="382" width="18" height="18" id="a" opacity=".38" fill="none" stroke-width="4" stroke="#1c1b1f"/><clipPath id="g"><path d="m849,382h18v18h-18z" opacity=".38"/></clipPath><clipPath id="h"><path d="m19,16h18v18H19z"/></clipPath><clipPath id="i"><path d="m19,16h18v18H19z"/></clipPath></defs><g clip-path="url(#b)"><clipPath/><g><g><path d="m0,0v88h360V0z" fill="#fffbfe"/></g><g clip-path="url(#c)"><clipPath/><g><g><g opacity=".38"><g><text x="56" y="53" dominant-baseline="ideographic" textLength="275.49" lengthAdjust="spacingAndGlyphs" class="a">Supporting text that is long enough to fill up </text></g><g><text x="56" y="70.3" dominant-baseline="ideographic" textLength="86.63" lengthAdjust="spacingAndGlyphs" class="a">multiple lines.</text></g></g><g opacity=".38"><g><text x="56" y="35.41" textLength="63" lengthAdjust="spacingAndGlyphs" style="dominant-baseline:ideographic;text-transform:none;font-family:Roboto;letter-spacing:.04px;font-weight:400;white-space:pre;font-size:16px;fill:#1c1b1f">Headline</text></g></g></g><g clip-path="url(#d)"><clipPath/><g><g clip-path="url(#e)"><clipPath/><g><g><g><use href="#a" clip-path="url(#f)"/></g></g><g clip-path="url(#g)"><clipPath/><g opacity=".38"><g><path d="m922.62,727.15-4.2-4.2.81-.81,3.39,3.39,7.2-7.2.81.81-8.01,8.01z" fill="#fff"/></g></g></g></g></g><g clip-path="url(#h)"><clipPath/><g><g><rect rx="2" x="19" y="16" width="18" height="18" opacity=".38" fill="#1c1b1f"/></g><g clip-path="url(#i)"><clipPath/><g><g><path d="m26.09,29.39-4.2-4.2.81-.81,3.39,3.39,7.2-7.2.81.81-8.01,8.01z" fill="#fffbfe"/></g></g></g></g></g></g></g></g></g></g></g></svg>
