<svg xmlns="http://www.w3.org/2000/svg" fill="none" viewBox="0,0,360,88"><style>.a{fill:#49454e;font-family:Roboto;font-size:14px;font-weight:400;letter-spacing:.02px;text-transform:none;white-space:pre}</style><defs><clipPath id="b"><path d="m0,0v88h360V0z"/></clipPath><clipPath id="c"><path d="m0,0v88h360V0z"/></clipPath><clipPath id="d"><path d="m0,12v64h114V12z" opacity=".5" fill="#c4c7c5"/></clipPath><clipPath id="e"><path d="m4,44h106v26H4z"/></clipPath><clipPath id="f"><path d="m4,16h106v20H4z"/></clipPath><clipPath id="g"><use href="#a"/></clipPath><path id="a" d="m0,12v64h114V12z" opacity=".5" fill="none" stroke-width="4" stroke="#49454e"/></defs><g clip-path="url(#b)"><clipPath/><g><g><path d="m0,0v88h360V0z" fill="#fffbfe"/></g><g clip-path="url(#c)"><clipPath/><g><g><g><g><text x="130" y="54.5" dominant-baseline="ideographic" textLength="153" lengthAdjust="spacingAndGlyphs" class="a">Supporting text that fills </text></g><g><text x="130" y="71.8" dominant-baseline="ideographic" textLength="86.63" lengthAdjust="spacingAndGlyphs" class="a">multiple lines.</text></g></g><g><g><text x="130" y="33.91" textLength="63" lengthAdjust="spacingAndGlyphs" style="dominant-baseline:ideographic;text-transform:none;font-family:Roboto;letter-spacing:.04px;font-weight:400;white-space:pre;font-size:16px;fill:#1c1b1f">Headline</text></g></g></g><g clip-path="url(#d)"><clipPath><path d="m0,12v64h114V12z" opacity=".5" fill="#c4c7c5"/></clipPath><g><path d="m0,12v64h114V12z" opacity=".5" fill="#c4c7c5"/></g><g opacity=".5"><g clip-path="url(#e)"><clipPath/><g><g><circle cx="74" cy="56" r="12" fill="#49454e"/></g><g><path d="m31.79,65.67c-.43,0-.81-.16-1.14-.49s-.49-.7-.49-1.14V49.96c0-.43.16-.81.49-1.14s.7-.49,1.14-.49h14.08c.43,0,.81.16,1.14.49.32.33.49.7.49,1.14v5.82l4.33-4.33v11.1l-4.33-4.33v5.82c0,.43-.16.81-.49,1.14s-.71.49-1.14.49H31.79zm0-1.63h14.08V49.96H31.79v14.08zm0,0V49.96,64.04z" fill="#49454e"/></g></g></g><g clip-path="url(#f)"><clipPath/><g><g><path d="m69,36H45l12-20,12,20z" fill="#49454e"/></g></g></g></g></g><g><g><use href="#a" clip-path="url(#g)"/></g></g></g></g></g></g></svg>
