<svg xmlns="http://www.w3.org/2000/svg" fill="none" viewBox="0,0,24,24"><defs><clipPath id="b"><rect rx="12" width="24" height="24"/></clipPath><clipPath id="c"><use href="#a"/></clipPath><rect rx="12" width="24" height="24" id="a" fill="none" stroke-width="2" stroke="#1c1b1f" stroke-opacity=".12"/></defs><g clip-path="url(#b)"><clipPath/><g><g><path d="m12,11.98c-1.1,0-2-.35-2.7-1.05s-1.05-1.6-1.05-2.7.35-2,1.05-2.7,1.6-1.05,2.7-1.05,2,.35,2.7,1.05,1.05,1.6,1.05,2.7-.35,2-1.05,2.7-1.6,1.05-2.7,1.05zM4,20v-2.35c0-.63.16-1.18.48-1.63S5.2,15.23,5.7,15c1.12-.5,2.19-.88,3.21-1.13,1.03-.25,2.05-.38,3.09-.38s2.06.13,3.08.39,2.08.63,3.2,1.11c.52.23.93.58,1.25,1.03s.48.99.48,1.63V20zm1.5-1.5h13v-.85c0-.27-.08-.52-.24-.76s-.35-.42-.59-.54c-1.07-.52-2.04-.87-2.93-1.06C13.87,15.1,12.95,15,12,15s-1.88.1-2.78.29-1.88.55-2.93,1.06c-.23.12-.43.3-.58.54s-.23.5-.23.76zm6.5-8.03c.65,0,1.19-.21,1.61-.64.43-.42.64-.96.64-1.61s-.21-1.19-.64-1.61-.96-.64-1.61-.64-1.19.21-1.61.64c-.43.43-.64.96-.64,1.61s.21,1.19.64,1.61c.43.43.96.64,1.61.64z" fill="#1c1b1f" fill-opacity=".38"/></g></g></g><g><g><use href="#a" clip-path="url(#c)"/></g></g></svg>
