<svg xmlns="http://www.w3.org/2000/svg" viewBox="0,0,78,52"><g><g><g><text x="10.5" y="46" textLength="56.97" lengthAdjust="spacingAndGlyphs" style="dominant-baseline:ideographic;text-transform:none;font-family:Roboto;letter-spacing:.05px;font-weight:500;white-space:pre;font-size:12px;fill:#49454e">Contribute</text></g></g><g><path d="m38.33,17h1.5v-4.15H44v-1.5h-4.18V7h-1.5v4.35H34v1.5h4.33V17zm.68,5c-1.38,0-2.68-.26-3.89-.79s-2.27-1.24-3.18-2.15-1.63-1.97-2.15-3.18S29,13.37,29,11.99s.26-2.68.79-3.89,1.24-2.27,2.15-3.17,1.97-1.61,3.18-2.14S37.63,2,39.01,2s2.68.26,3.89.79,2.27,1.24,3.17,2.14,1.61,1.96,2.14,3.18.79,2.5.79,3.88-.26,2.68-.79,3.89-1.24,2.27-2.14,3.18-1.96,1.62-3.18,2.15-2.5.79-3.88.79zm0-1.5c2.36,0,4.36-.83,6.01-2.49s2.48-3.67,2.48-6.03-.82-4.36-2.47-6.01S41.37,3.5,39,3.5c-2.35,0-4.35.82-6.01,2.47S30.5,9.63,30.5,12c0,2.35.83,4.35,2.49,6.01s3.67,2.49,6.03,2.49z" fill="#49454e"/></g></g></svg>
