<svg xmlns="http://www.w3.org/2000/svg" fill="none" viewBox="0,0,360,250"><style>.a{fill:#49454e;font-family:Roboto;font-size:16px;font-weight:400;letter-spacing:.04px;text-transform:none;white-space:pre}</style><defs><clipPath id="b"><path d="m0,0h360v250H0z"/></clipPath><clipPath id="c"><path d="m0,0h360v250H0z"/></clipPath><clipPath id="d"><rect rx="28" width="360" height="250"/></clipPath><clipPath id="e"><path d="m0,0h360v250H0z"/></clipPath><clipPath id="f"><path d="m0,65h360v169H0z"/></clipPath><clipPath id="g"><path d="m0,176.98h360v55.99H0z"/></clipPath><clipPath id="h"><path d="m0,176.98h360v56H0z"/></clipPath><clipPath id="i"><path d="m0,120.99h360v55.99H0z"/></clipPath><clipPath id="j"><path d="m0,120.99h360v56H0z"/></clipPath><clipPath id="k"><path d="m0,65h360v55.99H0z"/></clipPath><clipPath id="l"><path d="m0,65h360v56H0z"/></clipPath><clipPath id="m"><path d="m0,56v1h360v-1z" opacity=".4"/></clipPath><clipPath id="n"><use href="#a"/></clipPath><path id="a" d="m0,56v1h360v-1z" opacity=".4" fill="none" stroke-width="2" stroke="#c4c7c5"/><clipPath id="o"><path d="m0,16v36h360V16z"/></clipPath><clipPath id="p"><path d="m56,16v24h248V16z"/></clipPath></defs><g clip-path="url(#b)"><clipPath/><g><g clip-path="url(#c)"><clipPath/><g><g clip-path="url(#d)"><clipPath/><g><g><path d="m0,0h360v250H0z" fill="#fffbfe"/></g><g><path d="m0,0h360v250H0z" opacity=".11" fill="#6750a4"/></g></g></g><g clip-path="url(#e)"><clipPath/><g><g clip-path="url(#f)"><clipPath/><g><g clip-path="url(#g)"><clipPath/><g><g clip-path="url(#h)"><clipPath/><g><g><g><text x="52" y="213.98" dominant-baseline="ideographic" textLength="44.31" lengthAdjust="spacingAndGlyphs" class="a">Ren&#xE9;e</text></g></g><g><path d="m23.93,213.98c-2.48,0-4.59-.88-6.33-2.64-1.73-1.76-2.6-3.89-2.6-6.39h1.5c0,2.08.72,3.86,2.15,5.33s3.19,2.2,5.28,2.2c2.12,0,3.91-.74,5.38-2.23s2.2-3.28,2.2-5.4c0-2.07-.74-3.81-2.23-5.24s-3.27-2.14-5.35-2.14c-1.13,0-2.2.26-3.19.78s-1.86,1.2-2.59,2.05h2.63v1.5h-5.23v-5.2h1.5v2.65c.87-1.02,1.9-1.82,3.09-2.4s2.45-.88,3.79-.88c1.25,0,2.43.23,3.53.7s2.06,1.1,2.89,1.91,1.48,1.75,1.95,2.84.71,2.25.71,3.5-.24,2.43-.71,3.53-1.13,2.06-1.95,2.88-1.79,1.46-2.89,1.94-2.28.71-3.53.71zm3.2-4.93-3.85-3.8v-5.35h1.5v4.73l3.43,3.35-1.08,1.08z" fill="#49454e"/></g></g></g></g></g><g clip-path="url(#i)"><clipPath/><g><g clip-path="url(#j)"><clipPath/><g><g><g><text x="52" y="157.99" dominant-baseline="ideographic" textLength="121.35" lengthAdjust="spacingAndGlyphs" class="a">Peanut's Recipes</text></g></g><g><path d="m23.93,157.99c-2.48,0-4.59-.88-6.33-2.64-1.73-1.76-2.6-3.89-2.6-6.39h1.5c0,2.08.72,3.86,2.15,5.33s3.19,2.2,5.28,2.2c2.12,0,3.91-.74,5.38-2.23s2.2-3.28,2.2-5.4c0-2.07-.74-3.81-2.23-5.24-1.48-1.43-3.27-2.14-5.35-2.14-1.13,0-2.2.26-3.19.78s-1.85,1.2-2.59,2.05h2.63v1.5h-5.23v-5.2h1.5v2.65c.87-1.02,1.9-1.82,3.09-2.4s2.46-.88,3.79-.88c1.25,0,2.43.23,3.53.7s2.06,1.1,2.89,1.91,1.48,1.76,1.95,2.84.71,2.25.71,3.5-.24,2.43-.71,3.53-1.13,2.06-1.95,2.88-1.79,1.46-2.89,1.94-2.28.71-3.53.71zm3.2-4.93-3.85-3.8v-5.35h1.5v4.73l3.43,3.35-1.08,1.08z" fill="#49454e"/></g></g></g></g></g><g clip-path="url(#k)"><clipPath/><g><g clip-path="url(#l)"><clipPath/><g><g><g><text x="52" y="102" dominant-baseline="ideographic" textLength="50.29" lengthAdjust="spacingAndGlyphs" class="a">Peanut</text></g></g><g><path d="m23.93,102c-2.48,0-4.59-.88-6.33-2.64-1.73-1.76-2.6-3.89-2.6-6.39h1.5c0,2.08.72,3.86,2.15,5.33s3.19,2.2,5.28,2.2c2.12,0,3.91-.74,5.38-2.23s2.2-3.28,2.2-5.4c0-2.07-.74-3.81-2.23-5.24s-3.27-2.14-5.35-2.14c-1.13,0-2.2.26-3.19.78s-1.86,1.2-2.59,2.05h2.63v1.5h-5.23v-5.2h1.5v2.65c.87-1.02,1.9-1.82,3.09-2.4s2.45-.88,3.79-.88c1.25,0,2.43.23,3.53.7s2.06,1.1,2.89,1.91,1.48,1.76,1.95,2.84.7,2.26.7,3.51-.24,2.43-.71,3.53-1.13,2.06-1.95,2.88-1.79,1.46-2.89,1.94-2.28.71-3.53.71zm3.2-4.93-3.85-3.8v-5.35h1.5v4.73L28.2,96l-1.08,1.08z" fill="#49454e"/></g></g></g></g></g></g></g><g><clipPath clip-path="url(#m)"/><g><g><use href="#a" clip-path="url(#n)"/></g></g></g><g clip-path="url(#o)"><clipPath/><g><g><g><g><path d="m326.23,34.83-1.05-1.05,5.77-5.78-5.78-5.78,1.05-1.05,5.78,5.78,5.78-5.78,1.05,1.05L333.05,28l5.78,5.78-1.05,1.05L332,29.05l-5.78,5.78z" fill="#49454e"/></g></g></g><g clip-path="url(#p)"><clipPath/><g><g><g><text x="60" y="34.91" dominant-baseline="ideographic" textLength="105.45" lengthAdjust="spacingAndGlyphs" class="a">Search Replies</text></g></g><g><g><text x="56" y="34.91" textLength="3.95" lengthAdjust="spacingAndGlyphs" style="dominant-baseline:ideographic;text-transform:none;font-family:Roboto;letter-spacing:.04px;font-weight:400;white-space:pre;font-size:16px;fill:#1c1b1f">|</text></g></g></g></g><g><g><g><path d="m35.9,36.98-6.57-6.58c-.5.43-1.08.77-1.75,1.01s-1.38.36-2.13.36c-1.8,0-3.33-.63-4.58-1.88S19,27.14,19,25.38s.63-3.28,1.88-4.53,2.76-1.88,4.54-1.88,3.28.63,4.53,1.88c1.24,1.25,1.86,2.76,1.86,4.53,0,.71-.12,1.4-.35,2.07s-.58,1.29-1.05,1.88l6.6,6.55-1.1,1.1zm-10.48-6.7c1.35,0,2.51-.48,3.45-1.44.95-.96,1.42-2.11,1.42-3.46s-.47-2.5-1.42-3.46-2.1-1.44-3.45-1.44c-1.37,0-2.53.48-3.49,1.44s-1.44,2.11-1.44,3.46.48,2.5,1.44,3.46,2.12,1.44,3.49,1.44z" fill="#1c1b1f"/></g></g></g></g></g></g></g></g></g></g></g></svg>
