<svg xmlns="http://www.w3.org/2000/svg" fill="none" viewBox="0,0,320,20"><defs><clipPath id="a"><rect rx="2" y="8" width="320" height="4" fill="#e7e0ec"/></clipPath><clipPath id="b"><path d="m0,9v2h320V9z" opacity=".38"/></clipPath><filter id="c" x="-1.05" y="-1.05" width="3.1" height="3.4" color-interpolation-filters="sRGB"><feFlood flood-opacity="0" result="BackgroundImageFix"/><feColorMatrix in="SourceAlpha" values="0,0,0,0,0,0,0,0,0,0,0,0,0,0,0,0,0,0,127,0"/><feOffset dx="0" dy="1"/><feGaussianBlur stdDeviation=".5"/><feColorMatrix values="0,0,0,0,0,0,0,0,0,0,0,0,0,0,0,0,0,0,.1,0"/><feBlend in2="BackgroundImageFix" result="filter_57c2bb3f-6890-809b-8002-39ce242b040b"/><feColorMatrix in="SourceAlpha" values="0,0,0,0,0,0,0,0,0,0,0,0,0,0,0,0,0,0,127,0"/><feOffset dx="0"/><feGaussianBlur stdDeviation="1"/><feColorMatrix values="0,0,0,0,0,0,0,0,0,0,0,0,0,0,0,0,0,0,.06,0"/><feBlend in2="filter_57c2bb3f-6890-809b-8002-39ce242b040b" result="filter_57c2bb3f-6890-809b-8002-39ce40c9b0c4"/><feBlend in="SourceGraphic" in2="filter_57c2bb3f-6890-809b-8002-39ce40c9b0c4" result="shape"/></filter><clipPath id="d"><rect rx="10" x="172" width="20" height="20"/></clipPath><clipPath id="e"><path d="m66,8v4h106V8z"/></clipPath><clipPath id="f"><path d="m66,8v4h106V8z" fill="#6750a4"/></clipPath><filter id="g" x="-1.05" y="-1.05" width="3.1" height="3.4" color-interpolation-filters="sRGB"><feFlood flood-opacity="0" result="BackgroundImageFix"/><feColorMatrix in="SourceAlpha" values="0,0,0,0,0,0,0,0,0,0,0,0,0,0,0,0,0,0,127,0"/><feOffset dx="0" dy="1"/><feGaussianBlur stdDeviation=".5"/><feColorMatrix values="0,0,0,0,0,0,0,0,0,0,0,0,0,0,0,0,0,0,.1,0"/><feBlend in2="BackgroundImageFix" result="filter_57c2bb3f-6890-809b-8002-39ce242b040b"/><feColorMatrix in="SourceAlpha" values="0,0,0,0,0,0,0,0,0,0,0,0,0,0,0,0,0,0,127,0"/><feOffset dx="0"/><feGaussianBlur stdDeviation="1"/><feColorMatrix values="0,0,0,0,0,0,0,0,0,0,0,0,0,0,0,0,0,0,.06,0"/><feBlend in2="filter_57c2bb3f-6890-809b-8002-39ce242b040b" result="filter_57c2bb3f-6890-809b-8002-39ce40c9b0c4"/><feBlend in="SourceGraphic" in2="filter_57c2bb3f-6890-809b-8002-39ce40c9b0c4" result="shape"/></filter><clipPath id="h"><rect rx="10" x="46" width="20" height="20"/></clipPath></defs><g><g clip-path="url(#a)"><clipPath><rect rx="2" y="8" width="320" height="4" fill="#e7e0ec"/></clipPath><g><rect rx="2" y="8" width="320" height="4" fill="#e7e0ec"/></g></g><g clip-path="url(#b)"><clipPath/><g opacity=".38"><g><ellipse rx="1" ry="1" cx="595" cy="10" fill="#49454e"/></g><g><ellipse rx="1" ry="1" cx="577" cy="10" fill="#49454e"/></g><g><ellipse rx="1" ry="1" cx="559" cy="10" fill="#49454e"/></g><g><ellipse rx="1" ry="1" cx="541" cy="10" fill="#49454e"/></g><g><ellipse rx="1" ry="1" cx="523" cy="10" fill="#49454e"/></g><g><ellipse rx="1" ry="1" cx="505" cy="10" fill="#49454e"/></g><g><ellipse rx="1" ry="1" cx="487" cy="10" fill="#49454e"/></g><g><ellipse rx="1" ry="1" cx="469" cy="10" fill="#49454e"/></g><g><ellipse rx="1" ry="1" cx="451" cy="10" fill="#49454e"/></g><g><circle cx="433" cy="10" r="1" fill="#49454e"/></g><g><ellipse rx="1" ry="1" cx="415" cy="10" fill="#49454e"/></g><g><ellipse rx="1" ry="1" cx="397" cy="10" fill="#49454e"/></g><g><ellipse rx="1" ry="1" cx="379" cy="10" fill="#49454e"/></g><g><ellipse rx="1" ry="1" cx="361" cy="10" fill="#49454e"/></g><g><ellipse rx="1" ry="1" cx="343" cy="10" fill="#49454e"/></g><g><ellipse rx="1" ry="1" cx="325" cy="10" fill="#49454e"/></g><g><ellipse rx="1" ry="1" cx="307" cy="10" fill="#49454e"/></g><g><ellipse rx="1" ry="1" cx="289" cy="10" fill="#49454e"/></g><g><ellipse rx="1" ry="1" cx="271" cy="10" fill="#49454e"/></g><g><ellipse rx="1" ry="1" cx="253" cy="10" fill="#49454e"/></g><g><ellipse rx="1" ry="1" cx="235" cy="10" fill="#49454e"/></g><g><ellipse rx="1" ry="1" cx="217" cy="10" fill="#49454e"/></g><g><ellipse rx="1" ry="1" cx="199" cy="10" fill="#49454e"/></g><g><ellipse rx="1" ry="1" cx="181" cy="10" fill="#49454e"/></g><g><ellipse rx="1" ry="1" cx="163" cy="10" fill="#49454e"/></g><g><ellipse rx="1" ry="1" cx="145" cy="10" fill="#49454e"/></g><g><ellipse rx="1" ry="1" cx="127" cy="10" fill="#49454e"/></g><g><ellipse rx="1" ry="1" cx="109" cy="10" fill="#49454e"/></g><g><ellipse rx="1" ry="1" cx="91" cy="10" fill="#49454e"/></g><g><ellipse rx="1" ry="1" cx="73" cy="10" fill="#49454e"/></g><g><ellipse rx="1" ry="1" cx="55" cy="10" fill="#49454e"/></g><g><ellipse rx="1" ry="1" cx="37" cy="10" fill="#49454e"/></g><g><ellipse rx="1" ry="1" cx="19" cy="10" fill="#49454e"/></g><g><ellipse rx="1" ry="1" cx="1" cy="10" fill="#49454e"/></g></g></g><g><g clip-path="url(#d)" filter="url(#c)"><clipPath/><g><g><ellipse rx="10" ry="10" cx="182" cy="10" fill="#6750a4"/></g><g><ellipse rx="10" ry="10" cx="182" cy="10" opacity="5%" fill="#6750a4"/></g></g></g><g clip-path="url(#e)"><clipPath/><g><g clip-path="url(#f)"><clipPath><path d="m66,8v4h106V8z" fill="#6750a4"/></clipPath><g><path d="m66,8v4h106V8z" fill="#6750a4"/></g></g><g opacity=".38"><g><ellipse rx="1" ry="1" cx="667" cy="10" fill="#fff"/></g><g><ellipse rx="1" ry="1" cx="649" cy="10" fill="#fff"/></g><g><ellipse rx="1" ry="1" cx="631" cy="10" fill="#fff"/></g><g><ellipse rx="1" ry="1" cx="613" cy="10" fill="#fff"/></g><g><ellipse rx="1" ry="1" cx="595" cy="10" fill="#fff"/></g><g><ellipse rx="1" ry="1" cx="577" cy="10" fill="#fff"/></g><g><ellipse rx="1" ry="1" cx="559" cy="10" fill="#fff"/></g><g><ellipse rx="1" ry="1" cx="541" cy="10" fill="#fff"/></g><g><ellipse rx="1" ry="1" cx="523" cy="10" fill="#fff"/></g><g><circle cx="505" cy="10" r="1" fill="#fff"/></g><g><ellipse rx="1" ry="1" cx="487" cy="10" fill="#fff"/></g><g><ellipse rx="1" ry="1" cx="469" cy="10" fill="#fff"/></g><g><ellipse rx="1" ry="1" cx="451" cy="10" fill="#fff"/></g><g><ellipse rx="1" ry="1" cx="433" cy="10" fill="#fff"/></g><g><ellipse rx="1" ry="1" cx="415" cy="10" fill="#fff"/></g><g><ellipse rx="1" ry="1" cx="397" cy="10" fill="#fff"/></g><g><circle cx="379" cy="10" r="1" fill="#fff"/></g><g><ellipse rx="1" ry="1" cx="361" cy="10" fill="#fff"/></g><g><ellipse rx="1" ry="1" cx="343" cy="10" fill="#fff"/></g><g><ellipse rx="1" ry="1" cx="325" cy="10" fill="#fff"/></g><g><ellipse rx="1" ry="1" cx="307" cy="10" fill="#fff"/></g><g><ellipse rx="1" ry="1" cx="289" cy="10" fill="#fff"/></g><g><ellipse rx="1" ry="1" cx="271" cy="10" fill="#fff"/></g><g><ellipse rx="1" ry="1" cx="253" cy="10" fill="#fff"/></g><g><ellipse rx="1" ry="1" cx="235" cy="10" fill="#fff"/></g><g><ellipse rx="1" ry="1" cx="217" cy="10" fill="#fff"/></g><g><ellipse rx="1" ry="1" cx="199" cy="10" fill="#fff"/></g><g><ellipse rx="1" ry="1" cx="181" cy="10" fill="#fff"/></g><g><ellipse rx="1" ry="1" cx="163" cy="10" fill="#fff"/></g><g><ellipse rx="1" ry="1" cx="145" cy="10" fill="#fff"/></g><g><ellipse rx="1" ry="1" cx="127" cy="10" fill="#fff"/></g><g><ellipse rx="1" ry="1" cx="109" cy="10" fill="#fff"/></g><g><ellipse rx="1" ry="1" cx="91" cy="10" fill="#fff"/></g><g><ellipse rx="1" ry="1" cx="73" cy="10" fill="#fff"/></g></g></g></g><g clip-path="url(#h)" filter="url(#g)"><clipPath/><g><g><ellipse rx="10" ry="10" cx="56" cy="10" fill="#6750a4"/></g><g><ellipse rx="10" ry="10" cx="56" cy="10" opacity="5%" fill="#6750a4"/></g></g></g></g></g></svg>
