<svg xmlns="http://www.w3.org/2000/svg" fill="none" viewBox="0,0,143,32"><defs><clipPath id="a"><path d="m0,0h143v32H0z"/></clipPath><filter id="b" x="-.19" y="-.84" width="1.38" height="3.06" color-interpolation-filters="sRGB"><feFlood flood-opacity="0" result="BackgroundImageFix"/><feColorMatrix in="SourceAlpha" values="0,0,0,0,0,0,0,0,0,0,0,0,0,0,0,0,0,0,127,0"/><feOffset dx="0" dy="1"/><feGaussianBlur stdDeviation=".5"/><feColorMatrix values="0,0,0,0,0,0,0,0,0,0,0,0,0,0,0,0,0,0,.16,0"/><feBlend in2="BackgroundImageFix" result="filter_d43f6a07-797c-80ed-8002-34ffc27e5412"/><feColorMatrix in="SourceAlpha" values="0,0,0,0,0,0,0,0,0,0,0,0,0,0,0,0,0,0,127,0"/><feOffset dx="0"/><feGaussianBlur stdDeviation="1"/><feColorMatrix values="0,0,0,0,0,0,0,0,0,0,0,0,0,0,0,0,0,0,.09,0"/><feBlend in2="filter_d43f6a07-797c-80ed-8002-34ffc27e5412" result="filter_d43f6a07-797c-80ed-8002-34ffc3d99cfd"/><feColorMatrix in="SourceAlpha" values="0,0,0,0,0,0,0,0,0,0,0,0,0,0,0,0,0,0,127,0"/><feOffset dx="0" dy="4"/><feGaussianBlur stdDeviation="2"/><feColorMatrix values="0,0,0,0,0,0,0,0,0,0,0,0,0,0,0,0,0,0,.05,0"/><feBlend in2="filter_d43f6a07-797c-80ed-8002-34ffc3d99cfd" result="filter_d43f6a07-797c-80ed-8002-34ffc4be8d48"/><feBlend in="SourceGraphic" in2="filter_d43f6a07-797c-80ed-8002-34ffc4be8d48" result="shape"/></filter><clipPath id="c"><rect rx="8" width="143" height="32"/></clipPath><clipPath id="d"><path d="m0,0h143v32H0z"/></clipPath></defs><g clip-path="url(#a)"><clipPath/><g><g><g clip-path="url(#c)" filter="url(#b)"><clipPath/><g><g><path d="m0,0v32h143V0z" fill="#fffbfe"/></g><g><path d="m0,0v32h143V0z" opacity="5%" fill="#6750a4"/></g></g></g><g clip-path="url(#d)"><clipPath/><g><g><g><text x="34" y="24" textLength="93" lengthAdjust="spacingAndGlyphs" style="dominant-baseline:ideographic;text-transform:none;font-family:Roboto;letter-spacing:.01px;font-weight:500;white-space:pre;font-size:14px;fill:#1c1b1f">Assist Enabled</text></g></g><g><path d="m13.25,17.28c-.35,0-.65-.13-.9-.38s-.38-.55-.38-.9.13-.65.38-.9.55-.38.9-.38.65.13.9.38.38.55.38.9-.13.65-.38.9-.55.38-.9.38zm0,3.23c-1.25,0-2.31-.44-3.19-1.31S8.75,17.25,8.75,16s.44-2.31,1.31-3.19S12,11.5,13.25,11.5c.9,0,1.69.21,2.36.64s1.21,1.07,1.59,1.93h6.68L26,16.19l-3.13,2.87-1.65-1.2-1.65,1.2-1.41-1.13h-.96c-.31.75-.8,1.37-1.47,1.85s-1.5.72-2.48.72zm0-1.13c.73,0,1.39-.24,2.01-.72.61-.48,1.01-1.1,1.18-1.85h2.14l1.01.84,1.65-1.18,1.54,1.16,1.59-1.48-.96-.96h-6.98c-.15-.7-.53-1.3-1.13-1.81s-1.29-.76-2.06-.76c-.94,0-1.73.33-2.39.98-.66.66-.98,1.45-.98,2.39s.33,1.73.98,2.39c.66.66,1.45.98,2.39.98z" fill="#6750a4"/></g></g></g></g></g></g></svg>
