<svg xmlns="http://www.w3.org/2000/svg" fill="none" viewBox="0,0,174,32"><defs><clipPath id="a"><path d="m0,0v32h174V0z"/></clipPath><filter id="b" x="-.16" y="-.84" width="1.31" height="3.06" color-interpolation-filters="sRGB"><feFlood flood-opacity="0" result="BackgroundImageFix"/><feColorMatrix in="SourceAlpha" values="0,0,0,0,0,0,0,0,0,0,0,0,0,0,0,0,0,0,127,0"/><feOffset dx="0" dy="1"/><feGaussianBlur stdDeviation=".5"/><feColorMatrix values="0,0,0,0,0,0,0,0,0,0,0,0,0,0,0,0,0,0,.16,0"/><feBlend in2="BackgroundImageFix" result="filter_d43f6a07-797c-80ed-8002-34ffc27e5412"/><feColorMatrix in="SourceAlpha" values="0,0,0,0,0,0,0,0,0,0,0,0,0,0,0,0,0,0,127,0"/><feOffset dx="0"/><feGaussianBlur stdDeviation="1"/><feColorMatrix values="0,0,0,0,0,0,0,0,0,0,0,0,0,0,0,0,0,0,.09,0"/><feBlend in2="filter_d43f6a07-797c-80ed-8002-34ffc27e5412" result="filter_d43f6a07-797c-80ed-8002-34ffc3d99cfd"/><feColorMatrix in="SourceAlpha" values="0,0,0,0,0,0,0,0,0,0,0,0,0,0,0,0,0,0,127,0"/><feOffset dx="0" dy="4"/><feGaussianBlur stdDeviation="2"/><feColorMatrix values="0,0,0,0,0,0,0,0,0,0,0,0,0,0,0,0,0,0,.05,0"/><feBlend in2="filter_d43f6a07-797c-80ed-8002-34ffc3d99cfd" result="filter_d43f6a07-797c-80ed-8002-34ffc4be8d48"/><feBlend in="SourceGraphic" in2="filter_d43f6a07-797c-80ed-8002-34ffc4be8d48" result="shape"/></filter><clipPath id="c"><rect rx="8" width="174" height="32"/></clipPath><clipPath id="d"><path d="m0,0h174v32H0z"/></clipPath></defs><g clip-path="url(#a)"><clipPath/><g><g><g clip-path="url(#c)" filter="url(#b)"><clipPath/><g><g><path d="m0,0v32h174V0z" fill="#fffbfe"/></g><g><path d="m0,0v32h174V0z" opacity="5%" fill="#6750a4"/></g></g></g><g clip-path="url(#d)"><clipPath/><g><g><g><text x="34" y="24" textLength="124.65" lengthAdjust="spacingAndGlyphs" style="dominant-baseline:ideographic;text-transform:none;font-family:Roboto;letter-spacing:.01px;font-weight:500;white-space:pre;font-size:14px;fill:#49454e">Suggestion Enabled</text></g></g><g><path d="m17.75,17.54.79-.79-1.73-1.73v-3.34h-1.13v3.79l2.06,2.06zm-2.94,3.15c.14-.7.48-1.28,1.01-1.74.54-.46,1.17-.69,1.89-.69h3.3c.28-.44.49-.91.64-1.41s.23-1.03.23-1.59c0-1.57-.55-2.9-1.64-3.99s-2.42-1.64-3.99-1.64-2.9.55-3.99,1.64-1.64,2.42-1.64,3.99c0,1.31.39,2.47,1.18,3.46s1.79,1.65,3,1.98zM17.75,24.25c-.73,0-1.36-.23-1.91-.68-.55-.46-.89-1.03-1.03-1.72-1.53-.33-2.79-1.1-3.8-2.33C10,18.3,9.5,16.88,9.5,15.25c0-1.88.66-3.47,1.97-4.78s2.91-1.97,4.78-1.97,3.47.66,4.78,1.97S23,13.38,23,15.25c0,.54-.06,1.06-.18,1.57s-.29.98-.52,1.43c.83,0,1.52.29,2.09.88s.85,1.29.85,2.12-.29,1.53-.88,2.12-1.29.88-2.12.88h-4.5zm0-1.13h4.5c.53,0,.97-.18,1.33-.54s.54-.81.54-1.33-.18-.97-.54-1.33-.81-.54-1.33-.54h-4.5c-.53,0-.97.18-1.33.54s-.54.81-.54,1.33.18.97.54,1.33.81.54,1.33.54zm0-1.31c-.16,0-.29-.06-.4-.16-.11-.11-.16-.24-.16-.4s.05-.29.16-.4.24-.16.4-.16.29.05.4.16.16.24.16.4-.06.29-.16.4c-.11.11-.24.16-.4.16zM20,21.81c-.16,0-.29-.06-.4-.16-.11-.11-.16-.24-.16-.4s.05-.29.16-.4.24-.16.4-.16.29.05.4.16.16.24.16.4-.06.29-.16.4c-.11.11-.24.16-.4.16zm2.25,0c-.16,0-.29-.06-.4-.16-.11-.11-.16-.24-.16-.4s.05-.29.16-.4.24-.16.4-.16.29.05.4.16.16.24.16.4-.06.29-.16.4c-.11.11-.24.16-.4.16z" fill="#49454e"/></g></g></g></g></g></g></svg>
