<svg xmlns="http://www.w3.org/2000/svg" fill="none" viewBox="0,0,340,56"><defs><clipPath id="a"><path d="m4,0h332a4,4,0,014,4v52H0V4a4,4,0,014-4z" fill="#e7e0ec"/></clipPath><clipPath id="b"><path d="m0,54v2h340v-2z" opacity=".4" fill="#6750a4"/></clipPath><clipPath id="c"><path d="m0,0v56h340V0z"/></clipPath></defs><g><g clip-path="url(#a)"><clipPath><path d="m4,0h332a4,4,0,014,4v52H0V4a4,4,0,014-4z" fill="#e7e0ec"/></clipPath><g><path d="m4,0h332a4,4,0,014,4v52H0V4a4,4,0,014-4z" fill="#e7e0ec"/></g></g><g><g clip-path="url(#b)"><clipPath><path d="m0,54v2h340v-2z" opacity=".4" fill="#6750a4"/></clipPath><g><path d="m0,54v2h340v-2z" opacity=".4" fill="#6750a4"/></g></g></g><g clip-path="url(#c)"><clipPath/><g><g><path d="m310.23,34.83-1.05-1.05,5.77-5.78-5.78-5.78,1.05-1.05,5.78,5.78,5.78-5.78,1.05,1.05L317.05,28l5.78,5.78-1.05,1.05L316,29.05l-5.78,5.78z" fill="#49454e"/></g><g><g><g><g><text x="69" y="47" textLength="3.95" lengthAdjust="spacingAndGlyphs" style="dominant-baseline:ideographic;text-transform:none;font-family:Roboto;letter-spacing:.04px;font-weight:400;white-space:pre;font-size:16px;fill:#6750a4">|</text></g></g><g><g><text x="52" y="47" textLength="16.98" lengthAdjust="spacingAndGlyphs" style="dominant-baseline:ideographic;text-transform:none;font-family:Roboto;letter-spacing:.04px;font-weight:400;white-space:pre;font-size:16px;fill:#1c1b1f">Eli</text></g></g></g><g><g><text x="52" y="22" textLength="54.93" lengthAdjust="spacingAndGlyphs" style="dominant-baseline:ideographic;text-transform:none;font-family:Roboto;letter-spacing:.04px;font-weight:400;white-space:pre;font-size:12px;fill:#6750a4">Label Text</text></g></g></g><g><path d="m31.9,36.98-6.57-6.58c-.5.43-1.08.77-1.75,1.01s-1.38.36-2.13.36c-1.8,0-3.33-.63-4.58-1.88S15,27.14,15,25.38s.63-3.28,1.88-4.53,2.76-1.88,4.54-1.88,3.28.63,4.53,1.88c1.24,1.25,1.86,2.76,1.86,4.53,0,.71-.12,1.4-.35,2.07s-.58,1.29-1.05,1.88l6.6,6.55-1.1,1.1zm-10.48-6.7c1.35,0,2.51-.48,3.45-1.44.95-.96,1.42-2.11,1.42-3.46s-.47-2.5-1.42-3.46-2.1-1.44-3.45-1.44c-1.37,0-2.53.48-3.49,1.44s-1.44,2.11-1.44,3.46.48,2.5,1.44,3.46,2.12,1.44,3.49,1.44z" fill="#49454e"/></g></g></g></g></svg>
