<svg xmlns="http://www.w3.org/2000/svg" fill="none" viewBox="0,0,340,56"><defs><clipPath id="a"><path d="m4,0h332a4,4,0,014,4v52H0V4a4,4,0,014-4z" opacity="4%" fill="#1c1b1f"/></clipPath><clipPath id="b"><path d="m0,55v1h340v-1z" opacity=".38" fill="#1c1b1f"/></clipPath><clipPath id="c"><path d="m0,0v56h340V0z"/></clipPath></defs><g><g clip-path="url(#a)"><clipPath><path d="m4,0h332a4,4,0,014,4v52H0V4a4,4,0,014-4z" opacity="4%" fill="#1c1b1f"/></clipPath><g><path d="m4,0h332a4,4,0,014,4v52H0V4a4,4,0,014-4z" opacity="4%" fill="#1c1b1f"/></g></g><g><g clip-path="url(#b)"><clipPath><path d="m0,55v1h340v-1z" opacity=".38" fill="#1c1b1f"/></clipPath><g><path d="m0,55v1h340v-1z" opacity=".38" fill="#1c1b1f"/></g></g></g><g clip-path="url(#c)"><clipPath/><g><g><g><g opacity=".38"><g><text x="16" y="47" textLength="16.98" lengthAdjust="spacingAndGlyphs" style="dominant-baseline:ideographic;text-transform:none;font-family:Roboto;letter-spacing:.04px;font-weight:400;white-space:pre;font-size:16px;fill:#1c1b1f">Eli</text></g></g></g><g opacity=".38"><g><text x="16" y="22" textLength="54.93" lengthAdjust="spacingAndGlyphs" style="dominant-baseline:ideographic;text-transform:none;font-family:Roboto;letter-spacing:.04px;font-weight:400;white-space:pre;font-size:12px;fill:#1c1b1f">Label Text</text></g></g></g></g></g></g></svg>
