<svg xmlns="http://www.w3.org/2000/svg" fill="none" viewBox="0,0,124,56"><style>.a{fill:#b3261e;font-family:Roboto;font-size:12px;font-weight:400;letter-spacing:.04px;text-transform:none;white-space:pre}</style><defs><clipPath id="a"><path d="m4,0h116a4,4,0,014,4v52H0V4a4,4,0,014-4z" fill="#e7e0ec"/></clipPath><clipPath id="b"><path d="m0,54v2h124v-2z" opacity=".4" fill="#b3261e"/></clipPath><clipPath id="c"><path d="m0,0h124v56H0z"/></clipPath></defs><g><g><g><g><text x="16" y="74" dominant-baseline="ideographic" textLength="84.73" lengthAdjust="spacingAndGlyphs" class="a">Supporting Text</text></g></g></g><g clip-path="url(#a)"><clipPath><path d="m4,0h116a4,4,0,014,4v52H0V4a4,4,0,014-4z" fill="#e7e0ec"/></clipPath><g><path d="m4,0h116a4,4,0,014,4v52H0V4a4,4,0,014-4z" fill="#e7e0ec"/></g></g><g><g clip-path="url(#b)"><clipPath><path d="m0,54v2h124v-2z" opacity=".4" fill="#b3261e"/></clipPath><g><path d="m0,54v2h124v-2z" opacity=".4" fill="#b3261e"/></g></g></g><g clip-path="url(#c)"><clipPath/><g><g><g><g><g><text x="87" y="47" textLength="21.23" lengthAdjust="spacingAndGlyphs" style="dominant-baseline:ideographic;text-transform:none;font-family:Roboto;letter-spacing:.04px;font-weight:400;white-space:pre;font-size:16px;fill:#49454e">lbs</text></g></g><g><g><text x="43" y="47" textLength="3.95" lengthAdjust="spacingAndGlyphs" style="dominant-baseline:ideographic;text-transform:none;font-family:Roboto;letter-spacing:.04px;font-weight:400;white-space:pre;font-size:16px;fill:#b3261e">|</text></g></g><g><g><text x="16" y="47" textLength="27.08" lengthAdjust="spacingAndGlyphs" style="dominant-baseline:ideographic;text-transform:none;font-family:Roboto;letter-spacing:.04px;font-weight:400;white-space:pre;font-size:16px;fill:#1c1b1f">143</text></g></g></g><g><g><text x="16" y="22" dominant-baseline="ideographic" textLength="54.93" lengthAdjust="spacingAndGlyphs" class="a">Label Text</text></g></g></g></g></g></g></svg>
