<svg xmlns="http://www.w3.org/2000/svg" fill="none" viewBox="0,0,360,360"><style>.a{fill:#49454e;font-family:Roboto;font-size:11px;font-weight:500;letter-spacing:.05px;text-transform:none;white-space:pre}.b{fill:#49454e;font-family:Roboto;font-size:14px;font-weight:400;letter-spacing:.02px;text-transform:none;white-space:pre}.c{fill:#1c1b1f;font-family:Roboto;font-size:16px;font-weight:400;letter-spacing:.04px;text-transform:none;white-space:pre}</style><defs><clipPath id="b"><path d="m0,0v360h360V0z"/></clipPath><clipPath id="c"><path d="m0,0v360h360V0z"/></clipPath><clipPath id="d"><path d="m0,0v360h360V0z"/></clipPath><clipPath id="e"><path d="m0,0v360h360V0z"/></clipPath><clipPath id="f"><path d="m0,81v263h360V81z"/></clipPath><clipPath id="g"><path d="m0,256.99h360v88H0z"/></clipPath><clipPath id="h"><path d="m0,256.99h360v88H0z"/></clipPath><clipPath id="i"><rect rx="20" x="16" y="264.99" width="40" height="40" fill="#f9dedc"/></clipPath><clipPath id="j"><path d="m0,168.99v88h360v-88z"/></clipPath><clipPath id="k"><path d="m0,168.99v88h360v-88z"/></clipPath><clipPath id="l"><rect rx="20" x="16" y="176.99" width="40" height="40" fill="#ffd8e4"/></clipPath><clipPath id="m"><path d="m0,81v87.99h360V81z"/></clipPath><clipPath id="n"><path d="m0,81v88h360V81z"/></clipPath><clipPath id="o"><rect rx="20" x="16" y="89" width="40" height="40" fill="#eaddff"/></clipPath><clipPath id="p"><path d="m0,72v1h360v-1z" opacity=".4"/></clipPath><clipPath id="q"><use href="#a"/></clipPath><path id="a" d="m0,72v1h360v-1z" opacity=".4" fill="none" stroke-width="2" stroke="#c4c7c5"/><clipPath id="r"><path d="m0,16v52h360V16z"/></clipPath><clipPath id="s"><path d="m56,24v24h248V24z"/></clipPath></defs><g clip-path="url(#b)"><clipPath/><g><g clip-path="url(#c)"><clipPath/><g><g clip-path="url(#d)"><clipPath/><g><g><path d="m0,0v360h360V0z" fill="#fffbfe"/></g><g><path d="m0,0v360h360V0z" opacity=".11" fill="#6750a4"/></g></g></g><g clip-path="url(#e)"><clipPath/><g><g clip-path="url(#f)"><clipPath/><g><g clip-path="url(#g)"><clipPath/><g><g clip-path="url(#h)"><clipPath/><g><g><g><g><text x="294.14" y="287.49" dominant-baseline="ideographic" textLength="41.72" lengthAdjust="spacingAndGlyphs" class="a">8:22 AM</text></g></g></g><g><g><g><text x="72" y="312.82" dominant-baseline="ideographic" textLength="109.37" lengthAdjust="spacingAndGlyphs" class="b">Museum field trip</text></g><g><text x="72" y="330.12" dominant-baseline="ideographic" textLength="205.49" lengthAdjust="spacingAndGlyphs" class="b">So far about 2 students signed ...</text></g></g><g><g><text x="72" y="289.56" dominant-baseline="ideographic" textLength="63" lengthAdjust="spacingAndGlyphs" class="c">Headline</text></g></g></g><g clip-path="url(#i)"><clipPath><rect rx="20" x="16" y="264.99" width="40" height="40" fill="#f9dedc"/></clipPath><g><rect rx="20" x="16" y="264.99" width="40" height="40" fill="#f9dedc"/></g><g><g><g><text x="30.5" y="293.99" textLength="10.66" lengthAdjust="spacingAndGlyphs" style="dominant-baseline:ideographic;text-transform:none;font-family:Roboto;letter-spacing:.01px;font-weight:500;white-space:pre;font-size:16px;fill:#410e0b">A</text></g></g></g></g></g></g></g></g><g clip-path="url(#j)"><clipPath/><g><g clip-path="url(#k)"><clipPath/><g><g><g><g><text x="294.14" y="199.49" dominant-baseline="ideographic" textLength="41.72" lengthAdjust="spacingAndGlyphs" class="a">8:22 AM</text></g></g></g><g><g><g><text x="72" y="224.82" dominant-baseline="ideographic" textLength="101.41" lengthAdjust="spacingAndGlyphs" class="b">Movie marathon</text></g><g><text x="72" y="242.12" dominant-baseline="ideographic" textLength="205.41" lengthAdjust="spacingAndGlyphs" class="b">We have to watch one of these ...</text></g></g><g><g><text x="72" y="201.56" dominant-baseline="ideographic" textLength="63" lengthAdjust="spacingAndGlyphs" class="c">Headline</text></g></g></g><g clip-path="url(#l)"><clipPath><rect rx="20" x="16" y="176.99" width="40" height="40" fill="#ffd8e4"/></clipPath><g><rect rx="20" x="16" y="176.99" width="40" height="40" fill="#ffd8e4"/></g><g><g><g><text x="30.5" y="205.99" textLength="10.66" lengthAdjust="spacingAndGlyphs" style="dominant-baseline:ideographic;text-transform:none;font-family:Roboto;letter-spacing:.01px;font-weight:500;white-space:pre;font-size:16px;fill:#370b1e">A</text></g></g></g></g></g></g></g></g><g clip-path="url(#m)"><clipPath/><g><g clip-path="url(#n)"><clipPath/><g><g><g><g><text x="294.14" y="111.5" dominant-baseline="ideographic" textLength="41.72" lengthAdjust="spacingAndGlyphs" class="a">8:22 AM</text></g></g></g><g><g><g><text x="72" y="136.83" dominant-baseline="ideographic" textLength="82.27" lengthAdjust="spacingAndGlyphs" class="b">Adopt a pup?</text></g><g><text x="72" y="154.13" dominant-baseline="ideographic" textLength="215.49" lengthAdjust="spacingAndGlyphs" class="b">The pet adoption organization is ...</text></g></g><g><g><text x="72" y="113.57" dominant-baseline="ideographic" textLength="63" lengthAdjust="spacingAndGlyphs" class="c">Headline</text></g></g></g><g clip-path="url(#o)"><clipPath><rect rx="20" x="16" y="89" width="40" height="40" fill="#eaddff"/></clipPath><g><rect rx="20" x="16" y="89" width="40" height="40" fill="#eaddff"/></g><g><g><g><text x="30.5" y="118" textLength="10.66" lengthAdjust="spacingAndGlyphs" style="dominant-baseline:ideographic;text-transform:none;font-family:Roboto;letter-spacing:.01px;font-weight:500;white-space:pre;font-size:16px;fill:#21005e">A</text></g></g></g></g></g></g></g></g></g></g><g><clipPath clip-path="url(#p)"/><g><g><use href="#a" clip-path="url(#q)"/></g></g></g><g clip-path="url(#r)"><clipPath/><g><g><g><g><path d="m339.9,44.98-6.58-6.58c-.5.43-1.08.77-1.75,1.01s-1.38.36-2.13.36c-1.8,0-3.33-.63-4.58-1.88S323,35.14,323,33.38s.63-3.28,1.88-4.53,2.76-1.88,4.54-1.88,3.28.63,4.53,1.88c1.24,1.25,1.86,2.76,1.86,4.53,0,.71-.12,1.4-.35,2.07s-.58,1.29-1.05,1.88l6.6,6.55-1.1,1.1zm-10.48-6.7c1.35,0,2.51-.48,3.45-1.44.95-.96,1.42-2.11,1.42-3.46s-.47-2.5-1.42-3.46-2.1-1.44-3.45-1.44c-1.37,0-2.53.48-3.49,1.44s-1.44,2.11-1.44,3.46.48,2.5,1.44,3.46,2.12,1.44,3.49,1.44z" fill="#49454e"/></g></g></g><g clip-path="url(#s)"><clipPath/><g><g><g><text x="56" y="44.9" dominant-baseline="ideographic" textLength="20.92" lengthAdjust="spacingAndGlyphs" class="c">Eli|</text></g></g></g></g><g><g><g><path d="m28,44-8-8,8-8,1.05,1.05-6.2,6.2H36v1.5H22.85l6.2,6.2L28,44z" fill="#1c1b1f"/></g></g></g></g></g></g></g></g></g></g></g></svg>
