<svg xmlns="http://www.w3.org/2000/svg" fill="none" viewBox="0,0,48,48"><defs><clipPath id="a"><path d="m4,4v40h40V4z"/></clipPath></defs><g><g><rect rx="20" x="4" y="4" width="40" height="40" opacity=".12" fill="#1c1b1f"/></g><g clip-path="url(#a)"><clipPath/><g><g opacity=".38"><g><path d="m21.7,34-.5-3.15c-.32-.12-.65-.28-1-.48s-.66-.41-.93-.63l-2.95,1.35L14,27l2.7-1.98c-.03-.15-.05-.32-.06-.51s-.01-.36-.01-.51,0-.32.01-.51.03-.36.06-.51L14,21l2.33-4.1,2.95,1.35c.27-.22.58-.43.93-.63s.68-.35,1-.45L21.7,14h4.6l.5,3.15c.32.12.65.27,1.01.46s.66.4.91.64l2.95-1.35L34,21l-2.7,1.93c.03.17.05.35.06.54s.01.37.01.54,0,.34-.01.53c-.01.18-.03.36-.06.53L34,27l-2.33,4.1-2.95-1.35c-.27.22-.57.43-.91.64s-.68.36-1.01.46L26.3,34h-4.6zm2.3-6.75c.9,0,1.67-.32,2.3-.95s.95-1.4.95-2.3-.32-1.67-.95-2.3-1.4-.95-2.3-.95-1.67.32-2.3.95-.95,1.4-.95,2.3.32,1.67.95,2.3,1.4.95,2.3.95zm0-1.5c-.48,0-.9-.17-1.24-.51s-.51-.76-.51-1.24.17-.9.51-1.24.75-.51,1.24-.51.9.17,1.24.51.51.75.51,1.24-.17.9-.51,1.24-.76.51-1.24.51zm-1.1,6.75h2.2l.35-2.8c.55-.13,1.07-.34,1.56-.63.49-.28.94-.63,1.34-1.03L31,29.2l1-1.8-2.35-1.73c.07-.28.12-.56.16-.84s.06-.56.06-.84-.02-.56-.05-.84-.09-.56-.18-.84L32,20.6l-1-1.8-2.65,1.15c-.38-.43-.82-.8-1.3-1.09s-1.02-.48-1.6-.56l-.35-2.8h-2.2l-.35,2.8c-.57.12-1.1.32-1.59.6s-.93.63-1.31,1.05L17,18.8l-1,1.8,2.35,1.73c-.07.28-.12.56-.16.84s-.06.55-.06.84.02.56.06.84.1.55.16.84L16,27.4l1,1.8,2.65-1.15c.4.4.85.74,1.34,1.03.49.28,1.01.49,1.56.63l.35,2.8z" fill="#1c1b1f"/></g></g></g></g></g></svg>
