<svg xmlns="http://www.w3.org/2000/svg" fill="none" viewBox="0,0,280,190"><style>.a{fill:#000;font-family:Roboto;font-size:12px;font-weight:400;letter-spacing:.04px;text-transform:none;white-space:pre}</style><defs><clipPath id="a"><path d="m0,0h280v190H0z"/></clipPath><clipPath id="b"><rect rx="12" width="280" height="190"/></clipPath><clipPath id="c"><path d="m0,0v70h280V0z" fill="#c4c7c5"/></clipPath></defs><g clip-path="url(#a)"><clipPath/><g><g><rect rx="12" width="280" height="190" fill="#e7e0ec"/></g><g clip-path="url(#b)"><clipPath/><g><g><g><g><text x="16" y="153" dominant-baseline="ideographic" textLength="230.36" lengthAdjust="spacingAndGlyphs" class="a">Explain more.about this topic shown in the </text></g><g><text x="16" y="167.9" dominant-baseline="ideographic" textLength="84.85" lengthAdjust="spacingAndGlyphs" class="a">medium display</text></g></g><g><g><text x="16" y="130.5" textLength="54.95" lengthAdjust="spacingAndGlyphs" style="dominant-baseline:ideographic;text-transform:none;font-family:Roboto;letter-spacing:.01px;font-weight:500;white-space:pre;font-size:14px;fill:#000">Subhead</text></g></g><g><g><text x="16" y="105" textLength="63.38" lengthAdjust="spacingAndGlyphs" style="dominant-baseline:ideographic;text-transform:none;font-family:Roboto;letter-spacing:.01px;font-weight:500;white-space:pre;font-size:16px;fill:#000">Headline</text></g></g></g><g clip-path="url(#c)"><clipPath><path d="m0,0v70h280V0z" fill="#c4c7c5"/></clipPath><g><path d="m0,0v70h280V0z" fill="#c4c7c5"/></g><g><g fill="#000"><path d="m123,51c-.8,0-1.5-.3-2.1-.9s-.9-1.3-.9-2.1V22c0-.8.3-1.5.9-2.1s1.3-.9,2.1-.9h34c.8,0,1.5.3,2.1.9s.9,1.3.9,2.1v26c0,.8-.3,1.5-.9,2.1s-1.3.9-2.1.9h-34zm0-3h34V22h-34v26zm4.85-5h24.35l-7.35-9.95-6.55,8.7-4.6-6.45-5.85,7.7zM123,48V22,48z"/></g></g></g></g></g></g></g></svg>
