<svg xmlns="http://www.w3.org/2000/svg" fill="none" viewBox="0,0,280,190"><style>.a{fill:#000;font-family:Roboto;font-size:12px;font-weight:400;letter-spacing:.04px;text-transform:none;white-space:pre}</style><defs><filter id="a" x="-.1" y="-.14" width="1.19" height="1.35" color-interpolation-filters="sRGB"><feFlood flood-opacity="0" result="BackgroundImageFix"/><feColorMatrix in="SourceAlpha" values="0,0,0,0,0,0,0,0,0,0,0,0,0,0,0,0,0,0,127,0"/><feOffset dx="0" dy="1"/><feGaussianBlur stdDeviation=".5"/><feColorMatrix values="0,0,0,0,0,0,0,0,0,0,0,0,0,0,0,0,0,0,.16,0"/><feBlend in2="BackgroundImageFix" result="filter_c63e0514-bfee-80ac-8002-34c9be614b80"/><feColorMatrix in="SourceAlpha" values="0,0,0,0,0,0,0,0,0,0,0,0,0,0,0,0,0,0,127,0"/><feOffset dx="0"/><feGaussianBlur stdDeviation="1"/><feColorMatrix values="0,0,0,0,0,0,0,0,0,0,0,0,0,0,0,0,0,0,.09,0"/><feBlend in2="filter_c63e0514-bfee-80ac-8002-34c9be614b80" result="filter_c63e0514-bfee-80ac-8002-34c9c2e55fcb"/><feColorMatrix in="SourceAlpha" values="0,0,0,0,0,0,0,0,0,0,0,0,0,0,0,0,0,0,127,0"/><feOffset dx="0" dy="4"/><feGaussianBlur stdDeviation="2"/><feColorMatrix values="0,0,0,0,0,0,0,0,0,0,0,0,0,0,0,0,0,0,.05,0"/><feBlend in2="filter_c63e0514-bfee-80ac-8002-34c9c2e55fcb" result="filter_c63e0514-bfee-80ac-8002-34c9c373a3da"/><feBlend in="SourceGraphic" in2="filter_c63e0514-bfee-80ac-8002-34c9c373a3da" result="shape"/></filter><clipPath id="b"><rect rx="12" width="280" height="190"/></clipPath><clipPath id="c"><rect rx="12" width="280" height="190"/></clipPath><clipPath id="d"><path d="m0,0v70h280V0z" fill="#c4c7c5"/></clipPath></defs><g><g clip-path="url(#b)" filter="url(#a)"><clipPath/><g><g><path d="m0,0h280v190H0z" fill="#fffbfe"/></g><g><path d="m0,0h280v190H0z" opacity="5%" fill="#6750a4"/></g></g></g><g clip-path="url(#c)"><clipPath/><g><g><g><g><text x="16" y="153" dominant-baseline="ideographic" textLength="230.36" lengthAdjust="spacingAndGlyphs" class="a">Explain more.about this topic shown in the </text></g><g><text x="16" y="167.9" dominant-baseline="ideographic" textLength="84.85" lengthAdjust="spacingAndGlyphs" class="a">medium display</text></g></g><g><g><text x="16" y="130.5" textLength="54.95" lengthAdjust="spacingAndGlyphs" style="dominant-baseline:ideographic;text-transform:none;font-family:Roboto;letter-spacing:.01px;font-weight:500;white-space:pre;font-size:14px;fill:#000">Subhead</text></g></g><g><g><text x="16" y="105" textLength="63.38" lengthAdjust="spacingAndGlyphs" style="dominant-baseline:ideographic;text-transform:none;font-family:Roboto;letter-spacing:.01px;font-weight:500;white-space:pre;font-size:16px;fill:#000">Headline</text></g></g></g><g clip-path="url(#d)"><clipPath><path d="m0,0v70h280V0z" fill="#c4c7c5"/></clipPath><g><path d="m0,0v70h280V0z" fill="#c4c7c5"/></g><g><g fill="#000"><path d="m123,51c-.8,0-1.5-.3-2.1-.9s-.9-1.3-.9-2.1V22c0-.8.3-1.5.9-2.1s1.3-.9,2.1-.9h34c.8,0,1.5.3,2.1.9s.9,1.3.9,2.1v26c0,.8-.3,1.5-.9,2.1s-1.3.9-2.1.9h-34zm0-3h34V22h-34v26zm4.85-5h24.35l-7.35-9.95-6.55,8.7-4.6-6.45-5.85,7.7zM123,48V22,48z"/></g></g></g></g></g></g></svg>
