<svg xmlns="http://www.w3.org/2000/svg" fill="none" viewBox="0,0,56,56"><defs><clipPath id="b"><path d="m0,0h56v56H0z" opacity=".38" fill="#e7e0ec"/></clipPath><clipPath id="c"><path d="m4,26.67h48v22H4z"/></clipPath><clipPath id="d"><path d="m4,4h48v16.67H4z"/></clipPath><clipPath id="e"><use href="#a"/></clipPath><path id="a" d="m0,0h56v56H0z" opacity=".38" fill="none" stroke-width="4" stroke="#c4c7c5"/></defs><g clip-path="url(#b)"><clipPath><path d="m0,0h56v56H0z" opacity=".38" fill="#e7e0ec"/></clipPath><g><path d="m0,0h56v56H0z" opacity=".38" fill="#e7e0ec"/></g><g opacity=".38"><g clip-path="url(#c)"><clipPath/><g><g><circle cx="42" cy="36.67" r="10" opacity=".38" fill="#49454e"/></g><g opacity=".38"><g><path d="m8.13,45.92c-.37,0-.69-.14-.96-.41s-.41-.6-.41-.96V30.8c0-.37.14-.69.41-.96s.6-.41.96-.41h13.75c.37,0,.69.14.96.41.28.28.41.6.41.96v13.75c0,.37-.14.69-.41.96-.27.28-.6.41-.96.41H8.13zm0-1.38h13.75V30.79H8.13v13.75zm1.28-2.22h11.21l-3.37-4.49-3.03,3.92-2.13-2.91-2.68,3.48zm-1.28,2.22V30.79,44.54z" fill="#49454e"/></g></g></g></g><g clip-path="url(#d)"><clipPath/><g><g><path d="m38,20.67H18L28,4,38,20.67z" opacity=".38" fill="#49454e"/></g></g></g></g></g><g><g><use href="#a" clip-path="url(#e)"/></g></g></svg>
