<svg xmlns="http://www.w3.org/2000/svg" fill="none" viewBox="0,0,157,32"><defs><clipPath id="b"><path d="m0,0h157v32H0z"/></clipPath><clipPath id="c"><use href="#a"/></clipPath><rect rx="8" width="157" height="32" id="a" fill="none" stroke-width="2" stroke="#79747e"/><clipPath id="d"><path d="m0,0h157v32H0z"/></clipPath></defs><g clip-path="url(#b)"><clipPath/><g><g><g><rect rx="8" width="157" height="32" fill="#fffbfe"/></g><g><g><use href="#a" clip-path="url(#c)"/></g></g><g clip-path="url(#d)"><clipPath/><g><g><path d="m135.67,21.12-.79-.79,4.33-4.33-4.33-4.33.79-.79,4.33,4.33,4.33-4.33.79.79L140.79,16l4.33,4.33-.79.79L140,16.79l-4.33,4.33z" fill="#49454e"/></g><g><g><text x="34" y="24" textLength="89.41" lengthAdjust="spacingAndGlyphs" style="dominant-baseline:ideographic;text-transform:none;font-family:Roboto;letter-spacing:.01px;font-weight:500;white-space:pre;font-size:14px;fill:#49454e">Input Enalbled</text></g></g><g><path d="m13.25,17.28c-.35,0-.65-.13-.9-.38s-.38-.55-.38-.9.13-.65.38-.9.55-.38.9-.38.65.13.9.38.38.55.38.9-.13.65-.38.9-.55.38-.9.38zm0,3.23c-1.25,0-2.31-.44-3.19-1.31S8.75,17.25,8.75,16s.44-2.31,1.31-3.19S12,11.5,13.25,11.5c.9,0,1.69.21,2.36.64.68.43,1.21,1.07,1.59,1.93h6.68L26,16.19l-3.13,2.87-1.65-1.2-1.65,1.2-1.41-1.13h-.96c-.31.75-.8,1.37-1.47,1.85s-1.5.72-2.48.72zm0-1.13c.73,0,1.39-.24,2.01-.72.61-.48,1.01-1.1,1.18-1.85h2.14l1.01.84,1.65-1.18,1.54,1.16,1.59-1.48-.96-.96h-6.98c-.15-.7-.53-1.3-1.13-1.81s-1.29-.76-2.06-.76c-.94,0-1.73.33-2.39.98-.66.66-.98,1.45-.98,2.39s.33,1.73.98,2.39c.66.66,1.45.98,2.39.98z" fill="#6750a4"/></g></g></g></g></g></g></svg>
