<svg xmlns="http://www.w3.org/2000/svg" fill="none" viewBox="0,0,390,112"><defs><clipPath id="a"><path d="m16,20h358v24H16z"/></clipPath><clipPath id="b"><path d="m254,20h120v24H254z"/></clipPath></defs><g><g><path d="m0,0v112h390V0z" fill="#fffbfe"/></g><g><g><g><text x="16" y="86.7" textLength="175.14" lengthAdjust="spacingAndGlyphs" style="dominant-baseline:ideographic;text-transform:none;font-family:Roboto;font-weight:400;white-space:pre;font-size:24px;fill:#1c1b1f">Medium Top Bar</text></g></g><g clip-path="url(#a)"><clipPath/><g><g clip-path="url(#b)"><clipPath/><g><g><path d="m362,40c-.33,0-.61-.12-.85-.35-.23-.24-.35-.52-.35-.85s.12-.61.35-.85c.24-.23.52-.35.85-.35s.61.12.85.35c.23.24.35.52.35.85s-.12.61-.35.85c-.24.23-.52.35-.85.35zm0-6.8c-.33,0-.61-.12-.85-.35-.23-.24-.35-.52-.35-.85s.12-.61.35-.85c.24-.23.52-.35.85-.35s.61.12.85.35c.23.24.35.52.35.85s-.12.61-.35.85c-.24.23-.52.35-.85.35zm0-6.8c-.33,0-.61-.12-.85-.35-.23-.24-.35-.52-.35-.85s.12-.61.35-.85c.24-.23.52-.35.85-.35s.61.12.85.35c.23.24.35.52.35.85s-.12.61-.35.85c-.24.23-.52.35-.85.35z" fill="#49454e"/></g><g><path d="m310.83,36.25c-.68,0-1.26-.23-1.73-.7s-.7-1.04-.7-1.73.23-1.26.7-1.73,1.04-.7,1.73-.7,1.26.23,1.73.7.7,1.04.7,1.73-.23,1.26-.7,1.73-1.04.7-1.73.7zM306.5,42c-.4,0-.75-.15-1.05-.45s-.45-.65-.45-1.05V25c0-.4.15-.75.45-1.05s.65-.45,1.05-.45h1.63V22h1.63v1.5h8.5V22h1.63v1.5h1.63c.4,0,.75.15,1.05.45s.45.65.45,1.05v15.5c0,.4-.15.75-.45,1.05s-.65.45-1.05.45zm0-1.5h15V29.75h-15V40.5z" fill="#49454e"/></g><g><path d="m265.5,42c-1.52,0-2.81-.52-3.89-1.56-1.07-1.04-1.61-2.32-1.61-3.84V25.85c0-1.07.38-1.98,1.14-2.73s1.67-1.13,2.74-1.13c1.08,0,2,.38,2.75,1.13s1.13,1.67,1.13,2.75v9.85c0,.63-.22,1.17-.65,1.61s-.97.66-1.6.66-1.17-.24-1.6-.71-.65-1.04-.65-1.69v-9.8h1v9.88c0,.37.12.68.36.94s.54.39.89.39.65-.13.89-.38.36-.55.36-.9v-9.87c0-.8-.28-1.48-.84-2.03s-1.24-.83-2.04-.83-1.48.28-2.04.83-.84,1.23-.84,2.03v10.8c0,1.22.44,2.25,1.33,3.09.88.84,1.94,1.26,3.18,1.26,1.25,0,2.31-.43,3.19-1.28s1.3-1.89,1.3-3.12V25.8h1v10.78c0,1.52-.54,2.8-1.61,3.85S267.02,42,265.5,42z" fill="#49454e"/></g></g></g><g><path d="m28,40-8-8,8-8,1.05,1.05-6.2,6.2H36v1.5H22.85l6.2,6.2L28,40z" fill="#1c1b1f"/></g></g></g></g></g></svg>
