<svg xmlns="http://www.w3.org/2000/svg" fill="none" viewBox="0,0,360,56"><defs><clipPath id="a"><path d="m0,0v56h360V0z"/></clipPath><clipPath id="b"><path d="m0,0v56h360V0z"/></clipPath><clipPath id="c"><rect rx="28" width="360" height="56"/></clipPath><clipPath id="d"><path d="m0,0v56h360V0z"/></clipPath><clipPath id="e"><path d="m280,0v56h64V0z"/></clipPath></defs><g clip-path="url(#a)"><clipPath/><g><g clip-path="url(#b)"><clipPath/><g><g clip-path="url(#c)"><clipPath/><g><g><path d="m0,0v56h360V0z" fill="#fffbfe"/></g><g><path d="m0,0v56h360V0z" opacity=".11" fill="#6750a4"/></g></g></g><g clip-path="url(#d)"><clipPath/><g><g clip-path="url(#e)"><clipPath/><g><g><g><g fill="#000"><path d="m332,36c-.33,0-.61-.12-.85-.35-.23-.24-.35-.52-.35-.85s.12-.61.35-.85c.24-.23.52-.35.85-.35s.61.12.85.35c.23.24.35.52.35.85s-.12.61-.35.85c-.24.23-.52.35-.85.35zm0-6.8c-.33,0-.61-.12-.85-.35-.23-.24-.35-.52-.35-.85s.12-.61.35-.85c.24-.23.52-.35.85-.35s.61.12.85.35c.23.24.35.52.35.85s-.12.61-.35.85c-.24.23-.52.35-.85.35zm0-6.8c-.33,0-.61-.12-.85-.35-.23-.24-.35-.52-.35-.85s.12-.61.35-.85c.24-.23.52-.35.85-.35s.61.12.85.35c.23.24.35.52.35.85s-.12.61-.35.85c-.24.23-.52.35-.85.35z"/></g></g></g><g><g><g><path d="m292,29.43c-.72,0-1.32-.26-1.8-.77s-.73-1.14-.73-1.88V20.5c0-.69.25-1.29.74-1.77S291.3,18,292,18s1.3.24,1.79.73.74,1.08.74,1.77v6.28c0,.74-.24,1.36-.73,1.88s-1.08.77-1.8.77zm-.75,7.57v-3.4c-1.77-.18-3.25-.93-4.45-2.23s-1.8-2.83-1.8-4.6h1.5c0,1.52.54,2.79,1.61,3.83,1.07,1.03,2.37,1.55,3.89,1.55s2.82-.52,3.89-1.55,1.61-2.31,1.61-3.83h1.5c0,1.77-.6,3.3-1.8,4.6s-2.68,2.04-4.45,2.23V37h-1.5z" fill="#49454e"/></g></g></g></g></g><g><g><text x="56" y="36.9" textLength="78.11" lengthAdjust="spacingAndGlyphs" style="dominant-baseline:ideographic;text-transform:none;font-family:Roboto;letter-spacing:.04px;font-weight:400;white-space:pre;font-size:16px;fill:#49454e">Hinted text</text></g></g><g><g><g fill="#000"><path d="m19,34v-1.5h18V34H19zm0-5.25v-1.5h18v1.5H19zm0-5.25V22h18v1.5H19z"/></g></g></g></g></g></g></g></g></g></svg>
