<svg xmlns="http://www.w3.org/2000/svg" fill="none" viewBox="0,0,360,56"><defs><clipPath id="a"><path d="m0,0v56h360V0z"/></clipPath><clipPath id="b"><path d="m0,0v56h360V0z"/></clipPath><clipPath id="c"><rect rx="28" width="360" height="56"/></clipPath><clipPath id="d"><path d="m0,0v56h360V0z"/></clipPath><clipPath id="e"><path d="m314,0h30v56h-30z"/></clipPath><clipPath id="f"><rect rx="15" x="314" y="13" width="30" height="30"/></clipPath><pattern patternUnits="userSpaceOnUse" x="314" y="13" height="30" width="30" id="g"/></defs><g clip-path="url(#a)"><clipPath/><g><g clip-path="url(#b)"><clipPath/><g><g clip-path="url(#c)"><clipPath/><g><g><path d="m0,0v56h360V0z" fill="#fffbfe"/></g><g><path d="m0,0v56h360V0z" opacity=".11" fill="#6750a4"/></g></g></g><g clip-path="url(#d)"><clipPath/><g><g clip-path="url(#e)"><clipPath/><g><g clip-path="url(#f)"><clipPath/><g><g><path fill="url(#g)" d="m314,13h30v30h-30z"/></g></g></g></g></g><g><g><text x="56" y="36.9" textLength="78.11" lengthAdjust="spacingAndGlyphs" style="dominant-baseline:ideographic;text-transform:none;font-family:Roboto;letter-spacing:.04px;font-weight:400;white-space:pre;font-size:16px;fill:#49454e">Hinted text</text></g></g><g><g><g fill="#000"><path d="m19,34v-1.5h18V34H19zm0-5.25v-1.5h18v1.5H19zm0-5.25V22h18v1.5H19z"/></g></g></g></g></g></g></g></g></g></svg>
