<svg xmlns="http://www.w3.org/2000/svg" fill="none" viewBox="0,0,256,480"><defs><clipPath id="c"><path d="m0,0h256v480H0z"/></clipPath><clipPath id="d"><path d="m0,0h256v480H0z"/></clipPath><clipPath id="e"><rect rx="28" width="256" height="480"/></clipPath><clipPath id="f"><path d="m0,0h256v480H0z"/></clipPath><mask id="g" x="115.59" y="414.59" width="91.83" height="42.83" maskUnits="userSpaceOnUse"><use href="#a" fill="none" stroke="#fff" stroke-width="2"/><use href="#a" fill="#000"/></mask><rect rx="20" x="117" y="416" width="89" height="40" id="a"/><clipPath id="h"><path d="m117,416h89v40h-89z"/></clipPath><clipPath id="i"><path d="m16,416h89v40H16z"/></clipPath><clipPath id="j"><path d="m16,416h89v40H16z"/></clipPath><clipPath id="k"><path d="m0,399v1h256v-1z" opacity=".4"/></clipPath><clipPath id="l"><use href="#b"/></clipPath><path id="b" d="m0,399v1h256v-1z" opacity=".4" fill="none" stroke-width="2" stroke="#c4c7c5"/><clipPath id="m"><path d="m0,64h256v319H0z"/></clipPath><clipPath id="n"><path d="m0,24v24h256V24z"/></clipPath></defs><g clip-path="url(#c)"><clipPath/><g><g clip-path="url(#d)"><clipPath/><g><g clip-path="url(#e)"><clipPath/><g><g><path d="m0,0h256v480H0z" fill="#fffbfe"/></g><g><path d="m0,0h256v480H0z" opacity="5%" fill="#6750a4"/></g></g></g><g clip-path="url(#f)"><clipPath/><g><g><g><g><g><g><use href="#a" mask="url(#g)" stroke-width="2" stroke="#79747e" fill="none"/><use href="#a" fill="none"/></g></g><g clip-path="url(#h)"><clipPath/><g><g><g><text x="141" y="443.85" textLength="40.7" lengthAdjust="spacingAndGlyphs" style="dominant-baseline:ideographic;text-transform:none;font-family:Roboto;letter-spacing:.01px;font-weight:500;white-space:pre;font-size:14px;fill:#6750a4">Action</text></g></g></g></g></g></g><g><g clip-path="url(#i)"><clipPath/><g><g><rect rx="20" x="16" y="416" width="89" height="40" fill="#6750a4"/></g><g clip-path="url(#j)"><clipPath/><g><g><g><text x="40" y="443.85" textLength="40.7" lengthAdjust="spacingAndGlyphs" style="dominant-baseline:ideographic;text-transform:none;font-family:Roboto;letter-spacing:.01px;font-weight:500;white-space:pre;font-size:14px;fill:#fff">Action</text></g></g></g></g></g></g></g></g><g><clipPath clip-path="url(#k)"/><g><g><use href="#b" clip-path="url(#l)"/></g></g></g><clipPath clip-path="url(#m)"/><g clip-path="url(#n)"><clipPath/><g><g><g><g><path d="m214.23,42.83-1.05-1.05,5.77-5.78-5.78-5.78,1.05-1.05,5.78,5.78,5.78-5.78,1.05,1.05L221.05,36l5.78,5.78-1.05,1.05L220,37.05l-5.78,5.78z" fill="#49454e"/></g></g></g><g><g><text x="52" y="43.85" textLength="97.88" lengthAdjust="spacingAndGlyphs" style="dominant-baseline:ideographic;text-transform:none;font-family:Roboto;letter-spacing:.01px;font-weight:500;white-space:pre;font-size:14px;fill:#49454e">Side Sheet Title</text></g></g><g><g><g><path d="m28,44-8-8,8-8,1.05,1.05-6.2,6.2H36v1.5H22.85l6.2,6.2L28,44z" fill="#49454e"/></g></g></g></g></g></g></g></g></g></g></g></svg>
