<svg xmlns="http://www.w3.org/2000/svg" fill="none" viewBox="0,0,80,720"><defs><clipPath id="a"><path d="m0,0h80v720H0z"/></clipPath><clipPath id="b"><path d="m12,540h56v56H12z"/></clipPath><clipPath id="c"><path d="m12,472h56v56H12z"/></clipPath><clipPath id="d"><path d="m12,148h56v260H12z"/></clipPath><clipPath id="e"><path d="m12,352v56h56v-56z"/></clipPath><clipPath id="f"><path d="m12,284v56h56v-56z"/></clipPath><clipPath id="g"><rect rx="16" x="12" y="216" width="56" height="32" fill="#e8def8"/></clipPath><clipPath id="h"><path d="m12,216v56h56v-56z"/></clipPath><clipPath id="i"><path d="m12,148h56v56H12z"/></clipPath><clipPath id="j"><rect rx="16" x="12" y="20" width="56" height="56" fill="#ffd8e4"/></clipPath></defs><g clip-path="url(#a)"><clipPath/><g><g><path d="m0,0h80v720H0z" fill="#fffbfe"/></g><g><g><g clip-path="url(#b)"><clipPath/><g><g><path d="m32.5,577c-.4,0-.75-.15-1.05-.45s-.45-.65-.45-1.05v-15c0-.4.15-.75.45-1.05s.65-.45,1.05-.45h7.28v1.5H32.5v15h7.28v1.5H32.5zm12.15-4.63-1.08-1.08,2.55-2.55h-8.75v-1.5h8.7l-2.55-2.55,1.08-1.08,4.4,4.4-4.35,4.35z" fill="#49454e"/></g></g></g><g clip-path="url(#c)"><clipPath/><g><g><path d="m37.7,510-.5-3.15c-.32-.12-.65-.28-1-.48s-.66-.41-.93-.63l-2.95,1.35L30,503l2.7-1.98c-.03-.15-.05-.32-.06-.51s-.01-.36-.01-.51,0-.32.01-.51.03-.36.06-.51L30,497l2.33-4.1,2.95,1.35c.27-.22.58-.43.93-.63s.68-.35,1-.45l.5-3.18h4.6l.5,3.15c.32.12.65.27,1.01.46s.66.41.91.64l2.95-1.35L50,497l-2.7,1.93c.03.17.05.35.06.54s.01.37.01.54,0,.34-.01.53c-.01.18-.03.36-.06.53L50,503l-2.33,4.1-2.95-1.35c-.27.22-.57.43-.91.64s-.68.36-1.01.46l-.5,3.15h-4.6zm2.3-6.75c.9,0,1.67-.32,2.3-.95s.95-1.4.95-2.3-.32-1.67-.95-2.3-1.4-.95-2.3-.95-1.67.32-2.3.95-.95,1.4-.95,2.3.32,1.67.95,2.3,1.4.95,2.3.95zm0-1.5c-.48,0-.9-.17-1.24-.51s-.51-.75-.51-1.24.17-.9.51-1.24.76-.51,1.24-.51.9.17,1.24.51.51.76.51,1.24-.17.9-.51,1.24-.75.51-1.24.51zm-1.1,6.75h2.2l.35-2.8c.55-.13,1.07-.34,1.56-.63.49-.28.94-.63,1.34-1.03L47,505.2l1-1.8-2.35-1.73c.07-.28.12-.56.16-.84s.06-.55.06-.84-.02-.56-.05-.84-.09-.55-.18-.84L48,496.6l-1-1.8-2.65,1.15c-.38-.43-.82-.8-1.3-1.09s-1.02-.48-1.6-.56l-.35-2.8h-2.2l-.35,2.8c-.57.12-1.1.32-1.59.6s-.93.63-1.31,1.05L33,494.8l-1,1.8,2.35,1.73c-.07.28-.12.56-.16.84s-.06.56-.06.84.02.56.06.84.1.56.16.84L32,503.4l1,1.8,2.65-1.15c.4.4.85.74,1.34,1.03.49.28,1.01.49,1.56.63l.35,2.8z" fill="#49454e"/></g></g></g></g><g clip-path="url(#d)"><clipPath/><g><g clip-path="url(#e)"><clipPath/><g><g><g><path d="m37.83,387.88,6.97-8.38h-4.5l.9-7.15-6.33,9.15h3.85l-.9,6.38zM36,390l1-7h-5l9-13h2l-1,8h6l-10,12h-2z" fill="#49454e"/></g><g><circle cx="49" cy="371" r="3" fill="#b3261e"/></g></g></g></g><g clip-path="url(#f)"><clipPath/><g><g><path d="m40,320.98-1.03-.93c-1.76-1.62-3.22-3.02-4.37-4.19s-2.07-2.22-2.75-3.15-1.16-1.76-1.44-2.51-.41-1.51-.41-2.27c0-1.5.5-2.76,1.51-3.76,1.01-1.01,2.26-1.51,3.74-1.51.95,0,1.83.23,2.64.68s1.51,1.1,2.11,1.95c.7-.9,1.44-1.56,2.23-1.99s1.63-.64,2.53-.64c1.48,0,2.73.5,3.74,1.51s1.51,2.26,1.51,3.76c0,.77-.14,1.53-.41,2.28s-.75,1.59-1.44,2.51-1.6,1.98-2.75,3.15-2.61,2.57-4.37,4.19l-1.03.93zm0-1.98c1.69-1.55,3.08-2.88,4.17-3.99s1.96-2.08,2.6-2.91,1.09-1.58,1.35-2.23.39-1.3.39-1.94c0-1.1-.35-2.01-1.05-2.72s-1.6-1.06-2.69-1.06c-.86,0-1.65.26-2.39.79s-1.33,1.26-1.78,2.21h-1.23c-.43-.93-1.02-1.67-1.75-2.2s-1.53-.8-2.39-.8c-1.1,0-1.99.35-2.69,1.06s-1.05,1.62-1.05,2.72c0,.65.13,1.3.39,1.95.26.66.71,1.41,1.35,2.25s1.51,1.81,2.61,2.91,2.48,2.42,4.15,3.95z" fill="#49454e"/></g></g></g><g clip-path="url(#g)"><clipPath><rect rx="16" x="12" y="216" width="56" height="32" fill="#e8def8"/></clipPath><g><rect rx="16" x="12" y="216" width="56" height="32" fill="#e8def8"/></g></g><g clip-path="url(#h)"><clipPath/><g><g><g><text x="15.59" y="266.42" textLength="48.82" lengthAdjust="spacingAndGlyphs" style="dominant-baseline:ideographic;text-transform:none;font-family:Roboto;letter-spacing:.05px;font-weight:500;white-space:pre;font-size:12px;fill:#1c1b1f">Products</text></g></g><g><path d="m33.79,240.32c-.47.01-.86-.14-1.18-.45s-.49-.7-.5-1.17.14-.86.45-1.18.7-.49,1.17-.5.86.14,1.18.45.49.7.5,1.17-.14.86-.46,1.18-.7.49-1.17.5zm6.35-.11c-.47.01-.86-.14-1.18-.45s-.49-.7-.5-1.17.14-.86.45-1.18.7-.49,1.17-.5.86.14,1.18.45.49.7.5,1.17-.14.86-.46,1.18-.7.49-1.17.5zM46.49,240.1c-.47.01-.86-.14-1.18-.46-.32-.31-.49-.7-.5-1.17s.14-.86.46-1.18c.31-.32.7-.49,1.17-.5s.86.14,1.18.45.49.7.5,1.17-.14.86-.46,1.18-.7.49-1.17.5zm-12.81-6.13c-.47.01-.86-.14-1.18-.45s-.49-.7-.5-1.17.14-.86.46-1.18.7-.49,1.17-.5.86.14,1.18.45.49.7.5,1.17-.14.86-.46,1.18-.7.49-1.17.5zm6.35-.11c-.47.01-.86-.14-1.18-.45s-.49-.7-.5-1.17.14-.86.46-1.18.7-.49,1.17-.5.86.14,1.18.45.49.7.5,1.17-.14.86-.46,1.18-.7.49-1.17.5zM46.38,233.75c-.47.01-.86-.14-1.18-.46s-.49-.7-.5-1.17.14-.86.46-1.18c.31-.32.7-.49,1.17-.5s.86.14,1.18.45.49.7.5,1.17-.14.86-.46,1.18-.7.49-1.17.5zm-12.81-6.13c-.47.01-.86-.14-1.18-.45s-.49-.7-.5-1.17.14-.86.46-1.18.7-.49,1.17-.5.86.14,1.18.45.49.7.5,1.17-.14.86-.46,1.18c-.31.32-.7.49-1.17.5zm6.35-.11c-.47.01-.86-.14-1.18-.45s-.49-.7-.5-1.17.14-.86.46-1.18.7-.49,1.17-.5.86.14,1.18.45.49.7.5,1.17-.14.86-.45,1.18-.7.49-1.17.5zm6.35-.11c-.47.01-.86-.14-1.18-.45s-.49-.7-.5-1.17.14-.86.46-1.18c.31-.32.7-.49,1.17-.5s.86.14,1.18.45.49.7.5,1.17-.14.86-.45,1.18-.7.49-1.17.5z" fill="#1e192b"/></g></g></g><g clip-path="url(#i)"><clipPath/><g><g><g><path d="m40,173.65-1.05-1.05,1.85-1.85h-4.55v-1.5h4.55l-1.85-1.85,1.05-1.05,3.65,3.65L40,173.65zM35.25,186c-.5,0-.92-.18-1.27-.53s-.53-.78-.53-1.28.18-.92.53-1.27.78-.53,1.28-.53.92.18,1.27.53.53.78.53,1.28-.18.92-.53,1.27-.78.53-1.28.53zm10.1,0c-.5,0-.92-.18-1.27-.53s-.53-.78-.53-1.28.18-.92.53-1.27.78-.53,1.28-.53.92.18,1.27.53.53.78.53,1.28-.18.92-.53,1.27-.78.53-1.28.53zm-15.8-18.5V166h2.9l4.25,9.1h7.19l4.01-7h1.68l-4.05,7.58c-.18.32-.42.57-.71.76s-.61.29-.96.29h-7.58l-1.4,2.6h12.27v1.5H35.1c-.63,0-1.11-.25-1.43-.75s-.35-1.01-.07-1.53l1.6-2.95-3.7-8.1h-1.95z" fill="#49454e"/></g><g><path d="m49,160a8,8,0,018,8,8,8,0,11-8-8z" fill="#b3261e"/></g><g><g><g><text x="46" y="174" textLength="5.62" lengthAdjust="spacingAndGlyphs" style="dominant-baseline:ideographic;text-transform:none;font-family:Roboto;font-weight:400;white-space:pre;font-size:10px;fill:#fff">1</text></g></g></g></g></g></g></g></g><g><g><g clip-path="url(#j)"><clipPath><rect rx="16" x="12" y="20" width="56" height="56" fill="#ffd8e4"/></clipPath><g><rect rx="16" x="12" y="20" width="56" height="56" fill="#ffd8e4"/></g><g><g><path d="m39.25,55v-6.25H33v-1.5h6.25V41h1.5v6.25H47v1.5h-6.25V55h-1.5z" fill="#370b1e"/></g></g></g></g></g></g></g></g></svg>
