<svg xmlns="http://www.w3.org/2000/svg" fill="none" viewBox="0,0,80,720"><style>.a{fill:#49454e;font-family:Roboto;font-size:12px;font-weight:500;letter-spacing:.05px;text-transform:none;white-space:pre}</style><defs><clipPath id="a"><path d="m0,0h80v720H0z"/></clipPath><clipPath id="b"><path d="m0,0h80v720H0z" fill="#fffbfe"/></clipPath><clipPath id="c"><path d="m12,28h56v260H12z"/></clipPath><clipPath id="d"><path d="m12,232v56h56v-56z"/></clipPath><clipPath id="e"><path d="m12,164v56h56v-56z"/></clipPath><clipPath id="f"><rect rx="16" x="12" y="96" width="56" height="32" fill="#e8def8"/></clipPath><clipPath id="g"><path d="m12,96v56h56V96z"/></clipPath><clipPath id="h"><path d="m12,28v56h56V28z"/></clipPath></defs><g clip-path="url(#a)"><clipPath/><g><g clip-path="url(#b)"><clipPath><path d="m0,0h80v720H0z" fill="#fffbfe"/></clipPath><g><path d="m0,0h80v720H0z" fill="#fffbfe"/></g><g><g clip-path="url(#c)"><clipPath/><g><g clip-path="url(#d)"><clipPath/><g><g><g><text x="17.03" y="282" dominant-baseline="ideographic" textLength="45.94" lengthAdjust="spacingAndGlyphs" class="a">Specials</text></g></g><g><g><path d="m37.83,255.88,6.97-8.38h-4.5l.9-7.15-6.33,9.15h3.85l-.9,6.38zM36,258l1-7h-5l9-13h2l-1,8h6l-10,12h-2z" fill="#49454e"/></g><g><circle cx="49" cy="239" r="3" fill="#b3261e"/></g></g></g></g><g clip-path="url(#e)"><clipPath/><g><g><g><text x="13.52" y="214" dominant-baseline="ideographic" textLength="52.95" lengthAdjust="spacingAndGlyphs" class="a">Favorities</text></g></g><g><path d="m40,188.98-1.03-.93c-1.76-1.62-3.22-3.02-4.37-4.19s-2.07-2.22-2.75-3.15-1.16-1.76-1.44-2.51-.41-1.51-.41-2.28c0-1.5.5-2.76,1.51-3.76,1.01-1.01,2.26-1.51,3.74-1.51.95,0,1.83.23,2.64.68s1.51,1.1,2.11,1.95c.7-.9,1.44-1.56,2.23-1.99s1.63-.64,2.53-.64c1.48,0,2.73.5,3.74,1.51s1.51,2.26,1.51,3.76c0,.77-.14,1.53-.41,2.28s-.75,1.59-1.44,2.51-1.6,1.98-2.75,3.15-2.61,2.57-4.37,4.19l-1.03.93zm0-1.98c1.69-1.55,3.08-2.88,4.17-3.99s1.96-2.08,2.6-2.91,1.09-1.58,1.35-2.23.39-1.3.39-1.94c0-1.1-.35-2.01-1.05-2.72s-1.6-1.06-2.69-1.06c-.86,0-1.65.26-2.39.79s-1.33,1.26-1.78,2.21h-1.23c-.43-.93-1.02-1.67-1.75-2.2s-1.53-.8-2.39-.8c-1.1,0-1.99.35-2.69,1.06s-1.05,1.62-1.05,2.72c0,.65.13,1.3.39,1.95.26.66.71,1.41,1.35,2.25s1.51,1.81,2.61,2.91,2.48,2.42,4.15,3.95z" fill="#49454e"/></g></g></g><g clip-path="url(#f)"><clipPath><rect rx="16" x="12" y="96" width="56" height="32" fill="#e8def8"/></clipPath><g><rect rx="16" x="12" y="96" width="56" height="32" fill="#e8def8"/></g></g><g clip-path="url(#g)"><clipPath/><g><g><g><text x="15.59" y="146.42" textLength="48.82" lengthAdjust="spacingAndGlyphs" style="dominant-baseline:ideographic;text-transform:none;font-family:Roboto;letter-spacing:.05px;font-weight:500;white-space:pre;font-size:12px;fill:#1c1b1f">Products</text></g></g><g><path d="m33.79,120.32c-.47.01-.86-.14-1.18-.45s-.49-.7-.5-1.17.14-.86.45-1.18.7-.49,1.17-.5.86.14,1.18.45.49.7.5,1.17-.14.86-.46,1.18-.7.49-1.17.5zm6.35-.11c-.47.01-.86-.14-1.18-.45s-.49-.7-.5-1.17.14-.86.45-1.18.7-.49,1.17-.5.86.14,1.18.45.49.7.5,1.17-.14.86-.46,1.18-.7.49-1.17.5zm6.35-.11c-.47.01-.86-.14-1.18-.46-.32-.31-.49-.7-.5-1.17s.14-.86.46-1.18c.31-.32.7-.49,1.17-.5s.86.14,1.18.45.49.7.5,1.17-.14.86-.46,1.18-.7.49-1.17.5zm-12.81-6.13c-.47.01-.86-.14-1.18-.45s-.49-.7-.5-1.17.14-.86.46-1.18.7-.49,1.17-.5.86.14,1.18.45.49.7.5,1.17-.14.86-.46,1.18-.7.49-1.17.5zm6.35-.11c-.47.01-.86-.14-1.18-.45s-.49-.7-.5-1.17.14-.86.46-1.18.7-.49,1.17-.5.86.14,1.18.45.49.7.5,1.17-.14.86-.46,1.18-.7.49-1.17.5zm6.35-.11c-.47.01-.86-.14-1.18-.46s-.49-.7-.5-1.17.14-.86.46-1.18c.31-.32.7-.49,1.17-.5s.86.14,1.18.45.49.7.5,1.17-.14.86-.46,1.18-.7.49-1.17.5zm-12.81-6.13c-.47.01-.86-.14-1.18-.45s-.49-.7-.5-1.17.14-.86.46-1.18.7-.49,1.17-.5.86.14,1.18.45.49.7.5,1.17-.14.86-.46,1.18c-.31.32-.7.49-1.17.5zm6.35-.11c-.47.01-.86-.14-1.18-.45s-.49-.7-.5-1.17.14-.86.46-1.18.7-.49,1.17-.5.86.14,1.18.45.49.7.5,1.17-.14.86-.45,1.18-.7.49-1.17.5zm6.35-.11c-.47.01-.86-.14-1.18-.45s-.49-.7-.5-1.17.14-.86.46-1.18c.31-.32.7-.49,1.17-.5s.86.14,1.18.45.49.7.5,1.17-.14.86-.45,1.18-.7.49-1.17.5z" fill="#1e192b"/></g></g></g><g clip-path="url(#h)"><clipPath/><g><g><g><text x="28.48" y="78" dominant-baseline="ideographic" textLength="23.03" lengthAdjust="spacingAndGlyphs" class="a">Cart</text></g></g><g><g><path d="m40,41.65-1.05-1.05,1.85-1.85h-4.55v-1.5h4.55l-1.85-1.85L40,34.35,43.65,38,40,41.65zM35.25,54c-.5,0-.92-.18-1.27-.53s-.53-.78-.53-1.28.18-.92.53-1.27.78-.53,1.28-.53.92.18,1.27.53.53.78.53,1.28-.18.92-.53,1.27-.78.53-1.28.53zm10.1,0c-.5,0-.92-.18-1.27-.53s-.53-.78-.53-1.28.18-.92.53-1.27.78-.53,1.28-.53.92.18,1.27.53.53.78.53,1.28-.18.92-.53,1.27-.78.53-1.28.53zm-15.8-18.5V34h2.9l4.25,9.1h7.19l4.01-7h1.68l-4.05,7.58c-.18.32-.42.57-.71.76s-.61.29-.96.29h-7.58l-1.4,2.6h12.27v1.5H35.1c-.63,0-1.11-.25-1.43-.75s-.35-1.01-.07-1.53l1.6-2.95-3.7-8.1h-1.95z" fill="#49454e"/></g><g><path d="m49,28a8,8,0,018,8,8,8,0,11-8-8z" fill="#b3261e"/></g><g><g><g><text x="46" y="42" textLength="5.62" lengthAdjust="spacingAndGlyphs" style="dominant-baseline:ideographic;text-transform:none;font-family:Roboto;font-weight:400;white-space:pre;font-size:10px;fill:#fff">1</text></g></g></g></g></g></g></g></g></g></g></g></g></svg>
