<svg xmlns="http://www.w3.org/2000/svg" fill="none" viewBox="0,0,340,56"><defs><clipPath id="b"><rect rx="4" width="340" height="56"/></clipPath><clipPath id="c"><use href="#a"/></clipPath><rect rx="4" width="340" height="56" id="a" fill="none" stroke-width="2" stroke="#79747e"/><clipPath id="d"><path d="m0,0v56h340V0z"/></clipPath></defs><g><clipPath clip-path="url(#b)"/><g><g><use href="#a" clip-path="url(#c)"/></g></g><g clip-path="url(#d)"><clipPath/><g><g><g><text x="52" y="37" textLength="73.11" lengthAdjust="spacingAndGlyphs" style="dominant-baseline:ideographic;text-transform:none;font-family:Roboto;letter-spacing:.04px;font-weight:400;white-space:pre;font-size:16px;fill:#49454e">Label Text</text></g></g><g><path d="m31.9,36.98-6.57-6.58c-.5.43-1.08.77-1.75,1.01s-1.38.36-2.13.36c-1.8,0-3.33-.63-4.58-1.88S15,27.14,15,25.38s.63-3.28,1.88-4.53,2.76-1.88,4.54-1.88,3.28.63,4.53,1.88c1.24,1.25,1.86,2.76,1.86,4.53,0,.71-.12,1.4-.35,2.07s-.58,1.29-1.05,1.88l6.6,6.55-1.1,1.1zm-10.48-6.7c1.35,0,2.51-.48,3.45-1.44.95-.96,1.42-2.11,1.42-3.46s-.47-2.5-1.42-3.46-2.1-1.44-3.45-1.44c-1.37,0-2.53.48-3.49,1.44s-1.44,2.11-1.44,3.46.48,2.5,1.44,3.46,2.12,1.44,3.49,1.44z" fill="#49454e"/></g></g></g></g></svg>
