<svg xmlns="http://www.w3.org/2000/svg" fill="none" viewBox="0,0,340,56"><style>.a{fill:#b3261e;font-family:Roboto;font-size:12px;font-weight:400;letter-spacing:.04px;text-transform:none;white-space:pre}</style><defs><clipPath id="b"><rect rx="4" width="340" height="56"/></clipPath><clipPath id="c"><use href="#a"/></clipPath><rect rx="4" width="340" height="56" id="a" fill="none" stroke-width="4" stroke="#b3261e"/><clipPath id="d"><path d="m0,0v56h340V0z"/></clipPath></defs><g><g><g><g><text x="16" y="74" dominant-baseline="ideographic" textLength="84.73" lengthAdjust="spacingAndGlyphs" class="a">Supporting Text</text></g></g></g><clipPath clip-path="url(#b)"/><g><g><use href="#a" clip-path="url(#c)"/></g></g><g clip-path="url(#d)"><clipPath/><g><g><path d="m316,33c.23,0,.43-.08.59-.24s.24-.35.24-.59-.08-.43-.24-.59-.36-.24-.59-.24-.43.08-.59.24-.24.36-.24.59.08.43.24.59.35.24.59.24zm-.68-3.83h1.5v-6.32h-1.5zM316,38c-1.37,0-2.66-.26-3.88-.79-1.22-.52-2.28-1.24-3.19-2.15s-1.63-1.97-2.15-3.19-.79-2.52-.79-3.9c0-1.37.26-2.66.79-3.88s1.24-2.28,2.15-3.18,1.97-1.61,3.19-2.14,2.52-.79,3.9-.79c1.37,0,2.66.26,3.88.79s2.28,1.24,3.18,2.14,1.61,1.96,2.14,3.18.78,2.53.78,3.91c0,1.37-.26,2.66-.79,3.88s-1.24,2.28-2.14,3.19-1.96,1.63-3.18,2.15c-1.22.53-2.52.79-3.9.79z" fill="#b3261e"/></g><g><g><g><text x="33" y="37" textLength="3.95" lengthAdjust="spacingAndGlyphs" style="dominant-baseline:ideographic;text-transform:none;font-family:Roboto;letter-spacing:.04px;font-weight:400;white-space:pre;font-size:16px;fill:#b3261e">|</text></g></g><g><g><text x="16" y="37" textLength="16.98" lengthAdjust="spacingAndGlyphs" style="dominant-baseline:ideographic;text-transform:none;font-family:Roboto;letter-spacing:.04px;font-weight:400;white-space:pre;font-size:16px;fill:#1c1b1f">Eli</text></g></g></g></g></g><g><path d="m12-6h63V9H12z" fill="#fffbfe"/></g><g><g><g><text x="16" y="8" dominant-baseline="ideographic" textLength="54.93" lengthAdjust="spacingAndGlyphs" class="a">Label Text</text></g></g></g></g></svg>
