<svg xmlns="http://www.w3.org/2000/svg" fill="none" viewBox="0,0,228,48"><style>.a{fill:#1c1b1f;font-family:Roboto;font-size:14px;font-weight:500;letter-spacing:.01px;text-transform:none;white-space:pre}</style><defs><clipPath id="d"><path d="m0,0v48h228V0z"/></clipPath><clipPath id="e"><path d="m4,4v40h220V4z"/></clipPath><clipPath id="f"><path d="m150,4h54a20,20,0,010,40h-54V4z"/></clipPath><clipPath id="g"><use href="#a"/></clipPath><path d="m150,4h54a20,20,0,010,40h-54V4z" id="a" fill="none" stroke-width="2" stroke="#79747e"/><clipPath id="h"><path d="m77,4v40h74V4z"/></clipPath><clipPath id="i"><use href="#b"/></clipPath><path id="b" d="m77,4h74v40H77z" fill="none" stroke-width="2" stroke="#79747e"/><clipPath id="j"><path d="m24,4h54v40H24a20,20,0,010-40z"/></clipPath><clipPath id="k"><use href="#c"/></clipPath><path d="m24,4h54v40H24a20,20,0,010-40z" id="c" fill="none" stroke-width="2" stroke="#79747e"/></defs><g clip-path="url(#d)"><clipPath/><g><g clip-path="url(#e)"><clipPath/><g><g><g clip-path="url(#f)"><clipPath/><g><g><g><text x="162" y="31.85" dominant-baseline="ideographic" textLength="50.22" lengthAdjust="spacingAndGlyphs" class="a">Enabled</text></g></g></g></g><g><g><use href="#a" clip-path="url(#g)"/></g></g></g><g clip-path="url(#h)"><clipPath/><g><g><g><g><text x="89" y="31.85" dominant-baseline="ideographic" textLength="50.22" lengthAdjust="spacingAndGlyphs" class="a">Enabled</text></g></g></g><g><g><use href="#b" clip-path="url(#i)"/></g></g></g></g><g><g clip-path="url(#j)"><clipPath/><g><g><g><text x="16" y="31.85" dominant-baseline="ideographic" textLength="50.22" lengthAdjust="spacingAndGlyphs" class="a">Enabled</text></g></g></g></g><g><g><use href="#c" clip-path="url(#k)"/></g></g></g></g></g></g></g></svg>
