<svg xmlns="http://www.w3.org/2000/svg" viewBox="0,0,78,52"><g><g><g><text x="16.5" y="46" textLength="44.8" lengthAdjust="spacingAndGlyphs" style="dominant-baseline:ideographic;text-transform:none;font-family:Roboto;letter-spacing:.05px;font-weight:500;white-space:pre;font-size:12px;fill:#49454e">Settings</text></g></g><g><g><path d="m36.7,22-.5-3.15c-.32-.12-.65-.28-1-.48s-.66-.41-.93-.63l-2.95,1.35L29,15l2.7-1.98c-.03-.15-.05-.32-.06-.51s-.01-.36-.01-.51,0-.32.01-.51.03-.36.06-.51L29,9l2.33-4.1,2.95,1.35c.27-.22.58-.43.93-.63s.68-.35,1-.45L36.7,2h4.6l.5,3.15c.32.12.65.27,1.01.46s.66.41.91.64l2.95-1.35L49,9l-2.7,1.93c.03.17.05.35.06.54s.01.37.01.54,0,.34-.01.53c-.01.18-.03.36-.06.53L49,15l-2.33,4.1-2.95-1.35c-.27.22-.57.43-.91.64s-.68.36-1.01.46L41.3,22h-4.6zm2.3-6.75c.9,0,1.67-.32,2.3-.95s.95-1.4.95-2.3-.32-1.67-.95-2.3-1.4-.95-2.3-.95-1.67.32-2.3.95-.95,1.4-.95,2.3.32,1.67.95,2.3,1.4.95,2.3.95zm0-1.5c-.48,0-.9-.17-1.24-.51s-.51-.75-.51-1.24.17-.9.51-1.24.76-.51,1.24-.51.9.17,1.24.51.51.76.51,1.24-.17.9-.51,1.24-.75.51-1.24.51zm-1.1,6.75h2.2l.35-2.8c.55-.13,1.07-.34,1.56-.63.49-.28.94-.63,1.34-1.03L46,17.2l1-1.8-2.35-1.73c.07-.28.12-.56.16-.84s.06-.55.06-.84-.02-.56-.05-.84-.09-.55-.18-.84L47,8.6,46,6.8,43.35,7.95c-.38-.43-.82-.8-1.3-1.09s-1.02-.48-1.6-.56l-.35-2.8h-2.2l-.35,2.8c-.57.12-1.1.32-1.59.6s-.93.63-1.31,1.05L32,6.8,31,8.6l2.35,1.73c-.07.28-.12.56-.16.84s-.06.56-.06.84.02.56.06.84.1.56.16.84L31,15.4l1,1.8,2.65-1.15c.4.4.85.74,1.34,1.03.49.28,1.01.49,1.56.63l.35,2.8z" fill="#49454e"/></g><g><ellipse rx="3" ry="3" cx="48" cy="2.78" fill="#b3261e"/></g></g></g></svg>
