<svg xmlns="http://www.w3.org/2000/svg" fill="none" viewBox="0,0,327,48"><defs><clipPath id="a"><path d="m0,0v48h327V0z"/></clipPath><filter id="b" x="-.08" y="-.56" width="1.17" height="2.38" color-interpolation-filters="sRGB"><feFlood flood-opacity="0" result="BackgroundImageFix"/><feColorMatrix in="SourceAlpha" values="0,0,0,0,0,0,0,0,0,0,0,0,0,0,0,0,0,0,127,0"/><feOffset dx="0" dy="1"/><feGaussianBlur stdDeviation=".5"/><feColorMatrix values="0,0,0,0,0,0,0,0,0,0,0,0,0,0,0,0,0,0,.16,0"/><feBlend in2="BackgroundImageFix" result="filter_57c2bb3f-6890-809b-8002-39d1d8920356"/><feColorMatrix in="SourceAlpha" values="0,0,0,0,0,0,0,0,0,0,0,0,0,0,0,0,0,0,127,0"/><feOffset dx="0"/><feGaussianBlur stdDeviation="1"/><feColorMatrix values="0,0,0,0,0,0,0,0,0,0,0,0,0,0,0,0,0,0,.09,0"/><feBlend in2="filter_57c2bb3f-6890-809b-8002-39d1d8920356" result="filter_57c2bb3f-6890-809b-8002-39d1d9ac2974"/><feColorMatrix in="SourceAlpha" values="0,0,0,0,0,0,0,0,0,0,0,0,0,0,0,0,0,0,127,0"/><feOffset dx="0" dy="4"/><feGaussianBlur stdDeviation="2"/><feColorMatrix values="0,0,0,0,0,0,0,0,0,0,0,0,0,0,0,0,0,0,.05,0"/><feBlend in2="filter_57c2bb3f-6890-809b-8002-39d1d9ac2974" result="filter_57c2bb3f-6890-809b-8002-39d1dab6a175"/><feBlend in="SourceGraphic" in2="filter_57c2bb3f-6890-809b-8002-39d1dab6a175" result="shape"/></filter><clipPath id="c"><rect rx="8" width="327" height="48"/></clipPath></defs><g clip-path="url(#a)"><clipPath/><g><g><g clip-path="url(#c)" filter="url(#b)"><clipPath/><g><g><path d="m0,0v48h327V0z" fill="#313033"/></g><g><path d="m0,0v48h327V0z" opacity=".11" fill="#6750a4"/></g></g></g><g><g><g><g><path d="m312.7,46-.5-3.15c-.32-.12-.65-.28-1-.48s-.66-.41-.93-.63l-2.95,1.35L305,39l2.7-1.98c-.03-.15-.05-.32-.06-.51s-.01-.36-.01-.51,0-.32.01-.51.03-.36.06-.51L305,33l2.33-4.1,2.95,1.35c.27-.22.58-.43.93-.63s.68-.35,1-.45l.5-3.18h4.6l.5,3.15c.32.12.65.27,1.01.46s.66.4.91.64l2.95-1.35L325,33l-2.7,1.93c.03.17.05.35.06.54s.01.37.01.54,0,.34-.01.53c-.01.18-.03.36-.06.53L325,39l-2.33,4.1-2.95-1.35c-.27.22-.57.43-.91.64s-.68.36-1.01.46l-.5,3.15h-4.6zm2.3-6.75c.9,0,1.67-.32,2.3-.95s.95-1.4.95-2.3-.32-1.67-.95-2.3-1.4-.95-2.3-.95-1.67.32-2.3.95-.95,1.4-.95,2.3.32,1.67.95,2.3,1.4.95,2.3.95zm0-1.5c-.48,0-.9-.17-1.24-.51s-.51-.76-.51-1.24.17-.9.51-1.24.75-.51,1.24-.51.9.17,1.24.51.51.75.51,1.24-.17.9-.51,1.24-.76.51-1.24.51zm-1.1,6.75h2.2l.35-2.8c.55-.13,1.07-.34,1.56-.63.49-.28.94-.63,1.34-1.03L322,41.2l1-1.8-2.35-1.73c.07-.28.12-.56.16-.84s.06-.56.06-.84-.02-.56-.05-.84-.09-.56-.18-.84L323,32.6l-1-1.8-2.65,1.15c-.38-.43-.82-.8-1.3-1.09s-1.02-.48-1.6-.56l-.35-2.8h-2.2l-.35,2.8c-.57.12-1.1.32-1.59.6s-.93.63-1.31,1.05L308,30.8l-1,1.8,2.35,1.73c-.07.28-.12.56-.16.84s-.06.55-.06.84.02.56.06.84.1.55.16.84L307,39.4l1,1.8,2.65-1.15c.4.4.85.74,1.34,1.03.49.28,1.01.49,1.56.63l.35,2.8z" fill="#49454e"/></g></g></g><g><g><g><g><text x="226" y="31.85" textLength="40.7" lengthAdjust="spacingAndGlyphs" style="dominant-baseline:ideographic;text-transform:none;font-family:Roboto;letter-spacing:.01px;font-weight:500;white-space:pre;font-size:14px;fill:#d0bcff">Action</text></g></g></g></g><g><g><text x="16" y="32" textLength="185.59" lengthAdjust="spacingAndGlyphs" style="dominant-baseline:ideographic;text-transform:none;font-family:Roboto;letter-spacing:.02px;font-weight:400;white-space:pre;font-size:14px;fill:#f4eff4">Single-line snackbar message</text></g></g></g></g></g></g></svg>
