<svg xmlns="http://www.w3.org/2000/svg" fill="none" viewBox="0,0,256,480"><defs><clipPath id="c"><path d="m0,0h256v480H0z"/></clipPath><clipPath id="d"><path d="m0,0h256v480H0z"/></clipPath><clipPath id="e"><path d="m0,0h256v480H0z"/></clipPath><mask id="f" x="122.59" y="414.59" width="90.83" height="42.83" maskUnits="userSpaceOnUse"><use href="#a" fill="none" stroke="#fff" stroke-width="2"/><use href="#a" fill="#000"/></mask><rect rx="20" x="124" y="416" width="88" height="40" id="a"/><clipPath id="g"><path d="m124,416h88v40h-88z"/></clipPath><clipPath id="h"><path d="m24,416h88v40H24z"/></clipPath><clipPath id="i"><path d="m24,416h88v40H24z"/></clipPath><clipPath id="j"><path d="m0,399v1h256v-1z" opacity=".4"/></clipPath><clipPath id="k"><use href="#b"/></clipPath><path id="b" d="m0,399v1h256v-1z" opacity=".4" fill="none" stroke-width="2" stroke="#c4c7c5"/><clipPath id="l"><path d="m0,64h256v319H0z"/></clipPath><clipPath id="m"><path d="m0,24v24h256V24z"/></clipPath></defs><g clip-path="url(#c)"><clipPath/><g><g clip-path="url(#d)"><clipPath/><g><g><path d="m0,0h256v480H0z" fill="#fffbfe"/></g><g clip-path="url(#e)"><clipPath/><g><g><g><g><g><g><use href="#a" mask="url(#f)" stroke-width="2" stroke="#79747e" fill="none"/><use href="#a" fill="none"/></g></g><g clip-path="url(#g)"><clipPath/><g><g><g><text x="148" y="443.85" textLength="40.7" lengthAdjust="spacingAndGlyphs" style="dominant-baseline:ideographic;text-transform:none;font-family:Roboto;letter-spacing:.01px;font-weight:500;white-space:pre;font-size:14px;fill:#6750a4">Action</text></g></g></g></g></g></g><g><g clip-path="url(#h)"><clipPath/><g><g><rect rx="20" x="24" y="416" width="88" height="40" fill="#6750a4"/></g><g clip-path="url(#i)"><clipPath/><g><g><g><text x="48" y="443.85" textLength="40.7" lengthAdjust="spacingAndGlyphs" style="dominant-baseline:ideographic;text-transform:none;font-family:Roboto;letter-spacing:.01px;font-weight:500;white-space:pre;font-size:14px;fill:#fff">Action</text></g></g></g></g></g></g></g></g><g><clipPath clip-path="url(#j)"/><g><g><use href="#b" clip-path="url(#k)"/></g></g></g><clipPath clip-path="url(#l)"/><g clip-path="url(#m)"><clipPath/><g><g><g><g fill="#000"><path d="m214.23,42.83-1.05-1.05,5.77-5.78-5.78-5.78,1.05-1.05,5.78,5.78,5.78-5.78,1.05,1.05L221.05,36l5.78,5.78-1.05,1.05L220,37.05l-5.78,5.78z"/></g></g></g><g><g><text x="24" y="43.85" textLength="97.88" lengthAdjust="spacingAndGlyphs" style="dominant-baseline:ideographic;text-transform:none;font-family:Roboto;letter-spacing:.01px;font-weight:500;white-space:pre;font-size:14px;fill:#49454e">Side Sheet Title</text></g></g></g></g></g></g></g></g></g></g></svg>
