<svg xmlns="http://www.w3.org/2000/svg" viewBox="0,0,4e2,1e2"><g><path d="m0,0h4e2v1e2H0z" fill="#fff1f0"/></g><g><g><path d="m0,0h4e2v1e2H0z" fill="none" stroke="#ff4d4f"/></g></g><g fill="#ff4d4f"><g><path d="m25.1,19.18c0-.08-.06-.14-.14-.14l-1.18.01L22,21.15l-1.77-2.12-1.18-.01c-.08,0-.14.06-.14.14,0,.03.01.07.03.09l2.32,2.77-2.32,2.77c-.02.03-.03.06-.03.09,0,.08.06.14.14.14l1.18-.01L22,22.92l1.77,2.11,1.18.01c.08,0,.14-.06.14-.14,0-.03-.01-.07-.03-.09l-2.32-2.77,2.36-2.86zc-.01.07,0,.03,0,0z"/></g><g><path d="m22,14c-4.42,0-8,3.58-8,8s3.58,8,8,8,8-3.58,8-8-3.58-8-8-8zm0,14.64c-3.67,0-6.64-2.98-6.64-6.64s2.98-6.64,6.64-6.64,6.64,2.98,6.64,6.64-2.97,6.64-6.64,6.64z"/></g></g></svg>
