<svg xmlns="http://www.w3.org/2000/svg" viewBox="0,0,4e2,40"><g><path d="m0,0v40h4e2V0z" fill="#fff1f0"/></g><g><g><path d="m0,0v40h4e2V0z" fill="none" stroke="#ff4d4f"/></g></g><g><g fill="#ff4d4f"><path d="m24,13c-4.42,0-8,3.58-8,8s3.58,8,8,8,8-3.58,8-8-3.58-8-8-8zm2.95,11.04-1.18-.01L24,21.92l-1.77,2.11-1.18.01c-.08,0-.14-.06-.14-.14,0-.03.01-.07.03-.09l2.32-2.77-2.32-2.77c-.02-.03-.03-.06-.03-.09,0-.08.06-.14.14-.14l1.18.01,1.77,2.1,1.77-2.12,1.18-.01c.08,0,.14.06.14.14,0,.03-.01.07-.03.09l-2.32,2.77,2.32,2.77c.02.03.03.06.03.09,0,.08-.06.14-.14.14z"/></g></g></svg>
