<svg xmlns="http://www.w3.org/2000/svg" viewBox="0,0,4e2,40"><g><path d="m0,0v40h4e2V0z" fill="#fff1f0"/></g><g><g><path d="m0,0v40h4e2V0z" fill="none" stroke="#ff4d4f"/></g></g><g><g fill="#8c8c8c"><path d="m376.16,21,5.81-6.72c.1-.11.02-.28-.14-.28h-1.77c-.1,0-.2.05-.27.12L375,19.66l-4.79-5.54c-.07-.08-.17-.12-.27-.12h-1.77c-.15,0-.23.17-.14.28l5.82,6.72-5.81,6.72c-.04.05-.05.12-.03.18.03.06.09.1.16.1h1.77c.1,0,.2-.05.27-.12l4.79-5.54,4.79,5.54c.07.08.17.12.27.12h1.77c.15,0,.23-.17.14-.28L376.16,21z"/></g></g><g><g fill="#ff4d4f"><path d="m24,13c-4.42,0-8,3.58-8,8s3.58,8,8,8,8-3.58,8-8-3.58-8-8-8zm2.95,11.04-1.18-.01L24,21.92l-1.77,2.11-1.18.01c-.08,0-.14-.06-.14-.14,0-.03.01-.07.03-.09l2.32-2.77-2.32-2.77c-.02-.03-.03-.06-.03-.09,0-.08.06-.14.14-.14l1.18.01,1.77,2.1,1.77-2.12,1.18-.01c.08,0,.14.06.14.14,0,.03-.01.07-.03.09l-2.32,2.77,2.32,2.77c.02.03.03.06.03.09,0,.08-.06.14-.14.14z"/></g></g></svg>
