<svg xmlns="http://www.w3.org/2000/svg" viewBox="0,0,4e2,40"><g><path d="m0,0v40h4e2V0z" fill="#fff1f0"/></g><g><g><path d="m0,0v40h4e2V0z" fill="none" stroke="#ff4d4f"/></g></g><g><g fill="#8c8c8c"><path d="m376.16,21,5.81-6.72c.1-.11.02-.28-.14-.28h-1.76c-.1,0-.2.05-.27.12l-4.79,5.54-4.79-5.54c-.07-.08-.17-.12-.27-.12h-1.77c-.15,0-.23.17-.14.28l5.81,6.72-5.81,6.72c-.04.05-.05.12-.03.18.03.06.09.1.16.1h1.77c.1,0,.2-.05.27-.12l4.79-5.54,4.79,5.54c.07.08.17.12.27.12h1.77c.15,0,.23-.17.13-.28l-5.8-6.72z"/></g></g></svg>
