<svg xmlns="http://www.w3.org/2000/svg" viewBox="0,0,4e2,1e2"><g><path d="m0,0h4e2v1e2H0z" fill="#fff1f0"/></g><g><g><path d="m0,0h4e2v1e2H0z" fill="none" stroke="#ff4d4f"/></g></g><g><g fill="#8c8c8c"><path d="m377.16,20,5.81-6.72c.1-.11.02-.28-.14-.28h-1.77c-.1,0-.2.05-.27.12L376,18.66l-4.79-5.54c-.07-.08-.17-.12-.27-.12h-1.77c-.15,0-.23.17-.14.28l5.82,6.72-5.81,6.72c-.04.05-.05.12-.03.18.03.06.09.1.16.1h1.77c.1,0,.2-.05.27-.12l4.79-5.54,4.79,5.54c.07.08.17.12.27.12h1.77c.15,0,.23-.17.14-.28L377.16,20z"/></g></g><g fill="#ff4d4f"><g><path d="m25.1,19.18c0-.08-.06-.14-.14-.14l-1.18.01L22,21.15l-1.77-2.12-1.18-.01c-.08,0-.14.06-.14.14,0,.03.01.07.03.09l2.32,2.77-2.32,2.77c-.02.03-.03.06-.03.09,0,.08.06.14.14.14l1.18-.01L22,22.92l1.77,2.11,1.18.01c.08,0,.14-.06.14-.14,0-.03-.01-.07-.03-.09l-2.32-2.77,2.36-2.86zc-.01.07,0,.03,0,0z"/></g><g><path d="m22,14c-4.42,0-8,3.58-8,8s3.58,8,8,8,8-3.58,8-8-3.58-8-8-8zm0,14.64c-3.67,0-6.64-2.98-6.64-6.64s2.98-6.64,6.64-6.64,6.64,2.98,6.64,6.64-2.97,6.64-6.64,6.64z"/></g></g></svg>
