<svg xmlns="http://www.w3.org/2000/svg" viewBox="0,0,299,32"><defs><filter id="a" x="-.07" y="-.68" width="1.15" height="2.54" color-interpolation-filters="sRGB"><feFlood flood-opacity="0" result="BackgroundImageFix"/><feColorMatrix in="SourceAlpha" values="0,0,0,0,0,0,0,0,0,0,0,0,0,0,0,0,0,0,127,0"/><feOffset dx="0"/><feGaussianBlur stdDeviation="1"/><feColorMatrix values="0,0,0,0,0,0,0,0,0,0,0,0,0,0,0,0,0,0,.1,0"/><feBlend in2="BackgroundImageFix" result="filter_3c9f0b80-4b91-11ec-b442-ef082629973c"/><feBlend in="SourceGraphic" in2="filter_3c9f0b80-4b91-11ec-b442-ef082629973c" result="shape"/></filter></defs><g><rect rx="2" y="1" width="299" height="32" filter="url(#a)" fill="#fff"/></g><g><g><rect rx="2" y="1" width="299" height="32" fill="none" stroke="#dbdbdb"/></g></g><g><g><path d="m26.14,16.5c0,.47.38.86.86.86s.86-.38.86-.86-.38-.86-.86-.86-.86.38-.86.86zm3.57,0c0,.47.38.86.86.86.47,0,.86-.38.86-.86s-.38-.86-.86-.86c-.47,0-.86.38-.86.86zm-7.14,0c0,.47.38.86.86.86.47,0,.86-.38.86-.86s-.38-.86-.86-.86c-.47,0-.86.38-.86.86zm11.81-3.1c-.4-.96-.98-1.82-1.72-2.56-.73-.74-1.6-1.32-2.56-1.72-.98-.41-2.03-.62-3.1-.62h-.04c-1.08.01-2.13.22-3.12.64-.95.41-1.81.99-2.54,1.72-.73.74-1.3,1.6-1.7,2.55-.41.99-.62,2.04-.61,3.12.01,1.24.3,2.46.86,3.57v2.71c0,.45.37.82.82.82h2.72c1.11.56,2.33.85,3.57.86H27c1.07,0,2.11-.21,3.08-.61.95-.4,1.82-.97,2.55-1.7.74-.73,1.32-1.58,1.72-2.54.42-.99.64-2.03.64-3.12.01-1.09-.21-2.14-.62-3.14zm-2.7,7.82c-1.25,1.24-2.91,1.92-4.68,1.92h-.03c-1.08-.01-2.15-.27-3.09-.78l-.15-.08h-2.52v-2.52l-.08-.15c-.5-.94-.77-2.01-.78-3.09-.01-1.78.67-3.45,1.92-4.71s2.91-1.96,4.69-1.96h.03c.89,0,1.76.17,2.58.52.8.33,1.51.82,2.13,1.43.61.61,1.1,1.33,1.43,2.13.35.83.52,1.7.52,2.6-.01,1.78-.71,3.45-1.97,4.69z"/></g></g><g><g><path d="m126.14,16.5c0,.47.38.86.86.86s.86-.38.86-.86-.38-.86-.86-.86-.86.38-.86.86zm3.57,0c0,.47.38.86.86.86.47,0,.86-.38.86-.86s-.38-.86-.86-.86c-.47,0-.86.38-.86.86zm-7.14,0c0,.47.38.86.86.86.47,0,.86-.38.86-.86s-.38-.86-.86-.86c-.47,0-.86.38-.86.86zm11.81-3.1c-.4-.96-.98-1.82-1.72-2.56-.73-.74-1.6-1.32-2.56-1.72-.98-.41-2.03-.62-3.1-.62h-.04c-1.08.01-2.13.22-3.12.64-.95.41-1.81.99-2.54,1.72-.73.74-1.3,1.6-1.7,2.55-.41.99-.62,2.04-.61,3.12.01,1.24.3,2.46.86,3.57v2.71c0,.45.37.82.82.82h2.72c1.11.56,2.33.85,3.57.86h.04c1.07,0,2.11-.21,3.08-.61.95-.4,1.82-.97,2.55-1.7.74-.73,1.32-1.58,1.72-2.54.42-.99.64-2.03.64-3.12.01-1.09-.21-2.14-.62-3.14zm-2.7,7.82c-1.25,1.24-2.91,1.92-4.68,1.92h-.03c-1.08-.01-2.15-.27-3.09-.78l-.15-.08h-2.52v-2.52l-.08-.15c-.5-.94-.77-2.01-.78-3.09-.01-1.78.67-3.45,1.92-4.71s2.91-1.96,4.69-1.96h.03c.89,0,1.76.17,2.58.52.8.33,1.51.82,2.13,1.43.61.61,1.1,1.33,1.43,2.13.35.83.52,1.7.52,2.6-.01,1.78-.71,3.45-1.97,4.69z"/></g></g><g><g><path d="m226.14,16.5c0,.47.38.86.86.86s.86-.38.86-.86-.38-.86-.86-.86-.86.38-.86.86zm3.57,0c0,.47.38.86.86.86.47,0,.86-.38.86-.86s-.38-.86-.86-.86c-.47,0-.86.38-.86.86zm-7.14,0c0,.47.38.86.86.86.47,0,.86-.38.86-.86s-.38-.86-.86-.86c-.47,0-.86.38-.86.86zM234.38,13.4c-.4-.96-.98-1.82-1.72-2.56-.73-.74-1.6-1.32-2.56-1.72-.98-.41-2.03-.62-3.1-.62h-.04c-1.08.01-2.13.22-3.12.64-.95.41-1.81.99-2.54,1.72-.73.74-1.3,1.6-1.7,2.55-.41.99-.62,2.04-.61,3.12.01,1.24.3,2.46.86,3.57v2.71c0,.45.37.82.82.82h2.72c1.11.56,2.33.85,3.57.86h.04c1.07,0,2.11-.21,3.08-.61.95-.4,1.82-.97,2.55-1.7.74-.73,1.32-1.58,1.72-2.54.42-.99.64-2.03.64-3.12.01-1.09-.21-2.14-.62-3.14zm-2.7,7.82c-1.25,1.24-2.91,1.92-4.68,1.92h-.03c-1.08-.01-2.15-.27-3.09-.78l-.15-.08h-2.52v-2.52l-.08-.15c-.5-.94-.77-2.01-.78-3.09-.01-1.78.67-3.45,1.92-4.71s2.91-1.96,4.69-1.96h.03c.89,0,1.76.17,2.58.52.8.33,1.51.82,2.13,1.43.61.61,1.1,1.33,1.43,2.13.35.83.52,1.7.52,2.6-.01,1.78-.71,3.45-1.97,4.69z"/></g></g><g><g><path d="m99.67.5v32" fill="none" stroke="#dbdbdb"/></g></g><g><g><path d="m199.33.5v32" fill="none" stroke="#dbdbdb"/></g></g></svg>
