<svg xmlns="http://www.w3.org/2000/svg" viewBox="0,0,129,32"><defs><filter id="a" x="-.17" y="-.68" width="1.34" height="2.54" color-interpolation-filters="sRGB"><feFlood flood-opacity="0" result="BackgroundImageFix"/><feColorMatrix in="SourceAlpha" values="0,0,0,0,0,0,0,0,0,0,0,0,0,0,0,0,0,0,127,0"/><feOffset dx="0"/><feGaussianBlur stdDeviation="1"/><feColorMatrix values="0,0,0,0,0,0,0,0,0,0,0,0,0,0,0,0,0,0,.1,0"/><feBlend in2="BackgroundImageFix" result="filter_3c9f0b80-4b91-11ec-b442-ef082629973c"/><feBlend in="SourceGraphic" in2="filter_3c9f0b80-4b91-11ec-b442-ef082629973c" result="shape"/></filter></defs><g><rect rx="2" width="129" height="32" filter="url(#a)" fill="#fff"/></g><g><g><rect rx="2" width="129" height="32" fill="none" stroke="#1890ff"/></g></g><g><path d="m27.95,22.85-5.19-5.19C23.56,16.61,24,15.34,24,14c0-1.6-.63-3.11-1.76-4.24S19.6,8,18,8s-3.11.63-4.24,1.76C12.62,10.89,12,12.4,12,14s.63,3.11,1.76,4.24C14.89,19.38,16.4,20,18,20c1.34,0,2.61-.44,3.65-1.24l5.19,5.19c.03.03.07.05.12.05s.09-.02.12-.05l.87-.87c.03-.03.05-.07.05-.12s-.02-.09-.05-.12zm-6.78-5.68c-.85.85-1.97,1.31-3.17,1.31s-2.32-.47-3.17-1.31c-.85-.85-1.31-1.97-1.31-3.17s.47-2.32,1.31-3.17c.85-.84,1.97-1.31,3.17-1.31s2.32.46,3.17,1.31,1.31,1.97,1.31,3.17-.47,2.32-1.31,3.17z" fill="#1890ff"/></g></svg>
