<svg xmlns="http://www.w3.org/2000/svg" viewBox="0,0,40,40"><defs><filter id="a" x="-.53" y="-.53" width="2.05" height="2.2" color-interpolation-filters="sRGB"><feFlood flood-opacity="0" result="BackgroundImageFix"/><feColorMatrix in="SourceAlpha" values="0,0,0,0,0,0,0,0,0,0,0,0,0,0,0,0,0,0,127,0"/><feOffset dx="0"/><feGaussianBlur stdDeviation="1"/><feColorMatrix values="0,0,0,0,0,0,0,0,0,0,0,0,0,0,0,0,0,0,.1,0"/><feBlend in2="BackgroundImageFix" result="filter_3c9f0b80-4b91-11ec-b442-ef082629973c"/><feBlend in="SourceGraphic" in2="filter_3c9f0b80-4b91-11ec-b442-ef082629973c" result="shape"/></filter></defs><g><rect rx="2" width="40" height="40" filter="url(#a)" fill="#40a9ff"/></g><g><path d="m28.95,26.85-5.19-5.19C24.56,20.61,25,19.34,25,18c0-1.6-.63-3.11-1.76-4.24S20.6,12,19,12s-3.11.63-4.24,1.76C13.62,14.89,13,16.4,13,18s.63,3.11,1.76,4.24C15.89,23.38,17.4,24,19,24c1.34,0,2.61-.44,3.65-1.24l5.19,5.19c.03.03.07.05.12.05s.09-.02.12-.05l.87-.87c.03-.03.05-.07.05-.12s-.02-.09-.05-.12zm-6.78-5.68c-.85.85-1.97,1.31-3.17,1.31s-2.32-.47-3.17-1.31c-.85-.85-1.31-1.97-1.31-3.17s.47-2.32,1.31-3.17c.85-.85,1.97-1.31,3.17-1.31s2.32.46,3.17,1.31,1.31,1.97,1.31,3.17-.47,2.32-1.31,3.17z" fill="#fff"/></g></svg>
