<svg xmlns="http://www.w3.org/2000/svg" viewBox="0,0,114,32"><defs><filter id="a" x="-.19" y="-.68" width="1.38" height="2.54" color-interpolation-filters="sRGB"><feFlood flood-opacity="0" result="BackgroundImageFix"/><feColorMatrix in="SourceAlpha" values="0,0,0,0,0,0,0,0,0,0,0,0,0,0,0,0,0,0,127,0"/><feOffset dx="0"/><feGaussianBlur stdDeviation="1"/><feColorMatrix values="0,0,0,0,0,0,0,0,0,0,0,0,0,0,0,0,0,0,.1,0"/><feBlend in2="BackgroundImageFix" result="filter_3c9f0b80-4b91-11ec-b442-ef082629973c"/><feBlend in="SourceGraphic" in2="filter_3c9f0b80-4b91-11ec-b442-ef082629973c" result="shape"/></filter></defs><g><rect rx="2" width="114" height="32" filter="url(#a)" fill="#fff"/></g><g><g><rect rx="2" width="114" height="32" fill="none" stroke="#dbdbdb"/></g></g><g><g><path d="m82-.5v32" fill="none" stroke="#dbdbdb"/></g></g><g><g fill="#1890ff"><path d="m90,16.33c0,.74.6,1.33,1.33,1.33.74,0,1.33-.6,1.33-1.33,0-.74-.6-1.33-1.33-1.33-.74,0-1.33.6-1.33,1.33zm6.67,0c0,.74.6,1.33,1.33,1.33s1.33-.6,1.33-1.33c0-.74-.6-1.33-1.33-1.33s-1.33.6-1.33,1.33zm6.67,0c0,.74.6,1.33,1.33,1.33.74,0,1.33-.6,1.33-1.33,0-.74-.6-1.33-1.33-1.33-.74,0-1.33.6-1.33,1.33z"/></g></g></svg>
