<svg xmlns="http://www.w3.org/2000/svg" viewBox="0,0,24,24"><defs><filter id="a" x="-.88" y="-.88" width="2.75" height="3" color-interpolation-filters="sRGB"><feFlood flood-opacity="0" result="BackgroundImageFix"/><feColorMatrix in="SourceAlpha" values="0,0,0,0,0,0,0,0,0,0,0,0,0,0,0,0,0,0,127,0"/><feOffset dx="0"/><feGaussianBlur stdDeviation="1"/><feColorMatrix values="0,0,0,0,0,0,0,0,0,0,0,0,0,0,0,0,0,0,.1,0"/><feBlend in2="BackgroundImageFix" result="filter_3c9f0b80-4b91-11ec-b442-ef082629973c"/><feBlend in="SourceGraphic" in2="filter_3c9f0b80-4b91-11ec-b442-ef082629973c" result="shape"/></filter></defs><g><rect rx="12" width="24" height="24" filter="url(#a)" fill="#1890ff"/></g><g><path d="m18.96,17.99-4.55-4.55c.71-.91,1.09-2.03,1.09-3.2,0-1.4-.55-2.72-1.54-3.71C12.97,5.55,11.65,5,10.25,5s-2.72.55-3.71,1.54S5,8.85,5,10.25s.55,2.72,1.54,3.71,2.31,1.54,3.71,1.54c1.17,0,2.29-.38,3.2-1.09L18,18.95c.03.03.06.04.1.04s.07-.02.1-.04l.76-.76c.03-.03.04-.06.04-.1s-.02-.07-.04-.1zm-5.94-4.97c-.74.74-1.73,1.15-2.77,1.15-1.05,0-2.03-.41-2.77-1.15s-1.15-1.73-1.15-2.77c0-1.05.41-2.03,1.15-2.77s1.73-1.15,2.77-1.15c1.05,0,2.03.41,2.77,1.15s1.15,1.73,1.15,2.77c0,1.05-.41,2.03-1.15,2.77z" fill="#fff"/></g></svg>
