<svg xmlns="http://www.w3.org/2000/svg" viewBox="0,0,320,24"><g><rect rx="2" x=".33" width="320" height="24" fill="#fafafa"/></g><g><g><rect rx="2" x=".33" width="320" height="24" fill="none" stroke="#dbdbdb"/></g></g><g fill="#bfbfbf"><g><path d="m299.33,4c-4.42,0-8,3.58-8,8s3.58,8,8,8,8-3.58,8-8-3.58-8-8-8zm0,14.64c-3.67,0-6.64-2.98-6.64-6.64s2.98-6.64,6.64-6.64,6.64,2.98,6.64,6.64-2.98,6.64-6.64,6.64z"/></g><g><path d="m298.48,15.14c0,.47.38.86.86.86.47,0,.86-.38.86-.86,0-.47-.38-.86-.86-.86-.47,0-.86.38-.86.86zm.43-2h.86c.08,0,.14-.06.14-.14V8.14c0-.08-.07-.14-.14-.14h-.86c-.08,0-.14.06-.14.14V13c0,.08.06.14.14.14z"/></g></g><g><g fill="#bfbfbf"><path d="m27.78,17.09c-.35-.83-.86-1.59-1.5-2.23s-1.39-1.15-2.23-1.5c-.01,0-.02-.01-.02-.01,1.16-.84,1.91-2.2,1.91-3.74C25.95,7.07,23.88,5,21.33,5s-4.62,2.07-4.62,4.62c0,1.54.75,2.9,1.91,3.74-.01,0-.02.01-.02.01-.83.35-1.58.86-2.23,1.5-.64.64-1.15,1.39-1.5,2.22-.35.82-.53,1.69-.55,2.57,0,.04.02.08.04.11s.07.05.11.05h1.12c.08,0,.15-.07.15-.15.04-1.44.62-2.78,1.64-3.8,1.06-1.06,2.46-1.64,3.95-1.64s2.9.58,3.95,1.64c1.02,1.02,1.6,2.37,1.63,3.8,0,.08.07.15.15.15h1.12c.04,0,.08-.02.11-.05s.04-.07.04-.11c-.02-.89-.2-1.76-.55-2.57zm-6.45-4.28c-.85,0-1.66-.33-2.26-.94-.61-.61-.94-1.41-.94-2.26s.33-1.66.94-2.26c.61-.61,1.41-.94,2.26-.94.86,0,1.66.33,2.26.94s.94,1.41.94,2.26c0,.86-.33,1.66-.94,2.26s-1.41.94-2.26.94z"/></g></g></svg>
