<svg xmlns="http://www.w3.org/2000/svg" viewBox="0,0,250,381"><g><path d="m0,0h250v381H0z" fill="#000c17"/></g><g><path d="m0,40h250v261H0z" fill="#000c17"/></g><g><path d="m0,83v40h250V83z" fill="#40a9ff"/></g><g><path d="m246,83h4v40h-4z" fill="#1890ff"/></g><g><path d="m0,0v40h250V0z" fill="#001529"/></g><g><g fill="#fff"><path d="m231.87,24.24h-1.19c-.08,0-.16-.04-.2-.11L226,17.65l-4.49,6.48c-.05.07-.12.11-.2.11h-1.19c-.1,0-.16-.12-.1-.21l5.57-8.04c.2-.29.62-.29.82,0l5.57,8.04c.06.09,0,.21-.1.21z"/></g></g><g><g fill="#fff"><path d="m23.09,13h-5.78c-.17,0-.3.14-.3.3v5.78c0,.17.14.3.3.3h5.78c.17,0,.3-.14.3-.3V13.3c0-.17-.14-.3-.3-.3zm-.99,5.1h-3.81v-3.81h3.81v3.81zm8.6-5.1h-5.78c-.17,0-.3.14-.3.3v5.78c0,.17.14.3.3.3h5.78c.17,0,.3-.14.3-.3V13.3c0-.17-.14-.3-.3-.3zM29.71,18.1H25.9v-3.81h3.81v3.81zm-6.62,2.51h-5.78c-.17,0-.3.14-.3.3v5.78c0,.17.14.3.3.3h5.78c.17,0,.3-.14.3-.3v-5.78c0-.17-.14-.3-.3-.3zm-.99,5.1h-3.81V21.9h3.81v3.81zm8.6-5.1h-5.78c-.17,0-.3.14-.3.3v5.78c0,.17.14.3.3.3h5.78c.17,0,.3-.14.3-.3v-5.78c0-.17-.14-.3-.3-.3zM29.71,25.71H25.9V21.9h3.81v3.81z"/></g></g><g><path d="m0,341v40h250v-40z" fill="#001529"/></g><g><g fill="#bfbfbf"><path d="m231.87,356.76h-1.19c-.08,0-.16.04-.2.11l-4.49,6.48-4.49-6.48c-.05-.07-.12-.11-.2-.11h-1.19c-.1,0-.16.12-.1.21l5.57,8.04c.2.29.62.29.82,0l5.57-8.04c.06-.09,0-.21-.1-.21z"/></g></g><g><g fill="#bfbfbf"><path d="m23.09,354h-5.78c-.17,0-.3.14-.3.3v5.78c0,.17.14.3.3.3h5.78c.17,0,.3-.14.3-.3v-5.78c0-.17-.14-.3-.3-.3zm-.99,5.1h-3.81v-3.81h3.81v3.81zm8.6-5.1h-5.78c-.17,0-.3.14-.3.3v5.78c0,.17.14.3.3.3h5.78c.17,0,.3-.14.3-.3v-5.78c0-.17-.14-.3-.3-.3zM29.71,359.1H25.9v-3.81h3.81v3.81zm-6.62,2.51h-5.78c-.17,0-.3.14-.3.3v5.78c0,.17.14.3.3.3h5.78c.17,0,.3-.14.3-.3v-5.78c0-.17-.14-.3-.3-.3zm-.99,5.1h-3.81v-3.81h3.81v3.81zm8.6-5.1h-5.78c-.17,0-.3.14-.3.3v5.78c0,.17.14.3.3.3h5.78c.17,0,.3-.14.3-.3v-5.78c0-.17-.14-.3-.3-.3zM29.71,366.71H25.9v-3.81h3.81v3.81z"/></g></g><g><path d="m0,301v40h250v-40z" fill="#001529"/></g><g><g fill="#bfbfbf"><path d="m231.87,316.76h-1.19c-.08,0-.16.04-.2.11l-4.49,6.48-4.49-6.48c-.05-.07-.12-.11-.2-.11h-1.19c-.1,0-.16.12-.1.21l5.57,8.04c.2.29.62.29.82,0l5.57-8.04c.06-.09,0-.21-.1-.21z"/></g></g><g><g fill="#bfbfbf"><path d="m23.09,314h-5.78c-.17,0-.3.14-.3.3v5.78c0,.17.14.3.3.3h5.78c.17,0,.3-.14.3-.3v-5.78c0-.17-.14-.3-.3-.3zm-.99,5.1h-3.81v-3.81h3.81v3.81zm8.6-5.1h-5.78c-.17,0-.3.14-.3.3v5.78c0,.17.14.3.3.3h5.78c.17,0,.3-.14.3-.3v-5.78c0-.17-.14-.3-.3-.3zM29.71,319.1H25.9v-3.81h3.81v3.81zm-6.62,2.51h-5.78c-.17,0-.3.14-.3.3v5.78c0,.17.14.3.3.3h5.78c.17,0,.3-.14.3-.3v-5.78c0-.17-.14-.3-.3-.3zm-.99,5.1h-3.81v-3.81h3.81v3.81zm8.6-5.1h-5.78c-.17,0-.3.14-.3.3v5.78c0,.17.14.3.3.3h5.78c.17,0,.3-.14.3-.3v-5.78c0-.17-.14-.3-.3-.3zM29.71,326.71H25.9v-3.81h3.81v3.81z"/></g></g></svg>
