<svg xmlns="http://www.w3.org/2000/svg" fill="none" viewBox="0,0,360,56"><defs><clipPath id="b"><path d="m0,0v56h360V0z"/></clipPath><clipPath id="c"><path d="m0,0v56h360V0z"/></clipPath><clipPath id="d"><path d="m16,8h24v40H16z"/></clipPath><clipPath id="e"><path d="m849,350h18v18h-18z"/></clipPath><clipPath id="f"><use href="#a"/></clipPath><rect rx="2" x="849" y="350" width="18" height="18" id="a" opacity=".38" fill="none" stroke-width="4" stroke="#1c1b1f"/><clipPath id="g"><path d="m849,350h18v18h-18z" opacity=".38"/></clipPath><clipPath id="h"><path d="m19,19h18v18H19z"/></clipPath><clipPath id="i"><path d="m19,19h18v18H19z"/></clipPath></defs><g clip-path="url(#b)"><clipPath/><g><g><path d="m0,0v56h360V0z" fill="#fffbfe"/></g><g clip-path="url(#c)"><clipPath/><g><g opacity=".38"><g><text x="56" y="36.91" textLength="63" lengthAdjust="spacingAndGlyphs" style="dominant-baseline:ideographic;text-transform:none;font-family:Roboto;letter-spacing:.04px;font-weight:400;white-space:pre;font-size:16px;fill:#1c1b1f">Headline</text></g></g><g clip-path="url(#d)"><clipPath/><g><g clip-path="url(#e)"><clipPath/><g><g><g><use href="#a" clip-path="url(#f)"/></g></g><g clip-path="url(#g)"><clipPath/><g opacity=".38"><g><path d="m922.62,695.15-4.2-4.2.81-.81,3.39,3.39,7.2-7.2.81.81-8.01,8.01z" fill="#fff"/></g></g></g></g></g><g clip-path="url(#h)"><clipPath/><g><g><rect rx="2" x="19" y="19" width="18" height="18" opacity=".38" fill="#1c1b1f"/></g><g clip-path="url(#i)"><clipPath/><g><g><path d="m26.09,32.39-4.2-4.2.81-.81,3.39,3.39,7.2-7.2.81.81-8.01,8.01z" fill="#fffbfe"/></g></g></g></g></g></g></g></g></g></g></g></svg>
