<svg xmlns="http://www.w3.org/2000/svg" fill="none" viewBox="0,0,360,72"><defs><clipPath id="a"><path d="m0,0v72h360V0z"/></clipPath><clipPath id="b"><path d="m0,0v72h360V0z"/></clipPath><clipPath id="c"><path d="m311,8h25v56h-25z"/></clipPath><clipPath id="d"><path d="m16,8h24v56H16z"/></clipPath><clipPath id="e"><path d="m19,27h18v18H19z"/></clipPath><clipPath id="f"><path d="m19,27h18v18H19z"/></clipPath></defs><g clip-path="url(#a)"><clipPath/><g><g><path d="m0,0v72h360V0z" fill="#fffbfe"/></g><g clip-path="url(#b)"><clipPath/><g><g clip-path="url(#c)"><clipPath/><g><g><g><text x="311" y="41.65" textLength="25.09" lengthAdjust="spacingAndGlyphs" style="dominant-baseline:ideographic;text-transform:none;font-family:Roboto;letter-spacing:.05px;font-weight:500;white-space:pre;font-size:11px;fill:#49454e">100+</text></g></g></g></g><g><g><g><text x="56" y="54" textLength="131.77" lengthAdjust="spacingAndGlyphs" style="dominant-baseline:ideographic;text-transform:none;font-family:Roboto;letter-spacing:.02px;font-weight:400;white-space:pre;font-size:14px;fill:#49454e">Short supporting text</text></g></g><g><g><text x="56" y="36.41" textLength="63" lengthAdjust="spacingAndGlyphs" style="dominant-baseline:ideographic;text-transform:none;font-family:Roboto;letter-spacing:.04px;font-weight:400;white-space:pre;font-size:16px;fill:#1c1b1f">Headline</text></g></g></g><g clip-path="url(#d)"><clipPath/><g><g clip-path="url(#e)"><clipPath/><g><g><rect rx="2" x="19" y="27" width="18" height="18" fill="#6750a4"/></g><g clip-path="url(#f)"><clipPath/><g><g><path d="m26.09,40.39-4.2-4.2.81-.81,3.39,3.39,7.2-7.2.81.81-8.01,8.01z" fill="#fff"/></g></g></g></g></g></g></g></g></g></g></g></svg>
