<svg xmlns="http://www.w3.org/2000/svg" fill="none" viewBox="0,0,360,72"><defs><clipPath id="b"><path d="m0,0v72h360V0z"/></clipPath><clipPath id="c"><path d="m0,0v72h360V0z"/></clipPath><clipPath id="d"><path d="m56,8v56h280V8z"/></clipPath><clipPath id="e"><path d="m16,8h24v56H16z"/></clipPath><clipPath id="f"><path d="m63,366h18v18H63z"/></clipPath><clipPath id="g"><use href="#a"/></clipPath><rect rx="2" x="63" y="366" width="18" height="18" id="a" fill="none" stroke-width="4" stroke="#1c1b1f"/><clipPath id="h"><path d="m63,366h18v18H63z"/></clipPath><clipPath id="i"><path d="m19,27h18v18H19z"/></clipPath><clipPath id="j"><path d="m19,27h18v18H19z"/></clipPath></defs><g clip-path="url(#b)"><clipPath/><g><g><path d="m0,0v72h360V0z" fill="#fffbfe"/></g><g clip-path="url(#c)"><clipPath/><g><g clip-path="url(#d)"><clipPath/><g><g><g><text x="56" y="54" textLength="131.77" lengthAdjust="spacingAndGlyphs" style="dominant-baseline:ideographic;text-transform:none;font-family:Roboto;letter-spacing:.02px;font-weight:400;white-space:pre;font-size:14px;fill:#49454e">Short supporting text</text></g></g><g><g><text x="56" y="36.41" textLength="63" lengthAdjust="spacingAndGlyphs" style="dominant-baseline:ideographic;text-transform:none;font-family:Roboto;letter-spacing:.04px;font-weight:400;white-space:pre;font-size:16px;fill:#1c1b1f">Headline</text></g></g></g></g><g clip-path="url(#e)"><clipPath/><g><g clip-path="url(#f)"><clipPath/><g><g><g><use href="#a" clip-path="url(#g)"/></g></g><g clip-path="url(#h)"><clipPath/><g><g><path d="m136.62,711.15-4.2-4.2.81-.81,3.39,3.39,7.2-7.2.81.81-8.01,8.01z" fill="#fff"/></g></g></g></g></g><g clip-path="url(#i)"><clipPath/><g><g><rect rx="2" x="19" y="27" width="18" height="18" fill="#6750a4"/></g><g clip-path="url(#j)"><clipPath/><g><g><path d="m26.09,40.39-4.2-4.2.81-.81,3.39,3.39,7.2-7.2.81.81-8.01,8.01z" fill="#fff"/></g></g></g></g></g></g></g></g></g></g></g></svg>
