<svg xmlns="http://www.w3.org/2000/svg" fill="none" viewBox="0,0,360,72"><defs><clipPath id="b"><path d="m0,0v72h360V0z"/></clipPath><clipPath id="c"><path d="m0,0v72h360V0z"/></clipPath><clipPath id="d"><path d="m0,4v64h114V4z" opacity=".38" fill="#e7e0ec"/></clipPath><clipPath id="e"><path d="m4,36v26h106V36z"/></clipPath><clipPath id="f"><path d="m4,8v20h106V8z"/></clipPath><clipPath id="g"><use href="#a"/></clipPath><path id="a" d="m0,4v64h114V4z" opacity=".38" fill="none" stroke-width="4" stroke="#c4c7c5"/></defs><g clip-path="url(#b)"><clipPath/><g><g><path d="m0,0v72h360V0z" fill="#fffbfe"/></g><g clip-path="url(#c)"><clipPath/><g><g><g opacity=".38"><g><text x="130" y="55.83" textLength="131.77" lengthAdjust="spacingAndGlyphs" style="dominant-baseline:ideographic;text-transform:none;font-family:Roboto;letter-spacing:.02px;font-weight:400;white-space:pre;font-size:14px;fill:#1c1b1f">Short supporting text</text></g></g><g opacity=".38"><g><text x="130" y="34.57" textLength="63" lengthAdjust="spacingAndGlyphs" style="dominant-baseline:ideographic;text-transform:none;font-family:Roboto;letter-spacing:.04px;font-weight:400;white-space:pre;font-size:16px;fill:#1c1b1f">Headline</text></g></g></g><g clip-path="url(#d)"><clipPath><path d="m0,4v64h114V4z" opacity=".38" fill="#e7e0ec"/></clipPath><g><path d="m0,4v64h114V4z" opacity=".38" fill="#e7e0ec"/></g><g opacity=".38"><g clip-path="url(#e)"><clipPath/><g><g><circle cx="74" cy="48" r="12" opacity=".38" fill="#49454e"/></g><g opacity=".38"><g><path d="m31.79,57.67c-.43,0-.81-.16-1.14-.49s-.49-.7-.49-1.14V41.96c0-.43.16-.81.49-1.14s.7-.49,1.14-.49h14.08c.43,0,.81.16,1.14.49.32.33.49.7.49,1.14v5.82l4.33-4.33v11.1l-4.33-4.33v5.82c0,.43-.16.81-.49,1.14s-.71.49-1.14.49H31.79zm0-1.63h14.08V41.96H31.79v14.08zm0,0V41.96,56.04z" fill="#49454e"/></g></g></g></g><g clip-path="url(#f)"><clipPath/><g><g><path d="m69,28H45L57,8,69,28z" opacity=".38" fill="#49454e"/></g></g></g></g></g><g><g><use href="#a" clip-path="url(#g)"/></g></g></g></g></g></g></svg>
