<svg xmlns="http://www.w3.org/2000/svg" fill="none" viewBox="0,0,390,48"><defs><clipPath id="c"><path d="m0,0v48h390V0z" fill="#fff"/></clipPath><clipPath id="d"><path d="m0,0v48h390V0z"/></clipPath><clipPath id="e"><use href="#a"/></clipPath><rect rx="2" x="284.62" y="12" width="24" height="24" id="a" fill="none" stroke-width="4" stroke="#fffbfe"/><clipPath id="f"><use href="#b"/></clipPath><circle cx="191.24" cy="24" id="b" r="12" fill="none" stroke-width="4" stroke="#fffbfe"/></defs><g clip-path="url(#c)"><clipPath><path d="m0,0v48h390V0z" fill="#fff"/></clipPath><g><path d="m0,0v48h390V0z" fill="#fff"/></g><g><g><path d="m0,0v48h390V0z" fill="#313033"/></g><g clip-path="url(#d)"><clipPath/><g><g><g><use href="#a" clip-path="url(#e)"/></g></g><g><g><use href="#b" clip-path="url(#f)"/></g></g><g><path clip-rule="evenodd" shape-rendering="geometricPrecision" d="m97.86,14.86v18.27c0,.77-.29,1.43-.74,1.92v.01c-.27.3-.61.53-.97.69-.37.16-.77.25-1.17.25-.67,0-1.36-.24-1.92-.76l-10.64-9.12c-.12-.1-.23-.2-.33-.31l-.06-.08c-.43-.52-.64-1.15-.65-1.78-.01-.66.21-1.33.66-1.86.09-.11.19-.21.32-.32l10.76-9.06c.56-.48,1.21-.7,1.86-.7.42,0,.83.09,1.2.26.38.17.72.42.99.73.43.49.69,1.13.69,1.87zm-2.09,18.27V14.86c0-.19-.07-.36-.19-.49-.08-.09-.17-.16-.28-.21s-.22-.08-.33-.08c-.16,0-.33.06-.48.2-3.49,3.04-7.37,5.96-10.75,9.05-.02.02-.05.05-.09.09-.12.15-.18.33-.18.51,0,.16.05.32.15.45l.13.13c2.82,2.88,7.52,6.44,10.73,9.19.15.14.33.2.51.2.12,0,.23-.02.33-.07.1-.04.19-.11.27-.19.11-.12.18-.3.19-.51z" fill="#fffbfe"/></g></g></g></g></g></svg>
