<svg xmlns="http://www.w3.org/2000/svg" fill="none" viewBox="0,0,390,80"><defs><clipPath id="a"><path d="m0,0v80h390V0z"/></clipPath><clipPath id="b"><path d="m0,0h390v80H0z"/></clipPath><clipPath id="c"><path d="m0,0h390v80H0z"/></clipPath><clipPath id="d"><path d="m318,12h56v56h-56z"/></clipPath><clipPath id="e"><path d="m4,12h306v56H4z"/></clipPath></defs><g clip-path="url(#a)"><clipPath/><g><g clip-path="url(#b)"><clipPath/><g><g><path d="m0,0h390v80H0z" fill="#fffbfe"/></g><g><path d="m0,0h390v80H0z" opacity="8%" fill="#6750a4"/></g></g></g><g clip-path="url(#c)"><clipPath/><g><g><g><g><g><path d="m318,12h56v56h-56z" fill="#eaddff"/></g><g><path d="m318,12h56v56h-56z" opacity=".11" fill="#6750a4"/></g></g><g clip-path="url(#d)"><clipPath/><g><g><path d="m345.25,47v-6.25H339v-1.5h6.25V33h1.5v6.25H353v1.5h-6.25V47h-1.5z" fill="#21005e"/></g></g></g></g></g><g clip-path="url(#e)"><clipPath/><g><g><g><g fill="#000"><path d="m203.9,48.98-6.58-6.58c-.5.43-1.08.77-1.75,1.01s-1.38.36-2.13.36c-1.8,0-3.33-.63-4.58-1.88S187,39.14,187,37.38s.63-3.28,1.88-4.53,2.76-1.88,4.54-1.88,3.28.63,4.53,1.88c1.24,1.25,1.86,2.76,1.86,4.53,0,.71-.12,1.4-.35,2.07s-.58,1.29-1.05,1.88l6.6,6.55-1.1,1.1zm-10.48-6.7c1.35,0,2.51-.48,3.45-1.44.95-.96,1.42-2.11,1.42-3.46s-.47-2.5-1.42-3.46-2.1-1.44-3.45-1.44c-1.37,0-2.53.48-3.49,1.44s-1.44,2.11-1.44,3.46.48,2.5,1.44,3.46,2.12,1.44,3.49,1.44z"/></g></g></g><g><g><g fill="#000"><path d="m140,41.43c-.72,0-1.32-.26-1.8-.77s-.73-1.14-.73-1.88V32.5c0-.69.25-1.29.74-1.77S139.3,30,140,30s1.3.24,1.79.73.74,1.08.74,1.77v6.28c0,.74-.24,1.36-.73,1.88s-1.08.77-1.8.77zm-.75,7.57v-3.4c-1.77-.18-3.25-.93-4.45-2.23s-1.8-2.83-1.8-4.6h1.5c0,1.52.54,2.79,1.61,3.83,1.07,1.03,2.37,1.55,3.89,1.55s2.82-.52,3.89-1.55,1.61-2.31,1.61-3.83h1.5c0,1.77-.6,3.3-1.8,4.6s-2.68,2.04-4.45,2.23V49h-1.5zm.75-9.08c.3,0,.55-.11.74-.34s.29-.5.29-.81V32.5c0-.28-.1-.52-.3-.71s-.44-.29-.73-.29-.53.1-.73.29-.3.43-.3.71v6.28c0,.32.1.59.29.81.19.23.44.34.74.34z"/></g></g></g><g><g><g fill="#000"><path d="m77.5,48c-.4,0-.75-.15-1.05-.45S76,46.9,76,46.5v-3.58h1.5v3.58h13v-3.58H92v3.58c0,.4-.15.75-.45,1.05s-.65.45-1.05.45h-13zm6.5-3.83-4.83-4.83,1.08-1.08,3,3V32h1.5v9.28l3-3,1.08,1.08L84,44.18z"/></g></g></g><g><g><g><path d="m28,37.65-1.05-1.05,1.85-1.85h-4.55v-1.5h4.55l-1.85-1.85L28,30.35,31.65,34,28,37.65zM23.25,50c-.5,0-.92-.18-1.27-.53s-.53-.78-.53-1.28.18-.92.53-1.27.78-.53,1.28-.53.92.18,1.27.53.53.78.53,1.28-.18.92-.53,1.27-.78.53-1.28.53zm10.1,0c-.5,0-.92-.18-1.27-.53s-.53-.78-.53-1.28.18-.92.53-1.27.78-.53,1.28-.53.92.18,1.27.53.53.78.53,1.28-.18.92-.53,1.27-.78.53-1.28.53zm-15.8-18.5V30h2.9l4.25,9.1h7.19l4.01-7h1.68l-4.05,7.58c-.18.32-.42.57-.71.76s-.61.29-.96.29h-7.58l-1.4,2.6h12.27v1.5H23.1c-.63,0-1.11-.25-1.43-.75s-.35-1.01-.07-1.53l1.6-2.95-3.7-8.1h-1.95z" fill="#6750a4"/></g></g></g></g></g></g></g></g></g></svg>
