<svg xmlns="http://www.w3.org/2000/svg" fill="none" viewBox="0,0,78,52"><defs><clipPath id="a"><rect rx="8" x="39" y="-4.22" width="16" height="16" fill="#b3261e"/></clipPath><clipPath id="b"><path d="m39-4.22h16v16H39z"/></clipPath></defs><g><g><g><text x="27.5" y="46" textLength="23.03" lengthAdjust="spacingAndGlyphs" style="dominant-baseline:ideographic;text-transform:none;font-family:Roboto;letter-spacing:.05px;font-weight:500;white-space:pre;font-size:12px;fill:#49454e">Cart</text></g></g><g><g><path d="m39,9.65L37.95,8.6,39.8,6.75h-4.55v-1.5h4.55L37.95,3.4,39,2.35,42.65,6,39,9.65zM34.25,22c-.5,0-.92-.18-1.27-.53s-.53-.78-.53-1.28.18-.92.53-1.27.78-.53,1.28-.53.92.18,1.27.53.53.78.53,1.28-.18.92-.53,1.27-.78.53-1.28.53zm10.1,0c-.5,0-.92-.18-1.27-.53s-.53-.78-.53-1.28.18-.92.53-1.27.78-.53,1.28-.53.92.18,1.27.53.53.78.53,1.28-.18.92-.53,1.27-.78.53-1.28.53zM28.55,3.5V2h2.9l4.25,9.1h7.19l4.01-7h1.68l-4.05,7.58c-.18.32-.42.57-.71.76s-.61.29-.96.29h-7.58l-1.4,2.6h12.27v1.5H34.1c-.63,0-1.11-.25-1.43-.75s-.35-1.01-.07-1.53l1.6-2.95-3.7-8.1h-1.95z" fill="#49454e"/></g><g><g clip-path="url(#a)"><clipPath><rect rx="8" x="39" y="-4.22" width="16" height="16" fill="#b3261e"/></clipPath><g><rect rx="8" x="39" y="-4.22" width="16" height="16" fill="#b3261e"/></g></g><g clip-path="url(#b)"><clipPath/><g><g><g><text x="44" y="9.58" textLength="6.3" lengthAdjust="spacingAndGlyphs" style="dominant-baseline:ideographic;text-transform:none;font-family:Roboto;letter-spacing:.05px;font-weight:500;white-space:pre;font-size:11px;fill:#fff">1</text></g></g></g></g></g></g></g></svg>
