<svg xmlns="http://www.w3.org/2000/svg" fill="none" viewBox="0,0,320,20"><defs><clipPath id="a"><rect rx="2" y="8" width="320" height="4" opacity=".12" fill="#1c1b1f"/></clipPath><clipPath id="b"><path d="m0,9v2h320V9z" opacity=".38"/></clipPath><clipPath id="c"><path d="m66,8h106v4H66z"/></clipPath><clipPath id="d"><path d="m66,8v4h106V8z" opacity=".38" fill="#1c1b1f"/></clipPath></defs><g><g clip-path="url(#a)"><clipPath><rect rx="2" y="8" width="320" height="4" opacity=".12" fill="#1c1b1f"/></clipPath><g><rect rx="2" y="8" width="320" height="4" opacity=".12" fill="#1c1b1f"/></g></g><g clip-path="url(#b)"><clipPath/><g opacity=".38"><g opacity=".38"><g><ellipse rx="1" ry="1" cx="595" cy="10" fill="#1c1b1f"/></g><g><ellipse rx="1" ry="1" cx="577" cy="10" fill="#1c1b1f"/></g><g><ellipse rx="1" ry="1" cx="559" cy="10" fill="#1c1b1f"/></g><g><ellipse rx="1" ry="1" cx="541" cy="10" fill="#1c1b1f"/></g><g><ellipse rx="1" ry="1" cx="523" cy="10" fill="#1c1b1f"/></g><g><ellipse rx="1" ry="1" cx="505" cy="10" fill="#1c1b1f"/></g><g><ellipse rx="1" ry="1" cx="487" cy="10" fill="#1c1b1f"/></g><g><ellipse rx="1" ry="1" cx="469" cy="10" fill="#1c1b1f"/></g><g><ellipse rx="1" ry="1" cx="451" cy="10" fill="#1c1b1f"/></g><g><circle cx="433" cy="10" r="1" fill="#1c1b1f"/></g><g><ellipse rx="1" ry="1" cx="415" cy="10" fill="#1c1b1f"/></g><g><ellipse rx="1" ry="1" cx="397" cy="10" fill="#1c1b1f"/></g><g><ellipse rx="1" ry="1" cx="379" cy="10" fill="#1c1b1f"/></g><g><ellipse rx="1" ry="1" cx="361" cy="10" fill="#1c1b1f"/></g><g><ellipse rx="1" ry="1" cx="343" cy="10" fill="#1c1b1f"/></g><g><ellipse rx="1" ry="1" cx="325" cy="10" fill="#1c1b1f"/></g><g><ellipse rx="1" ry="1" cx="307" cy="10" fill="#1c1b1f"/></g><g><ellipse rx="1" ry="1" cx="289" cy="10" fill="#1c1b1f"/></g><g><ellipse rx="1" ry="1" cx="271" cy="10" fill="#1c1b1f"/></g><g><ellipse rx="1" ry="1" cx="253" cy="10" fill="#1c1b1f"/></g><g><ellipse rx="1" ry="1" cx="235" cy="10" fill="#1c1b1f"/></g><g><ellipse rx="1" ry="1" cx="217" cy="10" fill="#1c1b1f"/></g><g><ellipse rx="1" ry="1" cx="199" cy="10" fill="#1c1b1f"/></g><g><ellipse rx="1" ry="1" cx="181" cy="10" fill="#1c1b1f"/></g><g><ellipse rx="1" ry="1" cx="163" cy="10" fill="#1c1b1f"/></g><g><ellipse rx="1" ry="1" cx="145" cy="10" fill="#1c1b1f"/></g><g><ellipse rx="1" ry="1" cx="127" cy="10" fill="#1c1b1f"/></g><g><ellipse rx="1" ry="1" cx="109" cy="10" fill="#1c1b1f"/></g><g><ellipse rx="1" ry="1" cx="91" cy="10" fill="#1c1b1f"/></g><g><ellipse rx="1" ry="1" cx="73" cy="10" fill="#1c1b1f"/></g><g><ellipse rx="1" ry="1" cx="55" cy="10" fill="#1c1b1f"/></g><g><ellipse rx="1" ry="1" cx="37" cy="10" fill="#1c1b1f"/></g><g><ellipse rx="1" ry="1" cx="19" cy="10" fill="#1c1b1f"/></g><g><ellipse rx="1" ry="1" cx="1" cy="10" fill="#1c1b1f"/></g></g></g></g><g><g><ellipse rx="10" ry="10" cx="182" cy="10" opacity=".38" fill="#1c1b1f"/></g><g clip-path="url(#c)"><clipPath/><g><g clip-path="url(#d)"><clipPath><path d="m66,8v4h106V8z" opacity=".38" fill="#1c1b1f"/></clipPath><g><path d="m66,8v4h106V8z" opacity=".38" fill="#1c1b1f"/></g></g><g opacity=".38"><g opacity=".38"><g><ellipse rx="1" ry="1" cx="667" cy="10" fill="#1c1b1f"/></g><g><ellipse rx="1" ry="1" cx="649" cy="10" fill="#1c1b1f"/></g><g><ellipse rx="1" ry="1" cx="631" cy="10" fill="#1c1b1f"/></g><g><ellipse rx="1" ry="1" cx="613" cy="10" fill="#1c1b1f"/></g><g><ellipse rx="1" ry="1" cx="595" cy="10" fill="#1c1b1f"/></g><g><ellipse rx="1" ry="1" cx="577" cy="10" fill="#1c1b1f"/></g><g><ellipse rx="1" ry="1" cx="559" cy="10" fill="#1c1b1f"/></g><g><ellipse rx="1" ry="1" cx="541" cy="10" fill="#1c1b1f"/></g><g><ellipse rx="1" ry="1" cx="523" cy="10" fill="#1c1b1f"/></g><g><ellipse rx="1" ry="1" cx="505" cy="10" fill="#1c1b1f"/></g><g><ellipse rx="1" ry="1" cx="487" cy="10" fill="#1c1b1f"/></g><g><ellipse rx="1" ry="1" cx="469" cy="10" fill="#1c1b1f"/></g><g><ellipse rx="1" ry="1" cx="451" cy="10" fill="#1c1b1f"/></g><g><ellipse rx="1" ry="1" cx="433" cy="10" fill="#1c1b1f"/></g><g><ellipse rx="1" ry="1" cx="415" cy="10" fill="#1c1b1f"/></g><g><ellipse rx="1" ry="1" cx="397" cy="10" fill="#1c1b1f"/></g><g><ellipse rx="1" ry="1" cx="379" cy="10" fill="#1c1b1f"/></g><g><ellipse rx="1" ry="1" cx="361" cy="10" fill="#1c1b1f"/></g><g><ellipse rx="1" ry="1" cx="343" cy="10" fill="#1c1b1f"/></g><g><ellipse rx="1" ry="1" cx="325" cy="10" fill="#1c1b1f"/></g><g><ellipse rx="1" ry="1" cx="307" cy="10" fill="#1c1b1f"/></g><g><ellipse rx="1" ry="1" cx="289" cy="10" fill="#1c1b1f"/></g><g><ellipse rx="1" ry="1" cx="271" cy="10" fill="#1c1b1f"/></g><g><ellipse rx="1" ry="1" cx="253" cy="10" fill="#1c1b1f"/></g><g><ellipse rx="1" ry="1" cx="235" cy="10" fill="#1c1b1f"/></g><g><ellipse rx="1" ry="1" cx="217" cy="10" fill="#1c1b1f"/></g><g><ellipse rx="1" ry="1" cx="199" cy="10" fill="#1c1b1f"/></g><g><ellipse rx="1" ry="1" cx="181" cy="10" fill="#1c1b1f"/></g><g><ellipse rx="1" ry="1" cx="163" cy="10" fill="#1c1b1f"/></g><g><ellipse rx="1" ry="1" cx="145" cy="10" fill="#1c1b1f"/></g><g><ellipse rx="1" ry="1" cx="127" cy="10" fill="#1c1b1f"/></g><g><ellipse rx="1" ry="1" cx="109" cy="10" fill="#1c1b1f"/></g><g><ellipse rx="1" ry="1" cx="91" cy="10" fill="#1c1b1f"/></g><g><ellipse rx="1" ry="1" cx="73" cy="10" fill="#1c1b1f"/></g></g></g></g></g><g><ellipse rx="10" ry="10" cx="56" cy="10" opacity=".38" fill="#1c1b1f"/></g></g></g></svg>
