<svg xmlns="http://www.w3.org/2000/svg" viewBox="0,0,78,52"><g><g><g><text x="14" y="46" textLength="49.84" lengthAdjust="spacingAndGlyphs" style="dominant-baseline:ideographic;text-transform:none;font-family:Roboto;letter-spacing:.05px;font-weight:500;white-space:pre;font-size:12px;fill:#49454e">Favorites</text></g></g><g><path d="m39,20.98-1.03-.93c-1.76-1.62-3.22-3.02-4.37-4.19s-2.07-2.22-2.75-3.15c-.68-.92-1.16-1.76-1.44-2.51S29,8.69,29,7.93c0-1.5.5-2.76,1.51-3.76,1.01-1.01,2.25-1.51,3.74-1.51.95,0,1.83.23,2.64.68S38.4,4.44,39,5.29c.7-.9,1.44-1.56,2.23-1.99.78-.43,1.63-.64,2.53-.64,1.48,0,2.73.5,3.74,1.51,1,1,1.5,2.25,1.5,3.76,0,.77-.14,1.53-.41,2.28s-.76,1.59-1.44,2.51c-.68.93-1.6,1.98-2.75,3.15s-2.61,2.57-4.37,4.19l-1.03.92zM39,19c1.69-1.55,3.08-2.88,4.17-3.99s1.96-2.08,2.6-2.91,1.09-1.58,1.35-2.23.39-1.3.39-1.94c0-1.1-.35-2.01-1.05-2.72s-1.6-1.06-2.69-1.06c-.86,0-1.65.26-2.39.79S40.05,6.2,39.6,7.15h-1.23c-.43-.93-1.02-1.67-1.75-2.2s-1.53-.8-2.39-.8c-1.1,0-1.99.35-2.69,1.06s-1.05,1.62-1.05,2.72c0,.65.13,1.3.39,1.96s.71,1.41,1.35,2.25,1.51,1.81,2.61,2.91S37.33,17.47,39,19z" fill="#49454e"/></g></g></svg>
