<svg xmlns="http://www.w3.org/2000/svg" fill="none" viewBox="0,0,340,56"><style>.a{fill:#1c1b1f;font-family:Roboto;font-size:12px;font-weight:400;letter-spacing:.04px;text-transform:none;white-space:pre}</style><defs><clipPath id="a"><path d="m4,0h332a4,4,0,014,4v52H0V4a4,4,0,014-4z" opacity="4%" fill="#1c1b1f"/></clipPath><clipPath id="b"><path d="m0,55h340v1H0z" opacity=".38" fill="#1c1b1f"/></clipPath><clipPath id="c"><path d="m0,0h340v56H0z"/></clipPath></defs><g><g opacity=".38"><g><g><text x="298" y="74" dominant-baseline="ideographic" textLength="25.32" lengthAdjust="spacingAndGlyphs" class="a">6/30</text></g></g><g><g><text x="16" y="74" dominant-baseline="ideographic" textLength="84.73" lengthAdjust="spacingAndGlyphs" class="a">Supporting Text</text></g></g></g><g clip-path="url(#a)"><clipPath><path d="m4,0h332a4,4,0,014,4v52H0V4a4,4,0,014-4z" opacity="4%" fill="#1c1b1f"/></clipPath><g><path d="m4,0h332a4,4,0,014,4v52H0V4a4,4,0,014-4z" opacity="4%" fill="#1c1b1f"/></g></g><g><g clip-path="url(#b)"><clipPath><path d="m0,55h340v1H0z" opacity=".38" fill="#1c1b1f"/></clipPath><g><path d="m0,55h340v1H0z" opacity=".38" fill="#1c1b1f"/></g></g></g><g clip-path="url(#c)"><clipPath/><g><g opacity=".38"><g><text x="16" y="37" textLength="73.11" lengthAdjust="spacingAndGlyphs" style="dominant-baseline:ideographic;text-transform:none;font-family:Roboto;letter-spacing:.04px;font-weight:400;white-space:pre;font-size:16px;fill:#1c1b1f">Label Text</text></g></g></g></g></g></svg>
