<svg xmlns="http://www.w3.org/2000/svg" fill="none" viewBox="0,0,124,56"><style>.a{fill:#1c1b1f;font-family:Roboto;font-size:16px;font-weight:400;letter-spacing:.04px;text-transform:none;white-space:pre}</style><defs><clipPath id="a"><path d="m4,0h116a4,4,0,014,4v52H0V4a4,4,0,014-4z" opacity="4%" fill="#1c1b1f"/></clipPath><clipPath id="b"><path d="m0,55v1h124v-1z" opacity=".38" fill="#1c1b1f"/></clipPath><clipPath id="c"><path d="m0,0h124v56H0z"/></clipPath></defs><g><g clip-path="url(#a)"><clipPath><path d="m4,0h116a4,4,0,014,4v52H0V4a4,4,0,014-4z" opacity="4%" fill="#1c1b1f"/></clipPath><g><path d="m4,0h116a4,4,0,014,4v52H0V4a4,4,0,014-4z" opacity="4%" fill="#1c1b1f"/></g></g><g><g clip-path="url(#b)"><clipPath><path d="m0,55v1h124v-1z" opacity=".38" fill="#1c1b1f"/></clipPath><g><path d="m0,55v1h124v-1z" opacity=".38" fill="#1c1b1f"/></g></g></g><g clip-path="url(#c)"><clipPath/><g><g><g><g opacity=".38"><g><text x="87" y="47" dominant-baseline="ideographic" textLength="21.23" lengthAdjust="spacingAndGlyphs" class="a">lbs</text></g></g><g opacity=".38"><g><text x="16" y="47" dominant-baseline="ideographic" textLength="27.08" lengthAdjust="spacingAndGlyphs" class="a">143</text></g></g></g><g opacity=".38"><g><text x="16" y="22" textLength="54.93" lengthAdjust="spacingAndGlyphs" style="dominant-baseline:ideographic;text-transform:none;font-family:Roboto;letter-spacing:.04px;font-weight:400;white-space:pre;font-size:12px;fill:#1c1b1f">Label Text</text></g></g></g></g></g></g></svg>
