<svg xmlns="http://www.w3.org/2000/svg" fill="none" viewBox="0,0,360,432"><style>.a{fill:#49454e;font-family:Roboto;font-size:14px;font-weight:400;letter-spacing:.02px;text-transform:none;white-space:pre}.b{fill:#49454e;font-family:Roboto;font-size:16px;font-weight:400;letter-spacing:.04px;text-transform:none;white-space:pre}</style><defs><clipPath id="c"><path d="m0,0h360v432H0z"/></clipPath><clipPath id="d"><path d="m0,0h360v432H0z"/></clipPath><clipPath id="e"><path d="m0,0h360v432H0z"/></clipPath><clipPath id="f"><path d="m0,0h360v432H0z"/></clipPath><clipPath id="g"><path d="m0,213.98h360v201H0z"/></clipPath><clipPath id="h"><path d="m0,326.98v88h360v-88z"/></clipPath><clipPath id="i"><path d="m0,326.98v88h360v-88z"/></clipPath><clipPath id="j"><rect rx="28" x="12" y="334.98" width="56" height="56"/></clipPath><pattern patternUnits="userSpaceOnUse" x="12" y="334.98" height="56" width="56" id="k"/><clipPath id="l"><path d="m0,238.98v88h360v-88z"/></clipPath><clipPath id="m"><path d="m0,238.98v88h360v-88z"/></clipPath><clipPath id="n"><rect rx="28" x="12" y="246.98" width="56" height="56"/></clipPath><pattern patternUnits="userSpaceOnUse" x="12" y="246.98" height="56" width="56" id="o"/><clipPath id="p"><path d="m16,196.98v1h328v-1z" opacity=".4"/></clipPath><clipPath id="q"><use href="#a"/></clipPath><path id="a" d="m16,196.98v1h328v-1z" opacity=".4" fill="none" stroke-width="2" stroke="#c4c7c5"/><clipPath id="r"><path d="m0,81h360v111.98H0z"/></clipPath><clipPath id="s"><path d="m0,136.99h360v55.99H0z"/></clipPath><clipPath id="t"><path d="m0,136.99h360v56H0z"/></clipPath><clipPath id="u"><path d="m0,81h360v55.99H0z"/></clipPath><clipPath id="v"><path d="m0,81h360v56H0z"/></clipPath><clipPath id="w"><path d="m0,72v1h360v-1z" opacity=".4"/></clipPath><clipPath id="x"><use href="#b"/></clipPath><path id="b" d="m0,72v1h360v-1z" opacity=".4" fill="none" stroke-width="2" stroke="#c4c7c5"/><clipPath id="y"><path d="m0,16v52h360V16z"/></clipPath><clipPath id="z"><path d="m56,24h248v24H56z"/></clipPath></defs><g clip-path="url(#c)"><clipPath/><g><g clip-path="url(#d)"><clipPath/><g><g clip-path="url(#e)"><clipPath/><g><g><path d="m0,0h360v432H0z" fill="#fffbfe"/></g><g><path d="m0,0h360v432H0z" opacity=".11" fill="#6750a4"/></g></g></g><g clip-path="url(#f)"><clipPath/><g><g clip-path="url(#g)"><clipPath/><g><g clip-path="url(#h)"><clipPath/><g><g clip-path="url(#i)"><clipPath/><g><g><g><g><text x="84" y="379.98" dominant-baseline="ideographic" textLength="233.72" lengthAdjust="spacingAndGlyphs" class="a">I'm allergic to peanuts, but I still think </text></g><g><text x="84" y="397.28" dominant-baseline="ideographic" textLength="118.74" lengthAdjust="spacingAndGlyphs" class="a">they're the nuttiest.</text></g></g><g><g><text x="84" y="362.39" dominant-baseline="ideographic" textLength="133.84" lengthAdjust="spacingAndGlyphs" class="b">Why I love peanuts</text></g></g></g><g clip-path="url(#j)"><clipPath/><g><g><path fill="url(#k)" d="m12,334.98h56v56H12z"/></g></g></g></g></g></g></g><g clip-path="url(#l)"><clipPath/><g><g clip-path="url(#m)"><clipPath/><g><g><g><g><text x="84" y="291.98" dominant-baseline="ideographic" textLength="263.52" lengthAdjust="spacingAndGlyphs" class="a">Here are some healthy recipes for peanut. </text></g><g><text x="84" y="309.28" dominant-baseline="ideographic" textLength="166.88" lengthAdjust="spacingAndGlyphs" class="a">Peanut is such a good boy.</text></g></g><g><g><text x="84" y="274.39" dominant-baseline="ideographic" textLength="134.06" lengthAdjust="spacingAndGlyphs" class="b">Recipes for peanut</text></g></g></g><g clip-path="url(#n)"><clipPath/><g><g><path fill="url(#o)" d="m12,246.98h56v56H12z"/></g></g></g></g></g></g></g><g><g><text x="16" y="230.48" textLength="85.98" lengthAdjust="spacingAndGlyphs" style="dominant-baseline:ideographic;text-transform:none;font-family:Roboto;letter-spacing:.01px;font-weight:500;white-space:pre;font-size:14px;fill:#49454e">Quick Results</text></g></g></g></g><g><clipPath clip-path="url(#p)"/><g><g><use href="#a" clip-path="url(#q)"/></g></g></g><g clip-path="url(#r)"><clipPath/><g><g clip-path="url(#s)"><clipPath/><g><g clip-path="url(#t)"><clipPath/><g><g><g><text x="52" y="173.99" dominant-baseline="ideographic" textLength="121.35" lengthAdjust="spacingAndGlyphs" class="b">Peanut's Recipes</text></g></g><g><path d="m23.93,173.99c-2.48,0-4.59-.88-6.33-2.64-1.73-1.76-2.6-3.89-2.6-6.39h1.5c0,2.08.72,3.86,2.15,5.33s3.19,2.2,5.28,2.2c2.12,0,3.91-.74,5.38-2.23s2.2-3.28,2.2-5.4c0-2.07-.74-3.81-2.23-5.24s-3.27-2.14-5.35-2.14c-1.13,0-2.2.26-3.19.78s-1.86,1.2-2.59,2.05h2.63v1.5h-5.23v-5.2h1.5v2.65c.87-1.02,1.9-1.82,3.09-2.4s2.45-.88,3.79-.88c1.25,0,2.43.23,3.53.7s2.06,1.1,2.89,1.91,1.48,1.75,1.95,2.84.71,2.25.71,3.5-.24,2.43-.71,3.53-1.13,2.06-1.95,2.88-1.79,1.46-2.89,1.94-2.28.71-3.53.71zm3.2-4.93-3.85-3.8v-5.35h1.5v4.73l3.43,3.35-1.08,1.08z" fill="#49454e"/></g></g></g></g></g><g clip-path="url(#u)"><clipPath/><g><g clip-path="url(#v)"><clipPath/><g><g><g><text x="52" y="118" dominant-baseline="ideographic" textLength="50.29" lengthAdjust="spacingAndGlyphs" class="b">Peanut</text></g></g><g><path d="m23.93,118c-2.48,0-4.59-.88-6.33-2.64-1.73-1.76-2.6-3.89-2.6-6.39h1.5c0,2.08.72,3.86,2.15,5.33s3.19,2.2,5.28,2.2c2.12,0,3.91-.74,5.38-2.23s2.2-3.28,2.2-5.4c0-2.07-.74-3.81-2.23-5.24s-3.27-2.14-5.35-2.14c-1.13,0-2.2.26-3.19.78s-1.86,1.2-2.59,2.05h2.63v1.5h-5.23v-5.2h1.5v2.65c.87-1.02,1.9-1.82,3.09-2.4s2.45-.88,3.79-.88c1.25,0,2.43.23,3.53.7s2.06,1.1,2.89,1.91,1.48,1.75,1.95,2.84.71,2.25.71,3.5-.24,2.43-.71,3.53-1.13,2.06-1.95,2.88-1.79,1.46-2.89,1.94-2.28.71-3.53.71zm3.2-4.93-3.85-3.8v-5.35h1.5v4.73L28.2,112l-1.08,1.08z" fill="#49454e"/></g></g></g></g></g></g></g><g><clipPath clip-path="url(#w)"/><g><g><use href="#b" clip-path="url(#x)"/></g></g></g><g clip-path="url(#y)"><clipPath/><g><g><g><g><path d="m339.9,44.98-6.58-6.58c-.5.43-1.08.77-1.75,1.01s-1.38.36-2.13.36c-1.8,0-3.33-.63-4.58-1.88S323,35.14,323,33.38s.63-3.28,1.88-4.53,2.76-1.88,4.54-1.88,3.28.63,4.53,1.88c1.24,1.25,1.86,2.76,1.86,4.53,0,.71-.12,1.4-.35,2.07s-.58,1.29-1.05,1.88l6.6,6.55-1.1,1.1zm-10.48-6.7c1.35,0,2.51-.48,3.45-1.44.95-.96,1.42-2.11,1.42-3.46s-.47-2.5-1.42-3.46-2.1-1.44-3.45-1.44c-1.37,0-2.53.48-3.49,1.44s-1.44,2.11-1.44,3.46.48,2.5,1.44,3.46,2.12,1.44,3.49,1.44z" fill="#49454e"/></g></g></g><g clip-path="url(#z)"><clipPath/><g><g><g><text x="60" y="42.91" dominant-baseline="ideographic" textLength="105.45" lengthAdjust="spacingAndGlyphs" class="b">Search Replies</text></g></g><g><g><text x="56" y="42.91" textLength="3.95" lengthAdjust="spacingAndGlyphs" style="dominant-baseline:ideographic;text-transform:none;font-family:Roboto;letter-spacing:.04px;font-weight:400;white-space:pre;font-size:16px;fill:#1c1b1f">|</text></g></g></g></g><g><g><g><path d="m28,44-8-8,8-8,1.05,1.05-6.2,6.2H36v1.5H22.85l6.2,6.2L28,44z" fill="#1c1b1f"/></g></g></g></g></g></g></g></g></g></g></g></svg>
