<svg xmlns="http://www.w3.org/2000/svg" fill="none" viewBox="0,0,180,180"><defs><clipPath id="b"><path d="m0,0h180v180H0z"/></clipPath><clipPath id="c"><use href="#a"/></clipPath><rect rx="12" width="180" height="180" id="a" fill="none" stroke-width="2" stroke="#79747e"/><clipPath id="d"><path d="m0,0h180v180H0z"/></clipPath></defs><g clip-path="url(#b)"><clipPath/><g><g><rect rx="12" width="180" height="180" fill="#fffbfe"/></g><g><g><use href="#a" clip-path="url(#c)"/></g></g><g clip-path="url(#d)"><clipPath/><g><g><path fill-rule="evenodd" clip-rule="evenodd" d="m94.55,117c0-1.1.9-2,2-2h13.46c1.1,0,2,.89,2,2v42.42H94.55V117zM16,154.35c0-1.1.89-2,2-2h13.46c1.1,0,2,.89,2,2v5.07H16v-5.07zm41.27-13.1c-1.1,0-2,.89-2,2v16.17h17.46v-16.17c0-1.1-.89-2-2-2H57.27zm-21.63,8.05c0-1.1.89-2,2-2H51.1c1.1,0,2,.89,2,2v10.12H35.64V149.3zm80.54-24.21c-1.1,0-2,.89-2,2v32.32h17.46v-32.32c0-1.1-.89-2-2-2h-13.46zm17.64,12.09c0-1.1.89-2,2-2h13.46c1.1,0,2,.9,2,2v22.23h-17.46v-22.23zm-56.91-2c-1.1,0-2,.9-2,2v22.23h17.46v-22.23c0-1.1-.9-2-2-2H76.91z" fill="#6750a4"/></g><g><g><text x="16" y="98" textLength="69.16" lengthAdjust="spacingAndGlyphs" style="dominant-baseline:ideographic;text-transform:none;font-family:Roboto;letter-spacing:.04px;font-weight:400;white-space:pre;font-size:12px;fill:#000">+22 of target</text></g></g><g><g><text x="16" y="82" textLength="47.17" lengthAdjust="spacingAndGlyphs" style="dominant-baseline:ideographic;text-transform:none;font-family:Roboto;font-weight:400;white-space:pre;font-size:28px;fill:#000">537</text></g></g><g><g><text x="16" y="32.5" textLength="70.2" lengthAdjust="spacingAndGlyphs" style="dominant-baseline:ideographic;text-transform:none;font-family:Roboto;letter-spacing:.02px;font-weight:400;white-space:pre;font-size:14px;fill:#000">Conversion</text></g></g></g></g></g></g></svg>
