<svg xmlns="http://www.w3.org/2000/svg" viewBox="0,0,48,48"><g><g><g><path d="m21.7,34-.5-3.15c-.32-.12-.65-.28-1-.48s-.66-.41-.93-.63l-2.95,1.35L14,27l2.7-1.98c-.03-.15-.05-.32-.06-.51s-.01-.36-.01-.51,0-.32.01-.51.03-.36.06-.51L14,21l2.33-4.1,2.95,1.35c.27-.22.58-.43.93-.63s.68-.35,1-.45L21.7,14h4.6l.5,3.15c.32.12.65.27,1.01.46s.66.4.91.64l2.95-1.35L34,21l-2.7,1.93c.03.17.05.35.06.54s.01.37.01.54,0,.34-.01.53c-.01.18-.03.36-.06.53L34,27l-2.33,4.1-2.95-1.35c-.27.22-.57.43-.91.64s-.68.36-1.01.46L26.3,34h-4.6zm2.3-6.75c.9,0,1.67-.32,2.3-.95s.95-1.4.95-2.3-.32-1.67-.95-2.3-1.4-.95-2.3-.95-1.67.32-2.3.95-.95,1.4-.95,2.3.32,1.67.95,2.3,1.4.95,2.3.95z" fill="#6750a4"/></g></g></g></svg>
