<svg xmlns="http://www.w3.org/2000/svg" fill="none" viewBox="0,0,390,80"><style>.a{fill:#49454e;font-family:Roboto;font-size:12px;font-weight:500;letter-spacing:.05px;text-transform:none;white-space:pre}</style><defs><clipPath id="a"><path d="m0,0v80h390V0z"/></clipPath><clipPath id="b"><path d="m0,0v80h390V0z"/></clipPath><clipPath id="c"><path d="m292.5,12H390v29h-97.5z"/></clipPath><clipPath id="d"><path d="m195,12h97.5v29H195z"/></clipPath><clipPath id="e"><path d="m97.5,12H195v29H97.5z"/></clipPath><clipPath id="f"><path d="m0,12v32h97.5V12z"/></clipPath><clipPath id="g"><rect rx="16" x="16.75" y="12" width="64" height="32" fill="#e8def8"/></clipPath><clipPath id="h"><rect rx="8" x="243.75" y="12.28" width="16" height="16" fill="#b3261e"/></clipPath><clipPath id="i"><path d="m243.75,12.28h16v16h-16z"/></clipPath></defs><g clip-path="url(#a)"><clipPath/><g><g clip-path="url(#b)"><clipPath/><g><g><path d="m0,0v80h390V0z" fill="#fffbfe"/></g><g><path d="m0,0v80h390V0z" opacity="8%" fill="#6750a4"/></g></g></g><g><g><clipPath clip-path="url(#c)"/><clipPath clip-path="url(#d)"/><clipPath clip-path="url(#e)"/><g clip-path="url(#f)"><clipPath/><g><g clip-path="url(#g)"><clipPath><rect rx="16" x="16.75" y="12" width="64" height="32" fill="#e8def8"/></clipPath><g><rect rx="16" x="16.75" y="12" width="64" height="32" fill="#e8def8"/></g></g></g></g></g><g><g><g><g><text x="318.75" y="61" dominant-baseline="ideographic" textLength="44.8" lengthAdjust="spacingAndGlyphs" class="a">Settings</text></g></g><g><g><path d="m338.95,37-.5-3.15c-.32-.12-.65-.28-1-.48s-.66-.41-.93-.63l-2.95,1.35L331.25,30l2.7-1.98c-.03-.15-.05-.32-.06-.51s-.01-.36-.01-.51,0-.32.01-.51.03-.36.06-.51l-2.7-1.98,2.33-4.1,2.95,1.35c.27-.22.58-.43.93-.63s.68-.35,1-.45l.5-3.18h4.6l.5,3.15c.32.12.65.27,1.01.46s.66.41.91.64l2.95-1.35,2.33,4.1-2.7,1.93c.03.17.05.35.06.54s.01.37.01.54,0,.34-.01.53c-.01.18-.03.36-.06.53l2.7,1.95-2.33,4.1-2.95-1.35c-.27.22-.57.43-.91.64s-.68.36-1.01.46l-.5,3.15h-4.6zm2.3-6.75c.9,0,1.67-.32,2.3-.95s.95-1.4.95-2.3-.32-1.67-.95-2.3-1.4-.95-2.3-.95-1.67.32-2.3.95S338,26.1,338,27s.32,1.67.95,2.3,1.4.95,2.3.95zm0-1.5c-.48,0-.9-.17-1.24-.51s-.51-.75-.51-1.24.17-.9.51-1.24.75-.51,1.24-.51.9.17,1.24.51.51.76.51,1.24-.17.9-.51,1.24-.75.51-1.24.51zm-1.1,6.75h2.2l.35-2.8c.55-.13,1.07-.34,1.56-.63.49-.28.94-.63,1.34-1.03l2.65,1.15,1-1.8-2.35-1.73c.07-.28.12-.56.16-.84s.06-.55.06-.84-.02-.56-.05-.84-.09-.55-.18-.84l2.35-1.73-1-1.8-2.65,1.15c-.38-.43-.82-.8-1.3-1.09s-1.02-.48-1.6-.56l-.35-2.8h-2.2l-.35,2.8c-.57.12-1.1.32-1.59.6s-.93.63-1.31,1.05l-2.65-1.15-1,1.8,2.35,1.73c-.07.28-.12.56-.16.84s-.06.56-.06.84.02.56.06.84.1.56.16.84l-2.35,1.73,1,1.8,2.65-1.15c.4.4.85.74,1.34,1.03.49.28,1.01.49,1.56.63l.35,2.8z" fill="#49454e"/></g><g><ellipse rx="3" ry="3" cx="350.25" cy="17.78" fill="#b3261e"/></g></g></g><g><g><g><text x="232.25" y="62.5" dominant-baseline="ideographic" textLength="23.03" lengthAdjust="spacingAndGlyphs" class="a">Cart</text></g></g><g><g><path d="m243.75,26.15-1.05-1.05,1.85-1.85H240v-1.5h4.55l-1.85-1.85,1.05-1.05,3.65,3.65-3.65,3.65zm-4.76,12.35c-.5,0-.92-.18-1.27-.53s-.53-.78-.53-1.28.18-.92.53-1.27.78-.53,1.28-.53.92.18,1.27.53.53.78.53,1.28-.18.92-.53,1.27-.78.53-1.28.53zm10.1,0c-.5,0-.92-.18-1.27-.53s-.53-.78-.53-1.28.18-.92.53-1.27.78-.53,1.28-.53.92.18,1.27.53.53.78.53,1.28-.18.92-.53,1.27-.78.53-1.28.53zM233.3,20v-1.5h2.9l4.25,9.1h7.19l4.01-7h1.68l-4.05,7.58c-.18.32-.42.57-.71.76s-.61.29-.96.29h-7.58l-1.4,2.6h12.27v1.5h-12.05c-.63,0-1.11-.25-1.43-.75s-.35-1.01-.07-1.53l1.6-2.95-3.7-8.1h-1.95z" fill="#49454e"/></g><g><g clip-path="url(#h)"><clipPath><rect rx="8" x="243.75" y="12.28" width="16" height="16" fill="#b3261e"/></clipPath><g><rect rx="8" x="243.75" y="12.28" width="16" height="16" fill="#b3261e"/></g></g><g clip-path="url(#i)"><clipPath/><g><g><g><text x="248.75" y="26.08" textLength="6.3" lengthAdjust="spacingAndGlyphs" style="dominant-baseline:ideographic;text-transform:none;font-family:Roboto;letter-spacing:.05px;font-weight:500;white-space:pre;font-size:11px;fill:#fff">1</text></g></g></g></g></g></g></g><g><g><g><text x="117.75" y="62" dominant-baseline="ideographic" textLength="56.97" lengthAdjust="spacingAndGlyphs" class="a">Contribute</text></g></g><g><path d="m145.58,33h1.5v-4.15h4.18v-1.5h-4.18V23h-1.5v4.35h-4.33v1.5h4.33V33zm.68,5c-1.38,0-2.68-.26-3.89-.79s-2.27-1.24-3.18-2.15-1.63-1.97-2.15-3.18-.79-2.51-.79-3.89.26-2.68.79-3.89,1.24-2.27,2.15-3.17,1.97-1.61,3.18-2.14,2.51-.79,3.89-.79,2.68.26,3.89.79,2.27,1.24,3.17,2.14,1.61,1.96,2.14,3.18.79,2.51.79,3.89-.26,2.68-.79,3.89-1.24,2.27-2.14,3.18-1.96,1.62-3.18,2.15-2.51.79-3.89.79zm0-1.5c2.36,0,4.36-.83,6.01-2.49s2.48-3.67,2.48-6.03-.82-4.36-2.47-6.01-3.66-2.48-6.03-2.48c-2.35,0-4.35.82-6.01,2.47s-2.49,3.66-2.49,6.03c0,2.35.83,4.35,2.49,6.01s3.67,2.49,6.03,2.49z" fill="#49454e"/></g></g><g><g><g><text x="32.75" y="62" dominant-baseline="ideographic" textLength="32.45" lengthAdjust="spacingAndGlyphs" class="a">Home</text></g></g><g><path d="m42.25,35.5H46v-6.25h5.5v6.25h3.75v-9.75l-6.5-4.88-6.5,4.88v9.75zm-1.5,1.5V25l8-6,8,6v12H50v-6.25h-2.5V37h-6.75z" fill="#49454e"/></g></g></g></g></g></g></svg>
