<svg xmlns="http://www.w3.org/2000/svg" fill="none" viewBox="0,0,390,80"><style>.a{fill:#49454e;font-family:Roboto;font-size:12px;font-weight:500;letter-spacing:.05px;text-transform:none;white-space:pre}</style><defs><clipPath id="a"><path d="m0,0v80h390V0z"/></clipPath><clipPath id="b"><path d="m0,0h390v80H0z"/></clipPath><clipPath id="c"><path d="m312,12h78v29h-78z"/></clipPath><clipPath id="d"><path d="m234,12h78v29h-78z"/></clipPath><clipPath id="e"><path d="m156,12h78v29h-78z"/></clipPath><clipPath id="f"><path d="m78,12h78v29H78z"/></clipPath><clipPath id="g"><path d="m0,12h78v32H0z"/></clipPath><clipPath id="h"><rect rx="16" x="7" y="12" width="64" height="32" fill="#e8def8"/></clipPath><clipPath id="i"><rect rx="8" x="195" y="12.28" width="16" height="16" fill="#b3261e"/></clipPath><clipPath id="j"><path d="m195,12.28h16v16h-16z"/></clipPath></defs><g clip-path="url(#a)"><clipPath/><g><g clip-path="url(#b)"><clipPath/><g><g><path d="m0,0h390v80H0z" fill="#fffbfe"/></g><g><path d="m0,0h390v80H0z" opacity="8%" fill="#6750a4"/></g></g></g><g><g><clipPath clip-path="url(#c)"/><clipPath clip-path="url(#d)"/><clipPath clip-path="url(#e)"/><clipPath clip-path="url(#f)"/><g clip-path="url(#g)"><clipPath/><g><g clip-path="url(#h)"><clipPath><rect rx="16" x="7" y="12" width="64" height="32" fill="#e8def8"/></clipPath><g><rect rx="16" x="7" y="12" width="64" height="32" fill="#e8def8"/></g></g></g></g></g><g><g><g><g><text x="328.5" y="62" dominant-baseline="ideographic" textLength="44.8" lengthAdjust="spacingAndGlyphs" class="a">Settings</text></g></g><g><g><path d="m348.7,38-.5-3.15c-.32-.12-.65-.28-1-.48s-.66-.41-.93-.63l-2.95,1.35L341,31l2.7-1.98c-.03-.15-.05-.32-.06-.51s-.01-.36-.01-.51,0-.32.01-.51.03-.36.06-.51L341,25l2.33-4.1,2.95,1.35c.27-.22.58-.43.93-.63s.68-.35,1-.45l.5-3.18h4.6l.5,3.15c.32.12.65.27,1.01.46s.66.4.91.64l2.95-1.35L361,25l-2.7,1.93c.03.17.05.35.06.54s.01.37.01.54,0,.34-.01.53c-.01.18-.03.36-.06.53L361,31l-2.33,4.1-2.95-1.35c-.27.22-.57.43-.91.64s-.68.36-1.01.46l-.5,3.15h-4.6zm2.3-6.75c.9,0,1.67-.32,2.3-.95s.95-1.4.95-2.3-.32-1.67-.95-2.3-1.4-.95-2.3-.95-1.67.32-2.3.95-.95,1.4-.95,2.3.32,1.67.95,2.3,1.4.95,2.3.95zm0-1.5c-.48,0-.9-.17-1.24-.51s-.51-.76-.51-1.24.17-.9.51-1.24.75-.51,1.24-.51.9.17,1.24.51.51.75.51,1.24-.17.9-.51,1.24-.75.51-1.24.51zm-1.1,6.75h2.2l.35-2.8c.55-.13,1.07-.34,1.56-.63.49-.28.94-.63,1.34-1.03L358,33.2l1-1.8-2.35-1.73c.07-.28.12-.56.16-.84s.06-.56.06-.84-.02-.56-.05-.84c-.03-.27-.09-.55-.18-.84L359,24.6l-1-1.8-2.65,1.15c-.38-.43-.82-.8-1.3-1.09s-1.02-.48-1.6-.56l-.35-2.8h-2.2l-.35,2.8c-.57.12-1.1.32-1.59.6s-.93.63-1.31,1.05L344,22.8l-1,1.8,2.35,1.73c-.07.28-.12.56-.16.84s-.06.56-.06.84.02.56.06.84.1.55.16.84L343,31.4l1,1.8,2.65-1.15c.4.4.85.74,1.34,1.03.49.28,1.01.49,1.56.63l.35,2.8z" fill="#49454e"/></g><g><ellipse rx="3" ry="3" cx="360" cy="18.78" fill="#b3261e"/></g></g></g><g><g><g><text x="248" y="62" dominant-baseline="ideographic" textLength="49.84" lengthAdjust="spacingAndGlyphs" class="a">Favorites</text></g></g><g><path d="m273,36.98-1.03-.93c-1.76-1.62-3.22-3.02-4.37-4.19s-2.07-2.22-2.75-3.15-1.16-1.76-1.44-2.51-.41-1.51-.41-2.27c0-1.5.5-2.76,1.51-3.76,1.01-1.01,2.25-1.51,3.74-1.51.95,0,1.83.23,2.64.68s1.51,1.1,2.11,1.95c.7-.9,1.44-1.56,2.23-1.99s1.63-.64,2.53-.64c1.48,0,2.73.5,3.74,1.51s1.51,2.26,1.51,3.76c0,.77-.14,1.53-.41,2.28s-.75,1.59-1.44,2.51-1.6,1.97-2.75,3.15-2.61,2.57-4.37,4.19l-1.03.93zm0-1.98c1.69-1.55,3.08-2.88,4.17-3.99s1.96-2.08,2.6-2.91,1.09-1.58,1.35-2.23.39-1.3.39-1.94c0-1.1-.35-2.01-1.05-2.72s-1.6-1.06-2.69-1.06c-.86,0-1.65.26-2.39.79s-1.33,1.26-1.78,2.21h-1.23c-.43-.93-1.02-1.67-1.75-2.2s-1.53-.8-2.39-.8c-1.1,0-1.99.35-2.69,1.06s-1.05,1.62-1.05,2.72c0,.65.13,1.3.39,1.96s.71,1.41,1.35,2.25,1.51,1.81,2.61,2.91,2.48,2.42,4.15,3.95z" fill="#49454e"/></g></g><g><g><g><text x="183.5" y="62.5" dominant-baseline="ideographic" textLength="23.03" lengthAdjust="spacingAndGlyphs" class="a">Cart</text></g></g><g><g><path d="m195,26.15-1.05-1.05,1.85-1.85h-4.55v-1.5h4.55l-1.85-1.85,1.05-1.05,3.65,3.65L195,26.15zm-4.76,12.35c-.5,0-.92-.18-1.27-.53s-.53-.78-.53-1.28.18-.92.53-1.27.78-.53,1.28-.53.92.18,1.27.53.53.78.53,1.28-.18.92-.53,1.27-.78.53-1.28.53zm10.1,0c-.5,0-.92-.18-1.27-.53s-.53-.78-.53-1.28.18-.92.53-1.27.78-.53,1.28-.53.92.18,1.27.53.53.78.53,1.28-.18.92-.53,1.27-.78.53-1.28.53zM184.55,20v-1.5h2.9l4.25,9.1h7.19l4.01-7h1.68l-4.05,7.58c-.18.32-.42.57-.71.76s-.61.29-.96.29h-7.58l-1.4,2.6h12.28v1.5H190.1c-.63,0-1.11-.25-1.43-.75s-.35-1.01-.07-1.53l1.6-2.95-3.7-8.1h-1.95z" fill="#49454e"/></g><g><g clip-path="url(#i)"><clipPath><rect rx="8" x="195" y="12.28" width="16" height="16" fill="#b3261e"/></clipPath><g><rect rx="8" x="195" y="12.28" width="16" height="16" fill="#b3261e"/></g></g><g clip-path="url(#j)"><clipPath/><g><g><g><text x="2e2" y="26.08" textLength="6.3" lengthAdjust="spacingAndGlyphs" style="dominant-baseline:ideographic;text-transform:none;font-family:Roboto;letter-spacing:.05px;font-weight:500;white-space:pre;font-size:11px;fill:#fff">1</text></g></g></g></g></g></g></g><g><g><g><text x="88.5" y="62" dominant-baseline="ideographic" textLength="56.97" lengthAdjust="spacingAndGlyphs" class="a">Contribute</text></g></g><g><path d="m116.33,33h1.5v-4.15H122v-1.5h-4.18V23h-1.5v4.35H112v1.5h4.33V33zm.68,5c-1.38,0-2.68-.26-3.89-.79s-2.27-1.24-3.18-2.15-1.63-1.97-2.15-3.18-.79-2.51-.79-3.89.26-2.68.79-3.89,1.24-2.27,2.15-3.17,1.97-1.61,3.18-2.14,2.51-.79,3.89-.79,2.68.26,3.89.79,2.27,1.24,3.17,2.14,1.61,1.96,2.14,3.18.79,2.51.79,3.89-.26,2.68-.79,3.89c-.52,1.21-1.24,2.27-2.14,3.18s-1.96,1.62-3.18,2.15-2.51.79-3.89.79zm.01-1.5c2.36,0,4.36-.83,6.01-2.49s2.48-3.67,2.48-6.03-.82-4.36-2.47-6.01-3.67-2.47-6.04-2.47c-2.35,0-4.35.82-6.01,2.47s-2.49,3.66-2.49,6.03c0,2.35.83,4.35,2.49,6.01s3.67,2.49,6.03,2.49z" fill="#49454e"/></g></g><g><g><g><text x="23" y="62" dominant-baseline="ideographic" textLength="32.45" lengthAdjust="spacingAndGlyphs" class="a">Home</text></g></g><g><path d="m32.5,35.5h3.75v-6.25h5.5v6.25h3.75v-9.75L39,20.88l-6.5,4.87v9.75zM31,37V25l8-6,8,6v12h-6.75v-6.25h-2.5V37H31z" fill="#49454e"/></g></g></g></g></g></g></svg>
