<svg xmlns="http://www.w3.org/2000/svg" fill="none" viewBox="0,0,340,56"><defs><clipPath id="b"><rect rx="4" width="340" height="56"/></clipPath><clipPath id="c"><use href="#a"/></clipPath><rect rx="4" width="340" height="56" id="a" fill="none" stroke-width="4" stroke="#79747e"/><clipPath id="d"><path d="m0,0v56h340V0z"/></clipPath></defs><g><clipPath clip-path="url(#b)"/><g><g><use href="#a" clip-path="url(#c)"/></g></g><g clip-path="url(#d)"><clipPath/><g><g><g><g><path d="m325.7,50-.5-3.15c-.32-.12-.65-.28-1-.48s-.66-.41-.93-.63l-2.95,1.35L318,43l2.7-1.98c-.03-.15-.05-.32-.06-.51s-.01-.36-.01-.51,0-.32.01-.51.03-.36.06-.51L318,37l2.33-4.1,2.95,1.35c.27-.22.58-.43.93-.63s.68-.35,1-.45l.5-3.18h4.6l.5,3.15c.32.12.65.27,1.01.46s.66.4.91.64l2.95-1.35L338,37l-2.7,1.93c.03.17.05.35.06.54s.01.37.01.54,0,.34-.01.53c-.01.18-.03.36-.06.53L338,43l-2.33,4.1-2.95-1.35c-.27.22-.57.43-.91.64s-.68.36-1.01.46l-.5,3.15h-4.6zm2.3-6.75c.9,0,1.67-.32,2.3-.95s.95-1.4.95-2.3-.32-1.67-.95-2.3-1.4-.95-2.3-.95-1.67.32-2.3.95-.95,1.4-.95,2.3.32,1.67.95,2.3,1.4.95,2.3.95zm0-1.5c-.48,0-.9-.17-1.24-.51s-.51-.76-.51-1.24.17-.9.51-1.24.75-.51,1.24-.51.9.17,1.24.51.51.75.51,1.24-.17.9-.51,1.24-.76.51-1.24.51zm-1.1,6.75h2.2l.35-2.8c.55-.13,1.07-.34,1.56-.63.49-.28.94-.63,1.34-1.03L335,45.2l1-1.8-2.35-1.73c.07-.28.12-.56.16-.84s.06-.56.06-.84-.02-.56-.05-.84-.09-.56-.18-.84L336,36.6l-1-1.8-2.65,1.15c-.38-.43-.82-.8-1.3-1.09s-1.02-.48-1.6-.56l-.35-2.8h-2.2l-.35,2.8c-.57.12-1.1.32-1.59.6s-.93.63-1.31,1.05L321,34.8l-1,1.8,2.35,1.73c-.07.28-.12.56-.16.84s-.06.55-.06.84.02.56.06.84.1.55.16.84L320,43.4l1,1.8,2.65-1.15c.4.4.85.74,1.34,1.03.49.28,1.01.49,1.56.63l.35,2.8z" fill="#49454e"/></g></g></g><g><g><g><text x="33" y="37" textLength="3.95" lengthAdjust="spacingAndGlyphs" style="dominant-baseline:ideographic;text-transform:none;font-family:Roboto;letter-spacing:.04px;font-weight:400;white-space:pre;font-size:16px;fill:#6750a4">|</text></g></g><g><g><text x="16" y="37" textLength="16.98" lengthAdjust="spacingAndGlyphs" style="dominant-baseline:ideographic;text-transform:none;font-family:Roboto;letter-spacing:.04px;font-weight:400;white-space:pre;font-size:16px;fill:#1c1b1f">Eli</text></g></g></g></g></g><g><path d="m12-6V9h63V-6z" fill="#fffbfe"/></g><g><g><g><text x="16" y="8" textLength="54.93" lengthAdjust="spacingAndGlyphs" style="dominant-baseline:ideographic;text-transform:none;font-family:Roboto;letter-spacing:.04px;font-weight:400;white-space:pre;font-size:12px;fill:#6750a4">Label Text</text></g></g></g></g></svg>
