<svg xmlns="http://www.w3.org/2000/svg" fill="none" viewBox="0,0,360,48"><style>.a{fill:#49454e;font-family:Roboto;font-size:14px;font-weight:500;letter-spacing:.01px;text-transform:none;white-space:pre}</style><defs><clipPath id="b"><path d="m0,0v48h360V0z"/></clipPath><clipPath id="c"><path d="m0,0v48h360V0z" fill="#fffbfe"/></clipPath><clipPath id="d"><path d="m240,16v32h120V16z"/></clipPath><clipPath id="e"><path d="m120,16v32h120V16z"/></clipPath><clipPath id="f"><path d="m0,16v32h120V16z"/></clipPath><clipPath id="g"><path d="m0,47h360v1H0z" opacity=".4"/></clipPath><clipPath id="h"><use href="#a"/></clipPath><path id="a" d="m0,47h360v1H0z" opacity=".4" fill="none" stroke-width="2" stroke="#e7e0ec"/></defs><g clip-path="url(#b)"><clipPath/><g><g clip-path="url(#c)"><clipPath><path d="m0,0v48h360V0z" fill="#fffbfe"/></clipPath><g><path d="m0,0v48h360V0z" fill="#fffbfe"/></g><g><g clip-path="url(#d)"><clipPath/><g><g><g><text x="281.5" y="32.5" dominant-baseline="ideographic" textLength="36.52" lengthAdjust="spacingAndGlyphs" class="a">Audio</text></g></g></g></g><g clip-path="url(#e)"><clipPath/><g><g><path d="m167,45h26a3,3,0,013,3h-32a3,3,0,013-3z" fill="#6750a4"/></g><g><g><text x="158" y="32.5" textLength="44.4" lengthAdjust="spacingAndGlyphs" style="dominant-baseline:ideographic;text-transform:none;font-family:Roboto;letter-spacing:.01px;font-weight:500;white-space:pre;font-size:14px;fill:#6750a4">Photos</text></g></g></g></g><g clip-path="url(#f)"><clipPath/><g><g><g><text x="42" y="32.5" dominant-baseline="ideographic" textLength="36.07" lengthAdjust="spacingAndGlyphs" class="a">Video</text></g></g></g></g></g></g><g><clipPath clip-path="url(#g)"/><g><g><use href="#a" clip-path="url(#h)"/></g></g></g></g></g></svg>
