<svg xmlns="http://www.w3.org/2000/svg" fill="none" viewBox="0,0,360,64"><style>.a{fill:#49454e;font-family:Roboto;font-size:14px;font-weight:500;letter-spacing:.01px;text-transform:none;white-space:pre}</style><defs><clipPath id="b"><path d="m0,0v64h360V0z"/></clipPath><clipPath id="c"><path d="m0,0v64h360V0z" fill="#fffbfe"/></clipPath><clipPath id="d"><path d="m240,8v56h120V8z"/></clipPath><clipPath id="e"><path d="m120,8v56h120V8z"/></clipPath><clipPath id="f"><path d="m0,8v56h120V8z"/></clipPath><clipPath id="g"><path d="m0,63h360v1H0z" opacity=".4"/></clipPath><clipPath id="h"><use href="#a"/></clipPath><path id="a" d="m0,63h360v1H0z" opacity=".4" fill="none" stroke-width="2" stroke="#e7e0ec"/></defs><g clip-path="url(#b)"><clipPath/><g><g clip-path="url(#c)"><clipPath><path d="m0,0v64h360V0z" fill="#fffbfe"/></clipPath><g><path d="m0,0v64h360V0z" fill="#fffbfe"/></g><g><g clip-path="url(#d)"><clipPath/><g><g><g><text x="281.5" y="54.5" dominant-baseline="ideographic" textLength="36.52" lengthAdjust="spacingAndGlyphs" class="a">Audio</text></g></g><g><path d="m297.83,29c-1.05,0-1.94-.36-2.66-1.09s-1.09-1.61-1.09-2.66.36-1.94,1.09-2.66,1.61-1.09,2.66-1.09c.47,0,.89.07,1.26.2s.7.32.99.55V11h5.85v3.38h-4.35v10.87c0,1.05-.36,1.94-1.09,2.66S298.88,29,297.83,29z" fill="#49454e"/></g></g></g><g clip-path="url(#e)"><clipPath/><g><g><path d="m167,61h26a3,3,0,013,3h-32a3,3,0,013-3z" fill="#6750a4"/></g><g><g><text x="158" y="54.5" textLength="44.4" lengthAdjust="spacingAndGlyphs" style="dominant-baseline:ideographic;text-transform:none;font-family:Roboto;letter-spacing:.01px;font-weight:500;white-space:pre;font-size:14px;fill:#6750a4">Photos</text></g></g><g><path d="m172.5,29c-.4,0-.75-.15-1.05-.45s-.45-.65-.45-1.05v-15c0-.4.15-.75.45-1.05s.65-.45,1.05-.45h15c.4,0,.75.15,1.05.45s.45.65.45,1.05v15c0,.4-.15.75-.45,1.05s-.65.45-1.05.45h-15zm0-1.5h15v-15h-15v15zm1.4-2.43h12.23l-3.68-4.9-3.3,4.28-2.33-3.18-2.93,3.8zm-1.4,2.43v-15,15z" fill="#6750a4"/></g></g></g><g clip-path="url(#f)"><clipPath/><g><g><g><text x="42" y="54.5" dominant-baseline="ideographic" textLength="36.07" lengthAdjust="spacingAndGlyphs" class="a">Video</text></g></g><g><path d="m51.5,28c-.4,0-.75-.15-1.05-.45S50,26.9,50,26.5v-13c0-.4.15-.75.45-1.05S51.1,12,51.5,12h13c.4,0,.75.15,1.05.45s.45.65.45,1.05v5.38l4-4v10.25l-4-4v5.37c0,.4-.15.75-.45,1.05s-.65.45-1.05.45h-13zm0-1.5h13v-13h-13v13zm0,0v-13,13z" fill="#49454e"/></g></g></g></g></g><g><clipPath clip-path="url(#g)"/><g><g><use href="#a" clip-path="url(#h)"/></g></g></g></g></g></svg>
