<svg xmlns="http://www.w3.org/2000/svg" fill="none" viewBox="0,0,360,56"><defs><clipPath id="a"><path d="m0,0v56h360V0z"/></clipPath><clipPath id="b"><path d="m0,0v56h360V0z"/></clipPath><clipPath id="c"><rect rx="28" width="360" height="56"/></clipPath><clipPath id="d"><path d="m0,0v56h360V0z"/></clipPath><clipPath id="e"><path d="m314,0h30v56h-30z"/></clipPath><clipPath id="f"><rect rx="15" x="314" y="13" width="30" height="30"/></clipPath><pattern patternUnits="userSpaceOnUse" x="314" y="13" height="30" width="30" id="g"/></defs><g clip-path="url(#a)"><clipPath/><g><g clip-path="url(#b)"><clipPath/><g><g clip-path="url(#c)"><clipPath/><g><g><path d="m0,0v56h360V0z" fill="#fffbfe"/></g><g><path d="m0,0v56h360V0z" opacity=".11" fill="#6750a4"/></g></g></g><g clip-path="url(#d)"><clipPath/><g><g clip-path="url(#e)"><clipPath/><g><g clip-path="url(#f)"><clipPath/><g><g><path fill="url(#g)" d="m314,13h30v30h-30z"/></g></g></g></g></g><g><g><text x="56" y="36.9" textLength="78.11" lengthAdjust="spacingAndGlyphs" style="dominant-baseline:ideographic;text-transform:none;font-family:Roboto;letter-spacing:.04px;font-weight:400;white-space:pre;font-size:16px;fill:#49454e">Hinted text</text></g></g><g><g><g><path d="m35.9,36.98-6.57-6.58c-.5.43-1.08.77-1.75,1.01s-1.38.36-2.13.36c-1.8,0-3.33-.63-4.58-1.88S19,27.14,19,25.38s.63-3.28,1.88-4.53,2.76-1.88,4.54-1.88,3.28.63,4.53,1.88c1.24,1.25,1.86,2.76,1.86,4.53,0,.71-.12,1.4-.35,2.07s-.58,1.29-1.05,1.88l6.6,6.55-1.1,1.1zm-10.48-6.7c1.35,0,2.51-.48,3.45-1.44.95-.96,1.42-2.11,1.42-3.46s-.47-2.5-1.42-3.46-2.1-1.44-3.45-1.44c-1.37,0-2.53.48-3.49,1.44s-1.44,2.11-1.44,3.46.48,2.5,1.44,3.46,2.12,1.44,3.49,1.44z" fill="#1c1b1f"/></g></g></g></g></g></g></g></g></g></svg>
