<svg xmlns="http://www.w3.org/2000/svg" fill="none" viewBox="0,0,360,64"><style>.a{fill:#49454e;font-family:Roboto;font-size:14px;font-weight:500;letter-spacing:.01px;text-transform:none;white-space:pre}</style><defs><clipPath id="b"><path d="m0,0v64h360V0z"/></clipPath><clipPath id="c"><path d="m0,0v64h360V0z" fill="#fffbfe"/></clipPath><clipPath id="d"><path d="m240,8v56h120V8z"/></clipPath><clipPath id="e"><path d="m120,8v56h120V8z"/></clipPath><clipPath id="f"><path d="m0,8v56h120V8z"/></clipPath><clipPath id="g"><path d="m0,63v1h360v-1z" opacity=".4"/></clipPath><clipPath id="h"><use href="#a"/></clipPath><path id="a" d="m0,63v1h360v-1z" opacity=".4" fill="none" stroke-width="2" stroke="#e7e0ec"/></defs><g clip-path="url(#b)"><clipPath/><g><g clip-path="url(#c)"><clipPath><path d="m0,0v64h360V0z" fill="#fffbfe"/></clipPath><g><path d="m0,0v64h360V0z" fill="#fffbfe"/></g><g><g clip-path="url(#d)"><clipPath/><g><g><g><text x="272.5" y="54.5" dominant-baseline="ideographic" textLength="55.12" lengthAdjust="spacingAndGlyphs" class="a">Archived</text></g></g><g><path d="m291,28.45v-12.3c-.23-.03-.46-.2-.68-.5s-.33-.63-.33-.98V11.5c0-.38.15-.73.45-1.04s.65-.46,1.05-.46h17c.38,0,.73.15,1.04.46s.46.66.46,1.04v3.18c0,.35-.11.68-.33.98s-.44.47-.68.5v12.3c0,.38-.15.74-.46,1.06-.31.33-.66.49-1.04.49h-15c-.4,0-.75-.16-1.05-.49s-.45-.68-.45-1.06zm1.5-12.28V28.5h15V16.18h-15zm16-1.49V11.5h-17v3.18h17zM297,21.43h6v-1.5h-6v1.5zm-4.5,7.08V16.18,28.5z" fill="#49454e"/></g></g></g><g clip-path="url(#e)"><clipPath/><g><g><g><text x="156" y="54.5" dominant-baseline="ideographic" textLength="48.02" lengthAdjust="spacingAndGlyphs" class="a">Albums</text></g></g><g><path d="m170.5,27c-.4,0-.75-.15-1.05-.45s-.45-.65-.45-1.05v-11c0-.4.15-.75.45-1.05s.65-.45,1.05-.45h11c.4,0,.75.15,1.05.45s.45.65.45,1.05v11c0,.4-.15.75-.45,1.05s-.65.45-1.05.45h-11zm0-1.5h11v-11h-11v11zm1.4-2.43h8.13l-2.5-3.33-2.13,2.76-1.5-2.05-2,2.63zM185.5,27V13h1.5v14h-1.5zm4,0V13h1.5v14h-1.5zm-19-1.5v-11,11z" fill="#49454e"/></g></g></g><g clip-path="url(#f)"><clipPath/><g><g><path d="m0,61v3h120v-3z" fill="#6750a4"/></g><g><g><text x="21" y="54.5" textLength="78.34" lengthAdjust="spacingAndGlyphs" style="dominant-baseline:ideographic;text-transform:none;font-family:Roboto;letter-spacing:.01px;font-weight:500;white-space:pre;font-size:14px;fill:#6750a4">Screenshots</text></g></g><g><path d="m63,24h4v-4h-1v3h-3v1zm-10-6h1v-3h3v-1h-4v4zm3.25,11v-2H51.5c-.4,0-.75-.15-1.05-.45S50,25.9,50,25.5v-13c0-.4.15-.75.45-1.05S51.1,11,51.5,11h17c.4,0,.75.15,1.05.45s.45.65.45,1.05v13c0,.4-.15.75-.45,1.05s-.65.45-1.05.45h-4.75v2h-7.5zm-4.75-3.5h17v-13h-17v13zm0,0v-13,13z" fill="#6750a4"/></g></g></g></g></g><g><clipPath clip-path="url(#g)"/><g><g><use href="#a" clip-path="url(#h)"/></g></g></g></g></g></svg>
