<svg xmlns="http://www.w3.org/2000/svg" fill="none" viewBox="0,0,306,48"><style>.a{fill:#1c1b1f;font-family:Roboto;font-size:14px;font-weight:500;letter-spacing:.01px;text-transform:none;white-space:pre}</style><defs><clipPath id="d"><path d="m0,0v48h306V0z"/></clipPath><clipPath id="e"><path d="m4,4v40h298V4z"/></clipPath><clipPath id="f"><path d="m202,4h80a20,20,0,010,40h-80V4z"/></clipPath><clipPath id="g"><use href="#a"/></clipPath><path d="m202,4h80a20,20,0,010,40h-80V4z" id="a" fill="none" stroke-width="2" stroke="#79747e"/><clipPath id="h"><path d="m103,4v40h1e2V4z"/></clipPath><clipPath id="i"><use href="#b"/></clipPath><path id="b" d="m103,4v40h1e2V4z" fill="none" stroke-width="2" stroke="#79747e"/><clipPath id="j"><path d="m24,4h80v40H24a20,20,0,010-40z"/></clipPath><clipPath id="k"><use href="#c"/></clipPath><path d="m24,4h80v40H24a20,20,0,010-40z" id="c" fill="none" stroke-width="2" stroke="#79747e"/></defs><g clip-path="url(#d)"><clipPath/><g><g clip-path="url(#e)"><clipPath/><g><g><g clip-path="url(#f)"><clipPath/><g><g><g><text x="240" y="31.85" dominant-baseline="ideographic" textLength="50.22" lengthAdjust="spacingAndGlyphs" class="a">Enabled</text></g></g><g><path d="m220.06,29.16,2.94-1.77,2.94,1.78-.79-3.34,2.59-2.25-3.41-.3L223,20.14l-1.33,3.13-3.41.3,2.59,2.25-.79,3.34zm-1.69,2.34,1.22-5.27-4.09-3.54,5.4-.47,2.1-4.97,2.1,4.97,5.4.47-4.09,3.54,1.22,5.27L223,28.71l-4.63,2.79z" fill="#1c1b1f"/></g></g></g><g><g><use href="#a" clip-path="url(#g)"/></g></g></g><g><g clip-path="url(#h)"><clipPath/><g><g><g><text x="141" y="31.85" dominant-baseline="ideographic" textLength="50.22" lengthAdjust="spacingAndGlyphs" class="a">Enabled</text></g></g><g><path d="m121.06,29.16,2.94-1.77,2.94,1.78-.79-3.34,2.59-2.25-3.41-.3L124,20.14l-1.33,3.13-3.41.3,2.59,2.25-.79,3.34zm-1.69,2.34,1.22-5.27-4.09-3.54,5.4-.47,2.1-4.97,2.1,4.97,5.4.47-4.09,3.54,1.22,5.27L124,28.71l-4.63,2.79z" fill="#1c1b1f"/></g></g></g><g><g><use href="#b" clip-path="url(#i)"/></g></g></g><g><g clip-path="url(#j)"><clipPath/><g><g><g><text x="42" y="31.85" dominant-baseline="ideographic" textLength="50.22" lengthAdjust="spacingAndGlyphs" class="a">Enabled</text></g></g><g><path d="m22.06,29.16L25,27.39l2.94,1.78-.79-3.34,2.59-2.25-3.41-.3L25,20.14l-1.33,3.13-3.41.3,2.59,2.25-.79,3.34zm-1.69,2.34,1.22-5.27-4.09-3.54,5.4-.47,2.1-4.97,2.1,4.97,5.4.47-4.09,3.54,1.22,5.27L25,28.71,20.37,31.5z" fill="#1c1b1f"/></g></g></g><g><g><use href="#c" clip-path="url(#k)"/></g></g></g></g></g></g></g></svg>
