<svg xmlns="http://www.w3.org/2000/svg" fill="none" viewBox="0,0,3e2,290"><style>.a{fill:#6750a4;font-family:Roboto;font-size:14px;font-weight:500;letter-spacing:.01px;text-transform:none;white-space:pre}.b{fill:#49454e;font-family:Roboto;font-size:14px;font-weight:400;letter-spacing:.02px;text-transform:none;white-space:pre}</style><defs><clipPath id="b"><rect rx="28" width="3e2" height="290"/></clipPath><clipPath id="c"><path d="m0,1h3e2v288H0z"/></clipPath><clipPath id="d"><path d="m24,213v52h252v-52z"/></clipPath><clipPath id="e"><path d="m20,208v1h260v-1z" opacity=".4"/></clipPath><clipPath id="f"><use href="#a"/></clipPath><path id="a" d="m20,208v1h260v-1z" opacity=".4" fill="none" stroke-width="2" stroke="#c4c7c5"/><clipPath id="g"><path d="m24,111h252v69H24z"/></clipPath><clipPath id="h"><path d="m24,25h252v86H24z"/></clipPath></defs><g><g clip-path="url(#b)"><clipPath/><g><g><path d="m0,0h3e2v290H0z" fill="#fffbfe"/></g><g><path d="m0,0h3e2v290H0z" opacity=".11" fill="#6750a4"/></g></g></g><g clip-path="url(#c)"><clipPath/><g><g clip-path="url(#d)"><clipPath/><g><g><g><g><g><text x="192" y="246.85" dominant-baseline="ideographic" textLength="72.17" lengthAdjust="spacingAndGlyphs" class="a">Text Button</text></g></g></g></g><g><g><g><g><text x="88" y="246.85" dominant-baseline="ideographic" textLength="72.17" lengthAdjust="spacingAndGlyphs" class="a">Text Button</text></g></g></g></g></g></g><g><clipPath clip-path="url(#e)"/><g><g><use href="#a" clip-path="url(#f)"/></g></g></g><g clip-path="url(#g)"><clipPath/><g><g><g><text x="24" y="127.5" dominant-baseline="ideographic" textLength="251.98" lengthAdjust="spacingAndGlyphs" class="b">A dialog is a type of modal window that </text></g><g><text x="24" y="144.8" dominant-baseline="ideographic" textLength="230.92" lengthAdjust="spacingAndGlyphs" class="b">appears in front of an app content to </text></g><g><text x="24" y="162.09" dominant-baseline="ideographic" textLength="247.59" lengthAdjust="spacingAndGlyphs" class="b">provide critical information, or ask for a </text></g><g><text x="24" y="179.39" dominant-baseline="ideographic" textLength="56.23" lengthAdjust="spacingAndGlyphs" class="b">decision.</text></g></g></g></g><g clip-path="url(#h)"><clipPath/><g><g><g><text x="103" y="93.5" textLength="94.02" lengthAdjust="spacingAndGlyphs" style="dominant-baseline:ideographic;text-transform:none;font-family:Roboto;font-weight:400;white-space:pre;font-size:24px;fill:#1c1b1f">Headline</text></g></g><g><path d="m150,41.38-1.35-3.03L145.63,37l3.03-1.38L150,32.6l1.38,3.03L154.4,37l-3.03,1.35L150,41.38zm.18,6.63c-2.02,0-3.86-.47-5.53-1.41s-3.05-2.28-4.15-4.01v3.4H139V40h5.95v1.5h-3.35c.95,1.58,2.18,2.81,3.68,3.69s3.13,1.31,4.9,1.31c2.02,0,3.83-.59,5.45-1.76s2.74-2.72,3.38-4.64l1.48.33c-.72,2.27-2.02,4.1-3.91,5.49s-4.02,2.09-6.39,2.09zM139.05,36c.12-1.13.38-2.2.8-3.21s.98-1.95,1.7-2.81l1.08,1.08c-.58.75-1.05,1.54-1.4,2.38s-.58,1.69-.68,2.58h-1.5zm4.98-6.35-1.05-1.1c.9-.73,1.86-1.31,2.88-1.73s2.08-.68,3.2-.78v1.5c-.87.08-1.71.3-2.53.64s-1.65.83-2.5,1.46zm11.95,0c-.75-.6-1.54-1.08-2.38-1.44-.83-.36-1.7-.58-2.6-.66v-1.5c1.13.1,2.2.36,3.21.78s1.95.99,2.81,1.73l-1.05,1.1zm3.47,6.35c-.08-.85-.32-1.71-.7-2.58s-.88-1.68-1.48-2.43l1.05-1.1c.77.9,1.38,1.87,1.83,2.91s.72,2.1.8,3.19h-1.5z" fill="#625b71"/></g></g></g></g></g></g></svg>
