<svg xmlns="http://www.w3.org/2000/svg" fill="none" viewBox="0,0,18,18"><defs><mask id="b" x="-4.24" y="-4.24" width="26.49" height="26.49" maskUnits="userSpaceOnUse"><use href="#a" fill="none" stroke="#fff" stroke-width="6"/><use href="#a" fill="#000"/></mask><rect rx="5" width="18" height="18" id="a"/></defs><g><rect rx="5" width="18" height="18" fill="#321fdb"/></g><g><g><use href="#a" mask="url(#b)" stroke-width="6" stroke="#e2d8f3" fill="none"/><use href="#a" fill="none" stroke-width="3"/></g></g><g><path d="m12.45,5.25c.36-.32.91-.31,1.25.03s.37.88.06,1.25l-4.89,6.13c-.17.18-.41.29-.66.29-.25.01-.49-.09-.67-.27L4.3,9.44c-.25-.23-.35-.58-.27-.9.08-.33.34-.58.67-.67s.67.02.9.27l2.57,2.57,4.28-5.45zc-.02.01-.01.01,0,0z" fill="#ebedef"/></g></svg>
