<svg xmlns="http://www.w3.org/2000/svg" viewBox="0,0,520,175"><defs><filter id="a" x="-.31" y="-.91" width="1.61" height="3.09" color-interpolation-filters="sRGB"><feFlood flood-opacity="0" result="BackgroundImageFix"/><feColorMatrix in="SourceAlpha" values="0,0,0,0,0,0,0,0,0,0,0,0,0,0,0,0,0,0,127,0"/><feOffset dx="0" dy="16"/><feGaussianBlur stdDeviation="24"/><feColorMatrix values="0,0,0,0,0,0,0,0,0,0,0,0,0,0,0,0,0,0,.1,0"/><feBlend in2="BackgroundImageFix" result="filter_45b2c941-4321-11ed-ae8d-334c1a8fba65"/><feBlend in="SourceGraphic" in2="filter_45b2c941-4321-11ed-ae8d-334c1a8fba65" result="shape"/></filter><filter id="b" x="-.17" y="-.66" width="1.33" height="2.5" color-interpolation-filters="sRGB"><feFlood flood-opacity="0" result="BackgroundImageFix"/><feColorMatrix in="SourceAlpha" values="0,0,0,0,0,0,0,0,0,0,0,0,0,0,0,0,0,0,127,0"/><feOffset dx="0"/><feGaussianBlur stdDeviation="1"/><feColorMatrix values="0,0,0,0,.22,0,0,0,0,.26,0,0,0,0,.33,0,0,0,.2,0"/><feBlend in2="BackgroundImageFix" result="filter_30c8ba80-431c-11ed-ae8d-334c1a8fba65"/><feBlend in="SourceGraphic" in2="filter_30c8ba80-431c-11ed-ae8d-334c1a8fba65" result="shape"/></filter><filter id="c" x="-.23" y="-.66" width="1.47" height="2.5" color-interpolation-filters="sRGB"><feFlood flood-opacity="0" result="BackgroundImageFix"/><feColorMatrix in="SourceAlpha" values="0,0,0,0,0,0,0,0,0,0,0,0,0,0,0,0,0,0,127,0"/><feOffset dx="0"/><feGaussianBlur stdDeviation="1"/><feColorMatrix values="0,0,0,0,.22,0,0,0,0,.26,0,0,0,0,.33,0,0,0,.2,0"/><feBlend in2="BackgroundImageFix" result="filter_30c8ba80-431c-11ed-ae8d-334c1a8fba65"/><feBlend in="SourceGraphic" in2="filter_30c8ba80-431c-11ed-ae8d-334c1a8fba65" result="shape"/></filter></defs><g><rect rx="4" width="520" height="175" filter="url(#a)" fill="#fff"/></g><g><rect rx="4" x="24" y="119" width="126" height="32" filter="url(#b)" fill="#321fdb"/></g><g><g><text x="50.5" y="143" textLength="71.97" lengthAdjust="spacingAndGlyphs" style="dominant-baseline:ideographic;text-transform:none;font-family:Roboto;font-weight:500;white-space:pre;font-size:14px;fill:#ebedef">Take action</text></g></g><g><rect rx="4" x="166" y="119" width="90" height="32" filter="url(#c)" fill="#9da5b1"/></g><g><g><text x="193.28" y="143" textLength="35.42" lengthAdjust="spacingAndGlyphs" style="dominant-baseline:ideographic;text-transform:none;font-family:Roboto;font-weight:500;white-space:pre;font-size:14px;fill:#374254">Close</text></g></g><g><g><text x="24" y="51" textLength="396.03" lengthAdjust="spacingAndGlyphs" style="dominant-baseline:ideographic;text-transform:none;font-family:Roboto;font-weight:400;white-space:pre;font-size:24px;fill:#374254">Hello, world! This is a toast message.</text></g></g><g><path fill-rule="evenodd" d="m500.86,23.15c.09.09.15.22.15.35s-.05.26-.15.35l-11,11c-.2.2-.51.2-.71,0s-.2-.51,0-.71l11-11c.09-.09.22-.15.35-.15s.26.05.35.15z" fill="#9da5b1"/></g><g><path fill-rule="evenodd" d="m489.15,23.15c-.09.09-.15.22-.15.35s.05.26.15.35l11,11c.2.2.51.2.71,0s.2-.51,0-.71l-11-11c-.09-.09-.22-.15-.35-.15s-.26.05-.35.15z" fill="#9da5b1"/></g><g><g><path d="m0,94h520" fill="none" stroke="#ebedef"/></g></g></svg>
