<svg xmlns="http://www.w3.org/2000/svg" fill="none" viewBox="0,0,520,141"><style>.a{fill:#374254;font-family:Roboto;font-size:16px;font-weight:400;text-transform:none;white-space:pre}</style><defs><filter id="a" x="-.31" y="-1.13" width="1.61" height="3.6" color-interpolation-filters="sRGB"><feFlood flood-opacity="0" result="BackgroundImageFix"/><feColorMatrix in="SourceAlpha" values="0,0,0,0,0,0,0,0,0,0,0,0,0,0,0,0,0,0,127,0"/><feOffset dx="0" dy="16"/><feGaussianBlur stdDeviation="24"/><feColorMatrix values="0,0,0,0,0,0,0,0,0,0,0,0,0,0,0,0,0,0,.1,0"/><feBlend in2="BackgroundImageFix" result="filter_45b2c941-4321-11ed-ae8d-334c1a8fba65"/><feBlend in="SourceGraphic" in2="filter_45b2c941-4321-11ed-ae8d-334c1a8fba65" result="shape"/></filter></defs><g><rect rx="4" width="520" height="141" filter="url(#a)" fill="#fff"/></g><g><path d="m-.01,73.04h519.99V137a4,4,0,01-4,4H3.99a4,4,0,01-4-4V73.04z" fill="#f0f4f7"/></g><g><g><text x="24" y="116" dominant-baseline="ideographic" textLength="264.02" lengthAdjust="spacingAndGlyphs" class="a">Hello, world! This is a toast message.</text></g></g><g opacity=".4"><g><text x="390" y="39" dominant-baseline="ideographic" textLength="60.05" lengthAdjust="spacingAndGlyphs" class="a">just now</text></g></g><g><g><text x="64" y="49" textLength="112.11" lengthAdjust="spacingAndGlyphs" style="dominant-baseline:ideographic;text-transform:none;font-family:Roboto;font-weight:400;white-space:pre;font-size:24px;fill:#374254">Toast Title</text></g></g><g><rect rx="2" x="24" y="24" width="24" height="24" fill="#39f"/></g><g><path fill-rule="evenodd" d="m495.86,24.15c.09.09.15.22.15.35s-.05.26-.15.35l-11,11c-.2.2-.51.2-.71,0s-.2-.51,0-.71l11-11c.09-.09.22-.15.35-.15s.26.05.35.15z" fill="#9da5b1"/></g><g><path fill-rule="evenodd" d="m484.15,24.15c-.09.09-.15.22-.15.35s.05.26.15.35l11,11c.2.2.51.2.71,0s.2-.51,0-.71l-11-11c-.09-.09-.22-.15-.35-.15s-.26.05-.35.15z" fill="#9da5b1"/></g><g><g><path d="m0,72h520" fill="none" stroke="#ebedef"/></g></g></svg>
