<svg xmlns="http://www.w3.org/2000/svg" fill="none" viewBox="0,0,587,188"><style>.a{fill:#374254;font-family:Roboto;font-size:16px;font-weight:400;text-transform:none;white-space:pre}.b{fill:#321fdb;font-family:Roboto;font-size:16px;font-weight:500;text-transform:none;white-space:pre}</style><defs><filter id="a" x="-.15" y="-.16" width="1.3" height="1.37" color-interpolation-filters="sRGB"><feFlood flood-opacity="0" result="BackgroundImageFix"/><feColorMatrix in="SourceAlpha" values="0,0,0,0,0,0,0,0,0,0,0,0,0,0,0,0,0,0,127,0"/><feOffset dx="0"/><feGaussianBlur stdDeviation="2"/><feColorMatrix values="0,0,0,0,0,0,0,0,0,0,0,0,0,0,0,0,0,0,.1,0"/><feBlend in2="BackgroundImageFix" result="filter_45b2c941-4321-11ed-ae8d-334c1a8fba65"/><feBlend in="SourceGraphic" in2="filter_45b2c941-4321-11ed-ae8d-334c1a8fba65" result="shape"/></filter></defs><g><path d="m0,24h176a4,4,0,014,4v156a4,4,0,01-4,4H0V24z" filter="url(#a)" fill="#fff"/></g><g><g><path d="m0,145c180,0,179.99,0,179.99,0" fill="none" stroke="#9da5b1"/></g></g><g><path d="m0,24v40h179V24z" fill="#fff"/></g><g><g><text x="16" y="53" dominant-baseline="ideographic" textLength="45.88" lengthAdjust="spacingAndGlyphs" class="a">Action</text></g></g><g><path d="m0,64v40h179V64z" fill="#fff"/></g><g><g><text x="16" y="93" dominant-baseline="ideographic" textLength="104.42" lengthAdjust="spacingAndGlyphs" class="a">Another action</text></g></g><g><path d="m0,104v40h179v-40z" fill="#fff"/></g><g><g><text x="16" y="133" dominant-baseline="ideographic" textLength="144.88" lengthAdjust="spacingAndGlyphs" class="a">Something else here</text></g></g><g><path d="m0,145v40h180v-40z" fill="#fff"/></g><g><g><text x="16" y="174" dominant-baseline="ideographic" textLength="100.84" lengthAdjust="spacingAndGlyphs" class="a">Separated link</text></g></g><g><g><text x="525" y="19" textLength="62.16" lengthAdjust="spacingAndGlyphs" style="dominant-baseline:ideographic;text-transform:none;font-family:Roboto;font-weight:500;white-space:pre;font-size:16px;fill:#374254;fill-opacity:.3">Disabled</text></g></g><g><path d="m128.28,13.86-4.8-5.48c-.26-.3-.32-.71-.16-1.07s.52-.59.91-.59h9.6c.39,0,.75.23.91.59s.1.78-.16,1.07l-4.8,5.48c-.19.22-.47.34-.75.34-.29,0-.56-.13-.75-.34z" fill="#321fdb"/></g><g><g><text y="19" dominant-baseline="ideographic" textLength="106.81" lengthAdjust="spacingAndGlyphs" class="b">Dropdown Link</text></g></g><g><path d="m303.28,13.86-4.8-5.48c-.26-.3-.32-.71-.16-1.07s.52-.59.91-.59h9.6c.39,0,.75.23.91.59s.1.78-.16,1.07l-4.8,5.48c-.19.22-.47.34-.75.34-.29,0-.56-.13-.75-.34z" fill="#321fdb"/></g><g><g><text x="175" y="19" dominant-baseline="ideographic" textLength="106.81" lengthAdjust="spacingAndGlyphs" class="b">Dropdown Link</text></g></g><g><path d="m478.28,13.86-4.8-5.48c-.26-.3-.32-.71-.16-1.07s.52-.59.91-.59h9.6c.39,0,.75.23.91.59s.1.78-.16,1.07l-4.8,5.48c-.19.22-.47.34-.75.34-.29,0-.56-.13-.75-.34z" fill="#321fdb"/></g><g><g><text x="350" y="19" dominant-baseline="ideographic" textLength="106.81" lengthAdjust="spacingAndGlyphs" class="b">Dropdown Link</text></g></g></svg>
