<svg xmlns="http://www.w3.org/2000/svg" viewBox="0,0,563,40"><style>.a{fill:#374254;font-family:Roboto;font-size:18px;font-weight:300;text-transform:none;white-space:pre}</style><g><path d="m4,0h135v40H4a4,4,0,01-4-4V4a4,4,0,014-4z" fill="#ebedef"/></g><g><g><path d="m4,0h135v40H4a4,4,0,01-4-4V4a4,4,0,014-4z" fill="none" stroke="#9da5b1"/></g></g><g><g><text x="16" y="30" dominant-baseline="ideographic" textLength="87.52" lengthAdjust="spacingAndGlyphs" class="a">Choose file</text></g></g><g><path d="m138,0h421a4,4,0,014,4v32a4,4,0,01-4,4H138V0z" fill="#fff"/></g><g><g><path d="m138,0h421a4,4,0,014,4v32a4,4,0,01-4,4H138V0z" fill="none" stroke="#9da5b1"/></g></g><g><g><text x="154" y="30" dominant-baseline="ideographic" textLength="112.15" lengthAdjust="spacingAndGlyphs" class="a">No file chosen</text></g></g></svg>
