<svg xmlns="http://www.w3.org/2000/svg" viewBox="0,0,8e2,240"><defs><filter id="a" x="-.2" y="-.66" width="1.4" height="2.53" color-interpolation-filters="sRGB"><feFlood flood-opacity="0" result="BackgroundImageFix"/><feColorMatrix in="SourceAlpha" values="0,0,0,0,0,0,0,0,0,0,0,0,0,0,0,0,0,0,127,0"/><feOffset dx="0" dy="16"/><feGaussianBlur stdDeviation="24"/><feColorMatrix values="0,0,0,0,0,0,0,0,0,0,0,0,0,0,0,0,0,0,.1,0"/><feBlend in2="BackgroundImageFix" result="filter_45b2c941-4321-11ed-ae8d-334c1a8fba65"/><feBlend in="SourceGraphic" in2="filter_45b2c941-4321-11ed-ae8d-334c1a8fba65" result="shape"/></filter><filter id="b" x="-.17" y="-.66" width="1.33" height="2.5" color-interpolation-filters="sRGB"><feFlood flood-opacity="0" result="BackgroundImageFix"/><feColorMatrix in="SourceAlpha" values="0,0,0,0,0,0,0,0,0,0,0,0,0,0,0,0,0,0,127,0"/><feOffset dx="0"/><feGaussianBlur stdDeviation="1"/><feColorMatrix values="0,0,0,0,.22,0,0,0,0,.26,0,0,0,0,.33,0,0,0,.2,0"/><feBlend in2="BackgroundImageFix" result="filter_30c8ba80-431c-11ed-ae8d-334c1a8fba65"/><feBlend in="SourceGraphic" in2="filter_30c8ba80-431c-11ed-ae8d-334c1a8fba65" result="shape"/></filter><filter id="c" x="-.23" y="-.66" width="1.47" height="2.5" color-interpolation-filters="sRGB"><feFlood flood-opacity="0" result="BackgroundImageFix"/><feColorMatrix in="SourceAlpha" values="0,0,0,0,0,0,0,0,0,0,0,0,0,0,0,0,0,0,127,0"/><feOffset dx="0"/><feGaussianBlur stdDeviation="1"/><feColorMatrix values="0,0,0,0,.22,0,0,0,0,.26,0,0,0,0,.33,0,0,0,.2,0"/><feBlend in2="BackgroundImageFix" result="filter_30c8ba80-431c-11ed-ae8d-334c1a8fba65"/><feBlend in="SourceGraphic" in2="filter_30c8ba80-431c-11ed-ae8d-334c1a8fba65" result="shape"/></filter></defs><g><rect rx="4" width="8e2" height="240" filter="url(#a)" fill="#fff"/></g><g><rect rx="4" x="650" y="192" width="126" height="32" filter="url(#b)" fill="#321fdb"/></g><g><g><text x="669.05" y="216" textLength="86.89" lengthAdjust="spacingAndGlyphs" style="dominant-baseline:ideographic;text-transform:none;font-family:Roboto;font-weight:500;white-space:pre;font-size:14px;fill:#ebedef">Save changes</text></g></g><g><rect rx="4" x="544" y="192" width="90" height="32" filter="url(#c)" fill="#9da5b1"/></g><g><g><text x="571.28" y="216" textLength="35.42" lengthAdjust="spacingAndGlyphs" style="dominant-baseline:ideographic;text-transform:none;font-family:Roboto;font-weight:500;white-space:pre;font-size:14px;fill:#374254">Close</text></g></g><g><g><text x="24" y="114" textLength="192.17" lengthAdjust="spacingAndGlyphs" style="dominant-baseline:ideographic;text-transform:none;font-family:Roboto;font-weight:400;white-space:pre;font-size:16px;fill:#374254">Modal body text goes here.</text></g></g><g><g><text x="24" y="52" textLength="113.03" lengthAdjust="spacingAndGlyphs" style="dominant-baseline:ideographic;text-transform:none;font-family:Roboto;font-weight:400;white-space:pre;font-size:24px;fill:#374254">Modal title</text></g></g><g><g><path d="m0,176h8e2" fill="none" stroke="#ebedef"/></g></g><g><path fill-rule="evenodd" d="m775.86,24.15c.09.09.15.22.15.35s-.05.26-.15.35l-11,11c-.2.2-.51.2-.71,0s-.2-.51,0-.71l11-11c.09-.09.22-.15.35-.15s.26.05.35.15z" fill="#9da5b1"/></g><g><path fill-rule="evenodd" d="m764.15,24.15c-.09.09-.15.22-.15.35s.05.26.15.35l11,11c.2.2.51.2.71,0s.2-.51,0-.71l-11-11c-.09-.09-.22-.15-.35-.15s-.26.05-.35.15z" fill="#9da5b1"/></g><g><g><path d="m0,71h8e2" fill="none" stroke="#ebedef"/></g></g></svg>
