<svg xmlns="http://www.w3.org/2000/svg" viewBox="0,0,3e2,140"><defs><filter id="a" x="-.53" y="-1.14" width="2.06" height="3.61" color-interpolation-filters="sRGB"><feFlood flood-opacity="0" result="BackgroundImageFix"/><feColorMatrix in="SourceAlpha" values="0,0,0,0,0,0,0,0,0,0,0,0,0,0,0,0,0,0,127,0"/><feOffset dx="0" dy="16"/><feGaussianBlur stdDeviation="24"/><feColorMatrix values="0,0,0,0,0,0,0,0,0,0,0,0,0,0,0,0,0,0,.1,0"/><feBlend in2="BackgroundImageFix" result="filter_45b2c941-4321-11ed-ae8d-334c1a8fba65"/><feBlend in="SourceGraphic" in2="filter_45b2c941-4321-11ed-ae8d-334c1a8fba65" result="shape"/></filter></defs><g><rect rx="4" width="3e2" height="140" filter="url(#a)" fill="#fff"/></g><g><g><text x="24" y="114" textLength="192.17" lengthAdjust="spacingAndGlyphs" style="dominant-baseline:ideographic;text-transform:none;font-family:Roboto;font-weight:400;white-space:pre;font-size:16px;fill:#374254">Modal body text goes here.</text></g></g><g><g><text x="24" y="52" textLength="113.03" lengthAdjust="spacingAndGlyphs" style="dominant-baseline:ideographic;text-transform:none;font-family:Roboto;font-weight:400;white-space:pre;font-size:24px;fill:#374254">Modal title</text></g></g><g><path fill-rule="evenodd" d="m275.86,24.15c.09.09.15.22.15.35s-.05.26-.15.35l-11,11c-.2.2-.51.2-.71,0s-.2-.51,0-.71l11-11c.09-.09.22-.15.35-.15s.26.05.35.15z" fill="#9da5b1"/></g><g><path fill-rule="evenodd" d="m264.15,24.15c-.09.09-.15.22-.15.35s.05.26.15.35l11,11c.2.2.51.2.71,0s.2-.51,0-.71l-11-11c-.09-.09-.22-.15-.35-.15s-.26.05-.35.15z" fill="#9da5b1"/></g><g><g><path d="m0,71h299.75" fill="none" stroke="#ebedef"/></g></g></svg>
