<svg xmlns="http://www.w3.org/2000/svg" fill="none" viewBox="0,0,116,34"><defs><filter id="a"><feFlood flood-color="#fff" result="FloodResult"/><feComposite in="FloodResult" in2="SourceGraphic" operator="in" result="comp"/></filter><clipPath id="e"><path d="m0,0h34v34H0"/></clipPath><mask y="0" width="34" maskUnits="userSpaceOnUse" id="f" x="0" height="34"><g filter="url(#a)"><circle cx="17" cy="17" r="17" fill="#b1b2b5"/></g></mask><pattern patternUnits="userSpaceOnUse" height="34" width="34" id="g"/><filter id="b"><feFlood flood-color="#fff" result="FloodResult"/><feComposite in="FloodResult" in2="SourceGraphic" operator="in" result="comp"/></filter><clipPath id="h"><path d="m19,0h34v34H19"/></clipPath><mask y="0" width="34" maskUnits="userSpaceOnUse" id="i" x="19" height="34"><g filter="url(#b)"><circle cx="36" cy="17" r="17" fill="#b1b2b5"/></g></mask><pattern patternUnits="userSpaceOnUse" x="19" height="34" width="34" id="j"/><filter id="c"><feFlood flood-color="#fff" result="FloodResult"/><feComposite in="FloodResult" in2="SourceGraphic" operator="in" result="comp"/></filter><clipPath id="k"><path d="m41,0h34v34H41"/></clipPath><mask y="0" width="34" maskUnits="userSpaceOnUse" id="l" x="41" height="34"><g filter="url(#c)"><circle cx="58" cy="17" r="17" fill="#b1b2b5"/></g></mask><pattern patternUnits="userSpaceOnUse" x="41" height="34" width="34" id="m"/><filter id="d"><feFlood flood-color="#fff" result="FloodResult"/><feComposite in="FloodResult" in2="SourceGraphic" operator="in" result="comp"/></filter><clipPath id="n"><path d="m61,0h34v34H61"/></clipPath><mask y="0" width="34" maskUnits="userSpaceOnUse" id="o" x="61" height="34"><g filter="url(#d)"><circle cx="78" cy="17" r="17" fill="#b1b2b5"/></g></mask><pattern patternUnits="userSpaceOnUse" x="61" height="34" width="34" id="p"/></defs><g mask="url(#f)" clip-path="url(#e)"><g><path fill="url(#g)" d="m0,0h34v34H0z"/></g></g><g mask="url(#i)" clip-path="url(#h)"><g><path fill="url(#j)" d="m19,0h34v34H19z"/></g></g><g mask="url(#l)" clip-path="url(#k)"><g><path fill="url(#m)" d="m41,0h34v34H41z"/></g></g><g mask="url(#o)" clip-path="url(#n)"><g><path fill="url(#p)" d="m61,0h34v34H61z"/></g></g><g><circle cx="99" cy="17" r="17" fill="#9da5b1"/></g></svg>
