<svg xmlns="http://www.w3.org/2000/svg" viewBox="0,0,160,51"><g><path d="m0,0v50h160V0z" fill="#fff"/></g><g><g><path d="m0,50c160.99,0,160,0,160,0" fill="none" stroke-width="2" stroke="#9da5b1"/></g></g><g><g><text x="16" y="34" textLength="59.88" lengthAdjust="spacingAndGlyphs" style="dominant-baseline:ideographic;text-transform:none;font-family:Roboto;font-weight:700;white-space:pre;font-size:16px;fill:#374254">Heading</text></g></g><g><path fill-rule="evenodd" d="m139.5,32c.28,0,.5-.22.5-.5V19.71l3.15,3.15c.2.2.51.2.71,0s.2-.51,0-.71l-4-4c-.09-.09-.22-.15-.35-.15s-.26.05-.35.15l-4,4c-.2.2-.2.51,0,.71s.51.2.71,0l3.15-3.15V31.5c0,.28.22.5.5.5zm-7-14c.28,0,.5.22.5.5v11.79l3.15-3.15c.2-.2.51-.2.71,0s.2.51,0,.71l-4,4c-.09.09-.22.15-.35.15s-.26-.05-.35-.15l-4-4c-.13-.13-.18-.31-.13-.48s.18-.31.35-.35c.17-.05.36,0,.48.13l3.15,3.15V18.5c0-.28.22-.5.5-.5z" fill="#374254"/></g></svg>
